<svg width="24" height="26" viewBox="0 0 24 26" fill="none" xmlns="http://www.w3.org/2000/svg">
<path d="M10.5889 24.1875L10.3018 24.8623L10.6367 26L7.0918 22.8115L7.91797 22.4541L10.5889 24.1875Z" fill="#323E45" style="fill:#323E45;fill:color(display-p3 0.1961 0.2431 0.2706);fill-opacity:1;"/>
<path d="M15.6514 21.7705L17.7275 21.6123L14.543 24.8184L13.5391 24.0801L14.1826 24.9668L10.957 26L10.6367 24.5928L10.874 23.6836L12.9609 22.4541L13.0664 23.0352L14.7393 21.2725L15.6514 21.7705Z" fill="#323E45" style="fill:#323E45;fill:color(display-p3 0.1961 0.2431 0.2706);fill-opacity:1;"/>
<path d="M7.09082 21.4951L4.72754 22.4551L6.38867 16.5459L7.09082 21.4951Z" fill="#323E45" style="fill:#323E45;fill:color(display-p3 0.1961 0.2431 0.2706);fill-opacity:1;"/>
<path d="M17.7275 21.0713L16.0283 21.2725L15.3643 20.8477V18.6895L16.6025 18.5322L17.7275 17.7275V21.0713Z" fill="#323E45" style="fill:#323E45;fill:color(display-p3 0.1961 0.2431 0.2706);fill-opacity:1;"/>
<path d="M23.6367 6.45801L17.1436 9.90332L18.5635 9.92383L18.916 9.4541L18.6934 10.7803L15.8594 11.0703L16.1338 11.9688L18.916 11.7754L19.3203 11.3057L19.1504 12.6318L16.3564 12.8662L16.6299 13.8193L19.3203 13.626L19.6865 13.1562L19.5947 14.4414L16.8525 14.7314L17.127 15.7256L19.6865 15.5322L20.0908 15.0625L19.96 16.334L17.3486 16.624L17.5312 17.0518L16.1865 18.0469L14.7363 18.2949L14.6064 18.0469L12.8037 20.0908L11.7725 19.3867L12.3604 19.3311L14.0703 17.2871L13.4834 16.4854L11.6025 18.627L10.6104 17.9082L11.1455 17.8672L12.9473 15.7256L12.4121 14.9658L10.5186 17.1484L9.43457 16.4854L10.0225 16.4307L11.8643 14.2061L11.3281 13.4463L9.39551 15.6289L8.27246 15.0078L8.86035 14.9658L10.5576 12.5352L15.1416 10.1221L11.0801 11.8184L10.6367 9.42676L12.3242 9.39648L13.3896 8.27246L15.3467 10.0146L15.5625 9.90137L15.0723 8.10352L21.0557 6.22949L19.918 3.79883L18.0986 5.58398L13.1357 5.01465L16.21 3.58301L10.6367 1.13965L18.4277 0L23.6367 6.45801Z" fill="#323E45" style="fill:#323E45;fill:color(display-p3 0.1961 0.2431 0.2706);fill-opacity:1;"/>
<path d="M4.45312 8.54883L7.58398 6.82422L4.625 11.3477L2.08789 11.8096L3.35645 14.2715L8.94531 10.3105L10.6367 12.3721L1.71777 16.5449L0 8.28613L6.2627 2.36328L4.45312 8.54883Z" fill="#323E45" style="fill:#323E45;fill:color(display-p3 0.1961 0.2431 0.2706);fill-opacity:1;"/>
</svg>
