<svg width="18" height="22" viewBox="0 0 18 22" fill="none" xmlns="http://www.w3.org/2000/svg">
<path fill-rule="evenodd" clip-rule="evenodd" d="M16.2799 2.70804C14.9913 1.45866 13.3603 0.593438 11.5802 0.214798C9.80013 -0.163842 7.94539 -0.0400409 6.2356 0.571544C4.52581 1.18313 3.03258 2.25688 1.93268 3.66569C0.832777 5.0745 0.172276 6.75936 0.0293694 8.5208C-0.113537 10.2822 0.267136 12.0465 1.12632 13.6047C1.64361 14.5428 2.32132 15.3827 3.1258 16.0909L1.07376 19.5367H3.29199L4.68136 17.2037C4.74619 17.2408 4.81153 17.2773 4.87736 17.313C6.4675 18.1763 8.27946 18.5797 10.0987 18.4755C11.6182 18.3885 13.0896 17.9505 14.3922 17.2034L15.7818 19.5367H18L9.53688 5.32511L4.13877 14.3898C3.63485 13.8928 3.20397 13.3262 2.86162 12.7053C2.17971 11.4686 1.87759 10.0684 1.99101 8.67039C2.10443 7.27239 2.62865 5.93517 3.5016 4.81705C4.37456 3.69892 5.55969 2.84671 6.9167 2.36132C8.2737 1.87592 9.74575 1.77767 11.1586 2.07818C12.5714 2.3787 13.8658 3.0654 14.8886 4.05698L16.2799 2.70804ZM17.3235 21.9581H17.2237L17.2487 22L17.3235 21.9581ZM1.85003 21.9581H1.7503L1.8251 22L1.85003 21.9581ZM5.8387 15.6485C5.7804 15.6169 5.72259 15.5845 5.66527 15.5514L9.53688 9.05006L13.4083 15.5512C12.37 16.1504 11.1957 16.5017 9.98275 16.5711C8.53884 16.6538 7.10074 16.3336 5.8387 15.6485Z" fill="#323E45" style="fill:#323E45;fill:color(display-p3 0.1961 0.2431 0.2706);fill-opacity:1;"/>
</svg>
