<svg width="20" height="20" viewBox="0 0 20 20" fill="none" xmlns="http://www.w3.org/2000/svg">
<path d="M3.6495 20L0.00631566 19.9931L1.65282e-06 13.274C-0.000399138 12.9417 0.0720953 12.6134 0.212382 12.3121C0.352669 12.0108 0.557338 11.744 0.811983 11.5302L3.64697 9.15176L3.6495 20ZM9.1048 15.4222L9.10354 10.1934C9.09968 10.0639 9.09968 9.93425 9.10354 9.80474L9.10228 4.57462L6.27802 6.94363C6.02367 7.15705 5.81917 7.42353 5.67889 7.72435C5.53862 8.02517 5.46596 8.35303 5.46604 8.6849L5.4692 19.9987H9.10733L9.10607 15.4229L9.1048 15.4222ZM14.5626 19.9994H10.9251L10.9232 14.4538L10.963 14.4935C11.9339 15.47 13.1979 16.1021 14.562 16.2935L14.5626 19.9994ZM18.9837 7.13605L16.3691 9.32967C16.3276 9.36417 16.2984 9.4111 16.2858 9.46349C16.2732 9.51589 16.2778 9.57096 16.299 9.62052C16.357 9.75432 16.382 9.90007 16.372 10.0455C16.362 10.191 16.3173 10.332 16.2415 10.4566C16.1658 10.5812 16.0612 10.6859 15.9366 10.7618C15.8121 10.8378 15.6711 10.8828 15.5255 10.893C15.3962 10.9016 15.2666 10.8824 15.1454 10.8367C15.0241 10.791 14.9141 10.7199 14.8228 10.6281C14.7296 10.5351 14.6578 10.4231 14.6123 10.2996C14.5668 10.1762 14.5488 10.0444 14.5595 9.91325L14.5563 0L11.7327 2.36901C11.4783 2.5825 11.2737 2.84908 11.1334 3.15001C10.9932 3.45095 10.9205 3.77893 10.9207 4.11091L10.9226 10.1675C10.9594 11.2011 11.3496 12.1909 12.0282 12.9718C12.447 13.4554 12.9635 13.845 13.5438 14.1148C14.124 14.3847 14.7548 14.5288 15.3948 14.5377C15.9927 14.5476 16.5866 14.4392 17.1423 14.2186C17.698 13.9981 18.2045 13.6698 18.6326 13.2526C19.0607 12.8355 19.4019 12.3378 19.6365 11.7883C19.8711 11.2387 19.9945 10.6482 19.9996 10.0508C20.0133 8.99017 19.6541 7.95849 18.9837 7.13605Z" fill="#323E45" style="fill:#323E45;fill:color(display-p3 0.1961 0.2431 0.2706);fill-opacity:1;"/>
</svg>
