<svg width="22" height="22" viewBox="0 0 22 22" fill="none" xmlns="http://www.w3.org/2000/svg">
<path d="M11.0009 4.04251e-08C8.8253 -0.000186437 6.69848 0.644784 4.88942 1.85337C3.08036 3.06195 1.67031 4.77986 0.837602 6.78983C0.00489414 8.7998 -0.21308 11.0116 0.211251 13.1454C0.635582 15.2793 1.68315 17.2394 3.22149 18.7778C4.75983 20.3163 6.71984 21.364 8.85365 21.7886C10.9875 22.2131 13.1993 21.9953 15.2093 21.1628C17.2193 20.3302 18.9373 18.9203 20.1461 17.1114C21.3548 15.3024 22 13.1756 22 11C21.9968 8.08377 20.8369 5.28791 18.7749 3.22574C16.7129 1.16357 13.9172 0.00349371 11.0009 4.04251e-08ZM11.0009 1.79138C12.8479 1.79138 14.8986 5.36186 15.0136 10.5418H6.98825C7.10328 5.36186 9.15488 1.79138 11.0009 1.79138ZM7.17965 2.62294C7.01937 2.88504 6.86664 3.16539 6.72145 3.46396C5.78805 5.38167 5.2525 7.8811 5.19782 10.5418H1.80363C1.88964 8.85634 2.43635 7.22682 3.38425 5.83056C4.33216 4.43431 5.64492 3.32484 7.17965 2.62294ZM1.89039 12.3341H5.2346C5.37697 14.6648 5.89458 16.8304 6.72145 18.537C6.86664 18.8349 7.01937 19.1149 7.17965 19.377C5.78106 18.7364 4.56468 17.7566 3.64098 16.5264C2.71727 15.2963 2.11553 13.8558 1.89039 12.3341ZM14.8232 19.377C14.9825 19.1149 15.1362 18.8349 15.2814 18.537C15.8487 17.3284 16.2514 16.0492 16.4788 14.7336H14.6572C13.9718 18.0835 12.4256 20.2086 11.0009 20.2086C9.26047 20.2086 7.339 17.0369 7.02692 12.3341H16.7682C16.7956 11.8947 16.8107 11.4497 16.8107 11.0009C16.8107 8.17244 16.2676 5.49293 15.2814 3.4649C15.1362 3.16602 14.9825 2.88599 14.8232 2.62388C16.4294 3.35691 17.7909 4.53627 18.7456 6.02143C19.7004 7.50659 20.208 9.2349 20.208 11.0005C20.208 12.766 19.7004 14.4943 18.7456 15.9795C17.7909 17.4647 16.4294 18.644 14.8232 19.377Z" fill="#323E45" style="fill:#323E45;fill:color(display-p3 0.1961 0.2431 0.2706);fill-opacity:1;"/>
</svg>
