<svg width="20" height="16" viewBox="0 0 20 16" fill="none" xmlns="http://www.w3.org/2000/svg">
<path d="M4.44336 0V1.93066H2.10449V6.83691H3.89746V8.74121H2.10449V16H0V0H4.44336Z" fill="#323E45" style="fill:#323E45;fill:color(display-p3 0.1961 0.2431 0.2706);fill-opacity:1;"/>
<path d="M7.41406 16H5.24121V0H7.41406V16Z" fill="#323E45" style="fill:#323E45;fill:color(display-p3 0.1961 0.2431 0.2706);fill-opacity:1;"/>
<path fill-rule="evenodd" clip-rule="evenodd" d="M12.9873 0C13.2563 0.550398 13.4837 1.12227 13.6689 1.70996C13.8606 2.31735 14.0197 2.93597 14.1445 3.5625C14.2735 4.19937 14.3765 4.85624 14.459 5.52441C14.5414 6.1924 14.6039 6.87589 14.6523 7.56543C14.7008 8.25471 14.7356 8.95628 14.7607 9.6582C14.7858 10.3593 14.801 11.0707 14.8115 11.7764C14.822 12.4802 14.8273 13.1953 14.8301 13.8965C14.8315 14.249 14.8327 14.6014 14.833 14.9521C14.8335 15.3027 14.8341 15.652 14.834 16H12.8652C12.8635 15.3947 12.8622 14.7861 12.8613 14.1748C12.8597 13.5646 12.8568 12.9529 12.8506 12.3438C12.8381 11.1265 12.8112 9.91388 12.751 8.74121H10.4355V16H8.54492V0H12.9873ZM10.4355 6.83691H12.6172C12.448 5.00764 12.1577 3.31456 11.6553 1.93066H10.4355V6.83691Z" fill="#323E45" style="fill:#323E45;fill:color(display-p3 0.1961 0.2431 0.2706);fill-opacity:1;"/>
<path d="M20 0V1.93066H18.3428V16H16.2383V1.93066H14.5537V0H20Z" fill="#323E45" style="fill:#323E45;fill:color(display-p3 0.1961 0.2431 0.2706);fill-opacity:1;"/>
</svg>
