<svg width="24" height="24" viewBox="0 0 24 24" fill="none" xmlns="http://www.w3.org/2000/svg">
<path fill-rule="evenodd" clip-rule="evenodd" d="M11.1254 0.000379764C11.2349 0.00138938 11.3396 0.0453532 11.4171 0.12281C11.4946 0.200267 11.5385 0.305033 11.5396 0.414568V1.16165C11.5404 1.21603 11.5299 1.26998 11.5086 1.32C11.4872 1.37003 11.4556 1.415 11.4157 1.45197C11.3384 1.52854 11.2341 1.57164 11.1254 1.57196H10.3744C10.3176 1.57446 10.2609 1.56546 10.2077 1.5455C10.1545 1.52555 10.1059 1.49505 10.0647 1.45584C9.99283 1.37517 9.95535 1.26959 9.96019 1.16165V0.414568C9.95615 0.30675 9.99355 0.201469 10.0647 0.120377C10.1056 0.0804667 10.154 0.0492508 10.2073 0.0286248C10.2605 0.00799875 10.3174 -0.00160739 10.3744 0.000379764H11.1254ZM8.64795 0.000379764C8.75675 0.000704876 8.86103 0.0438068 8.93827 0.120377C8.97795 0.158133 9.00919 0.203883 9.02987 0.254597C9.05055 0.30531 9.06023 0.359834 9.05827 0.414568V1.16165C9.05967 1.21574 9.04971 1.26953 9.02907 1.31953C9.00839 1.36954 8.97747 1.41465 8.93827 1.45197C8.86103 1.52854 8.75675 1.57164 8.64795 1.57196H7.89703C7.78707 1.57183 7.68151 1.52877 7.60283 1.45197C7.52627 1.37471 7.48315 1.27043 7.48283 1.16165V0.414568C7.48295 0.304617 7.52603 0.199058 7.60283 0.120377C7.68151 0.0435732 7.78707 0.000519092 7.89703 0.000379764H8.64795ZM16.1072 0.000379764C16.2159 0.000704876 16.3202 0.0438068 16.3975 0.120377C16.4743 0.199058 16.5174 0.304617 16.5175 0.414568V1.16165C16.5175 1.27047 16.4743 1.37484 16.3973 1.45179C16.3204 1.52874 16.216 1.57196 16.1072 1.57196H15.3562C15.302 1.57247 15.2483 1.56224 15.198 1.54185C15.1478 1.52146 15.1021 1.49131 15.0636 1.45316C15.0251 1.41501 14.9945 1.3696 14.9737 1.31957C14.9528 1.26953 14.9421 1.21586 14.9421 1.16165V0.414568C14.9422 0.304617 14.9853 0.199058 15.0621 0.120377C15.1008 0.0819963 15.1467 0.0516388 15.1972 0.0310465C15.2477 0.0104543 15.3017 3.40276e-05 15.3562 0.000379764H16.1072ZM13.6259 0.000379764C13.6831 -0.00206767 13.7401 0.00733523 13.7933 0.0279869C13.8466 0.0486384 13.8951 0.0800907 13.9356 0.120377C14.0124 0.199058 14.0555 0.304617 14.0556 0.414568V1.16165C14.0562 1.21753 14.0454 1.27294 14.0238 1.32448C14.0022 1.37602 13.9703 1.42261 13.9301 1.46139C13.8899 1.50017 13.8422 1.53032 13.7898 1.55C13.7376 1.56968 13.6818 1.57848 13.6259 1.57584H12.875C12.8208 1.57584 12.7671 1.5651 12.7171 1.54424C12.667 1.52338 12.6216 1.49281 12.5835 1.45429C12.5453 1.41578 12.5152 1.37009 12.4948 1.31986C12.4744 1.26963 12.4642 1.21586 12.4647 1.16165V0.414568C12.4648 0.304617 12.5079 0.199058 12.5847 0.120377C12.662 0.0438068 12.7662 0.000704876 12.875 0.000379764H13.6259ZM11.1254 2.47775C11.2349 2.47876 11.3396 2.52273 11.4171 2.60019C11.4946 2.67764 11.5385 2.78241 11.5396 2.89194V3.6429C11.5404 3.69728 11.5299 3.75123 11.5086 3.80125C11.4872 3.85127 11.4556 3.89624 11.4157 3.93322C11.3384 4.0098 11.2341 4.05288 11.1254 4.0532H10.3744C10.2644 4.05308 10.1589 4.01004 10.0802 3.93322C10.0036 3.85596 9.96055 3.75167 9.96019 3.6429V2.89194C9.95971 2.83741 9.97003 2.78332 9.99067 2.73283C10.0113 2.68235 10.0418 2.63648 10.0804 2.59792C10.1189 2.55935 10.1648 2.52886 10.2153 2.50823C10.2658 2.4876 10.3199 2.47724 10.3744 2.47775H11.1254ZM21.1123 2.47775C21.2211 2.47808 21.3253 2.52118 21.4026 2.59775C21.4794 2.67643 21.5225 2.78199 21.5226 2.89194V3.6429C21.5226 3.75172 21.4793 3.85609 21.4024 3.93304C21.3255 4.01 21.2211 4.0532 21.1123 4.0532H20.3613C20.2514 4.05308 20.1458 4.01004 20.0671 3.93322C19.9905 3.85596 19.9475 3.75167 19.9471 3.6429V2.89194C19.9466 2.83741 19.957 2.78332 19.9776 2.73283C19.9982 2.68235 20.0287 2.63648 20.0673 2.59792C20.1059 2.55935 20.1517 2.52886 20.2022 2.50823C20.2527 2.4876 20.3068 2.47724 20.3613 2.47775H21.1123ZM8.64795 2.47775C8.75675 2.47808 8.86103 2.52118 8.93827 2.59775C8.97795 2.63551 9.00919 2.68126 9.02987 2.73197C9.05055 2.78268 9.06023 2.83721 9.05827 2.89194V3.6429C9.05967 3.69699 9.04971 3.75077 9.02907 3.80078C9.00839 3.85079 8.97747 3.8959 8.93827 3.93322C8.86103 4.0098 8.75675 4.05288 8.64795 4.0532H7.89703C7.78707 4.05308 7.68151 4.01004 7.60283 3.93322C7.52627 3.85596 7.48315 3.75167 7.48283 3.6429V2.89194C7.48231 2.83741 7.49267 2.78332 7.51331 2.73283C7.53395 2.68235 7.56443 2.63648 7.60299 2.59792C7.64155 2.55935 7.68743 2.52886 7.73791 2.50823C7.78839 2.4876 7.84247 2.47724 7.89703 2.47775H8.64795ZM16.1072 2.47775C16.2159 2.47808 16.3202 2.52118 16.3975 2.59775C16.4743 2.67643 16.5174 2.78199 16.5175 2.89194V3.6429C16.5175 3.75172 16.4743 3.85609 16.3973 3.93304C16.3204 4.01 16.216 4.0532 16.1072 4.0532H15.3562C15.302 4.05372 15.2483 4.04348 15.198 4.02312C15.1478 4.00272 15.1021 3.97256 15.0636 3.93441C15.0251 3.89626 14.9945 3.85085 14.9737 3.80082C14.9528 3.75078 14.9421 3.69711 14.9421 3.6429V2.89194C14.9422 2.78199 14.9853 2.67643 15.0621 2.59775C15.1008 2.55937 15.1467 2.52901 15.1972 2.50842C15.2477 2.48783 15.3017 2.47741 15.3562 2.47775H16.1072ZM3.6429 2.47775C3.75167 2.47808 3.85596 2.52118 3.93322 2.59775C4.01004 2.67643 4.05308 2.78199 4.0532 2.89194V3.6429C4.0532 3.75172 4.01 3.85609 3.93304 3.93304C3.85609 4.01 3.75172 4.0532 3.6429 4.0532H2.89194C2.78199 4.05308 2.67643 4.01004 2.59775 3.93322C2.52118 3.85596 2.47808 3.75167 2.47775 3.6429V2.89194C2.47724 2.83741 2.4876 2.78332 2.50823 2.73283C2.52886 2.68235 2.55935 2.63648 2.59792 2.59792C2.63648 2.55935 2.68235 2.52886 2.73283 2.50823C2.78332 2.4876 2.83741 2.47724 2.89194 2.47775H3.6429ZM18.6078 2.47775C18.7173 2.47876 18.8221 2.52273 18.8995 2.60019C18.977 2.67764 19.021 2.78241 19.022 2.89194V3.6429C19.0229 3.69728 19.0123 3.75123 18.991 3.80125C18.9696 3.85127 18.938 3.89624 18.8981 3.93322C18.8608 3.9724 18.8157 4.00332 18.7657 4.024C18.7157 4.04464 18.6619 4.0546 18.6078 4.0532H17.8569C17.7481 4.05288 17.6438 4.0098 17.5665 3.93322C17.5266 3.89624 17.495 3.85127 17.4737 3.80125C17.4523 3.75123 17.4417 3.69728 17.4427 3.6429V2.89194C17.4437 2.78241 17.4876 2.67764 17.5651 2.60019C17.6425 2.52273 17.7473 2.47876 17.8569 2.47775H18.6078ZM6.14352 2.47775C6.19804 2.47724 6.25212 2.4876 6.3026 2.50823C6.35308 2.52886 6.39896 2.55935 6.43752 2.59792C6.47608 2.63648 6.5066 2.68235 6.5272 2.73283C6.54784 2.78332 6.55819 2.83741 6.55767 2.89194V3.6429C6.55735 3.75167 6.51428 3.85596 6.43768 3.93322C6.359 4.01004 6.25344 4.05308 6.14352 4.0532H5.39256C5.28372 4.0532 5.17936 4.01 5.1024 3.93304C5.02548 3.85609 4.98224 3.75172 4.98224 3.6429V2.89194C4.98236 2.78199 5.02544 2.67643 5.10224 2.59775C5.17948 2.52118 5.28376 2.47808 5.39256 2.47775H6.14352ZM13.6259 2.47775C13.6805 2.47741 13.7345 2.48783 13.785 2.50842C13.8355 2.52901 13.8814 2.55937 13.9201 2.59775C13.9969 2.67643 14.04 2.78199 14.0401 2.89194V3.6429C14.0401 3.69711 14.0294 3.75078 14.0085 3.80082C13.9877 3.85085 13.9571 3.89626 13.9186 3.93441C13.8801 3.97256 13.8344 4.00272 13.7842 4.02312C13.7339 4.04348 13.6801 4.05372 13.6259 4.0532H12.875C12.7662 4.0532 12.6618 4.01 12.5849 3.93304C12.5079 3.85609 12.4647 3.75172 12.4647 3.6429V2.89194C12.4648 2.78199 12.5079 2.67643 12.5847 2.59775C12.662 2.52118 12.7662 2.47808 12.875 2.47775H13.6259ZM8.64795 4.98224C8.75675 4.98256 8.86103 5.02564 8.93827 5.10224C8.97747 5.13956 9.00839 5.18464 9.02907 5.23468C9.04971 5.28468 9.05967 5.33844 9.05827 5.39256V6.14352C9.06023 6.19824 9.05055 6.25276 9.02987 6.30348C9.00919 6.3542 8.97795 6.39992 8.93827 6.43768C8.86103 6.51428 8.75675 6.55735 8.64795 6.55767H7.89703C7.84247 6.55819 7.78839 6.54784 7.73791 6.5272C7.68743 6.5066 7.64155 6.47608 7.60299 6.43752C7.56443 6.39896 7.53395 6.35308 7.51331 6.3026C7.49267 6.25212 7.48231 6.19804 7.48283 6.14352V5.39256C7.48315 5.28376 7.52627 5.17948 7.60283 5.10224C7.68151 5.02544 7.78707 4.98236 7.89703 4.98224H8.64795ZM3.6429 4.98224C3.75172 4.98224 3.85609 5.02548 3.93304 5.1024C4.01 5.17936 4.0532 5.28372 4.0532 5.39256V6.14352C4.05308 6.25344 4.01004 6.359 3.93322 6.43768C3.85596 6.51428 3.75167 6.55735 3.6429 6.55767H2.89194C2.83741 6.55819 2.78332 6.54784 2.73283 6.5272C2.68235 6.5066 2.63648 6.47608 2.59792 6.43752C2.55935 6.39896 2.52886 6.35308 2.50823 6.3026C2.4876 6.25212 2.47724 6.19804 2.47775 6.14352V5.39256C2.47808 5.28376 2.52118 5.17948 2.59775 5.10224C2.67643 5.02544 2.78199 4.98236 2.89194 4.98224H3.6429ZM11.1254 4.98224C11.2341 4.98256 11.3384 5.02564 11.4157 5.10224C11.4556 5.1392 11.4872 5.18416 11.5086 5.2342C11.5299 5.2842 11.5404 5.33816 11.5396 5.39256V6.14352C11.5385 6.25304 11.4946 6.3578 11.4171 6.43528C11.3396 6.51272 11.2349 6.55667 11.1254 6.55767H10.3744C10.3199 6.55819 10.2658 6.54784 10.2153 6.5272C10.1648 6.5066 10.1189 6.47608 10.0804 6.43752C10.0418 6.39896 10.0113 6.35308 9.99067 6.3026C9.97003 6.25212 9.95971 6.19804 9.96019 6.14352V5.39256C9.96055 5.28376 10.0036 5.17948 10.0802 5.10224C10.1589 5.02544 10.2644 4.98236 10.3744 4.98224H11.1254ZM18.6078 4.98224C18.6619 4.98084 18.7157 4.9908 18.7657 5.01144C18.8157 5.03212 18.8608 5.06304 18.8981 5.10224C18.938 5.1392 18.9696 5.18416 18.991 5.2342C19.0123 5.2842 19.0229 5.33816 19.022 5.39256V6.14352C19.021 6.25304 18.977 6.3578 18.8995 6.43528C18.8221 6.51272 18.7173 6.55667 18.6078 6.55767H17.8569C17.7473 6.55667 17.6425 6.51272 17.5651 6.43528C17.4876 6.3578 17.4437 6.25304 17.4427 6.14352V5.39256C17.4417 5.33816 17.4523 5.2842 17.4737 5.2342C17.495 5.18416 17.5266 5.1392 17.5665 5.10224C17.6438 5.02564 17.7481 4.98256 17.8569 4.98224H18.6078ZM21.1123 4.98224C21.2211 4.98224 21.3255 5.02548 21.4024 5.1024C21.4793 5.17936 21.5226 5.28372 21.5226 5.39256V6.14352C21.5225 6.25344 21.4794 6.359 21.4026 6.43768C21.3253 6.51428 21.2211 6.55735 21.1123 6.55767H20.3613C20.3068 6.55819 20.2527 6.54784 20.2022 6.5272C20.1517 6.5066 20.1059 6.47608 20.0673 6.43752C20.0287 6.39896 19.9982 6.35308 19.9776 6.3026C19.957 6.25212 19.9466 6.19804 19.9471 6.14352V5.39256C19.9475 5.28376 19.9905 5.17948 20.0671 5.10224C20.1458 5.02544 20.2514 4.98236 20.3613 4.98224H21.1123ZM6.14352 4.98224C6.25344 4.98236 6.359 5.02544 6.43768 5.10224C6.51428 5.17948 6.55735 5.28376 6.55767 5.39256V6.14352C6.55819 6.19804 6.54784 6.25212 6.5272 6.3026C6.5066 6.35308 6.47608 6.39896 6.43752 6.43752C6.39896 6.47608 6.35308 6.5066 6.3026 6.5272C6.25212 6.54784 6.19804 6.55819 6.14352 6.55767H5.39256C5.28376 6.55735 5.17948 6.51428 5.10224 6.43768C5.02544 6.359 4.98236 6.25344 4.98224 6.14352V5.39256C4.98224 5.28372 5.02548 5.17936 5.1024 5.1024C5.17936 5.02548 5.28372 4.98224 5.39256 4.98224H6.14352ZM16.1072 4.98224C16.216 4.98224 16.3204 5.02548 16.3973 5.1024C16.4743 5.17936 16.5175 5.28372 16.5175 5.39256V6.14352C16.5174 6.25344 16.4743 6.359 16.3975 6.43768C16.3202 6.51428 16.2159 6.55735 16.1072 6.55767H15.3562C15.3017 6.55803 15.2477 6.5476 15.1972 6.52704C15.1467 6.50644 15.1008 6.47608 15.0621 6.43768C14.9853 6.359 14.9422 6.25344 14.9421 6.14352V5.39256C14.9421 5.33832 14.9528 5.28468 14.9737 5.23464C14.9945 5.1846 15.0251 5.1392 15.0636 5.10104C15.1021 5.06288 15.1478 5.03272 15.198 5.01236C15.2483 4.99196 15.302 4.98172 15.3562 4.98224H16.1072ZM13.6259 4.98224C13.6801 4.98172 13.7339 4.99196 13.7842 5.01236C13.8344 5.03272 13.8801 5.06288 13.9186 5.10104C13.9571 5.1392 13.9877 5.1846 14.0085 5.23464C14.0294 5.28468 14.0401 5.33832 14.0401 5.39256V6.14352C14.04 6.25344 13.9969 6.359 13.9201 6.43768C13.8814 6.47608 13.8355 6.50644 13.785 6.52704C13.7345 6.5476 13.6805 6.55803 13.6259 6.55767H12.875C12.7662 6.55735 12.662 6.51428 12.5847 6.43768C12.5079 6.359 12.4648 6.25344 12.4647 6.14352V5.39256C12.4647 5.28372 12.5079 5.17936 12.5849 5.1024C12.6618 5.02548 12.7662 4.98224 12.875 4.98224H13.6259ZM13.6259 7.48283C13.6805 7.48247 13.7345 7.49291 13.785 7.51351C13.8355 7.53411 13.8814 7.56443 13.9201 7.60283C13.9969 7.68151 14.04 7.78707 14.0401 7.89703V8.64795C14.0398 8.75675 13.9967 8.86103 13.9201 8.93827C13.8824 8.97795 13.8366 9.00919 13.7859 9.02987C13.7352 9.05055 13.6807 9.06023 13.6259 9.05827H12.875C12.8209 9.05967 12.7671 9.04971 12.7171 9.02907C12.6671 9.00839 12.622 8.97747 12.5847 8.93827C12.5081 8.86103 12.465 8.75675 12.4647 8.64795V7.89703C12.4648 7.78707 12.5079 7.68151 12.5847 7.60283C12.662 7.52627 12.7662 7.48315 12.875 7.48283H13.6259ZM1.16165 7.48283C1.27043 7.48315 1.37471 7.52627 1.45197 7.60283C1.52877 7.68151 1.57183 7.78707 1.57196 7.89703V8.64795C1.57164 8.75675 1.52854 8.86103 1.45197 8.93827C1.41465 8.97747 1.36954 9.00839 1.31953 9.02907C1.26953 9.04971 1.21574 9.05967 1.16165 9.05827H0.414568C0.359834 9.06023 0.30531 9.05055 0.254597 9.02987C0.203883 9.00919 0.158133 8.97795 0.120377 8.93827C0.0438068 8.86103 0.000704876 8.75675 0.000379764 8.64795V7.89703C0.000519092 7.78707 0.0435732 7.68151 0.120377 7.60283C0.199058 7.52603 0.304617 7.48295 0.414568 7.48283H1.16165ZM18.6039 7.48283C18.7135 7.48383 18.8182 7.52779 18.8957 7.60527C18.9731 7.68271 19.0171 7.78747 19.0181 7.89703V8.64795C19.019 8.70235 19.0085 8.75631 18.9871 8.80631C18.9658 8.85635 18.9341 8.90131 18.8942 8.93827C18.8569 8.97747 18.8118 9.00839 18.7618 9.02907C18.7118 9.04971 18.658 9.05967 18.6039 9.05827H17.8569C17.748 9.05731 17.6438 9.01387 17.5664 8.93723C17.4891 8.86063 17.4447 8.75683 17.4427 8.64795V7.89703C17.4437 7.78747 17.4876 7.68271 17.5651 7.60527C17.6425 7.52779 17.7473 7.48383 17.8569 7.48283H18.6039ZM21.1084 7.48283C21.2172 7.48315 21.3215 7.52627 21.3987 7.60283C21.4755 7.68151 21.5186 7.78707 21.5187 7.89703V8.64795C21.5184 8.75675 21.4753 8.86103 21.3987 8.93827C21.3614 8.97747 21.3163 9.00839 21.2663 9.02907C21.2163 9.04971 21.1625 9.05967 21.1084 9.05827H20.3613C20.3066 9.06023 20.2521 9.05055 20.2013 9.02987C20.1506 9.00919 20.1049 8.97795 20.0671 8.93827C19.9905 8.86103 19.9475 8.75675 19.9471 8.64795V7.89703C19.9466 7.84247 19.957 7.78839 19.9776 7.73791C19.9982 7.68743 20.0287 7.64155 20.0673 7.60299C20.1059 7.56443 20.1517 7.53395 20.2022 7.51331C20.2527 7.49267 20.3068 7.48231 20.3613 7.48283H21.1084ZM23.5858 7.48283C23.6945 7.48315 23.7988 7.52627 23.8761 7.60283C23.9529 7.68151 23.9959 7.78707 23.9961 7.89703V8.64795C23.9958 8.75675 23.9527 8.86103 23.8761 8.93827C23.8388 8.97747 23.7937 9.00839 23.7437 9.02907C23.6937 9.04971 23.6399 9.05967 23.5858 9.05827H22.8387C22.7839 9.06023 22.7294 9.05055 22.6787 9.02987C22.628 9.00919 22.5823 8.97795 22.5445 8.93827C22.4679 8.86103 22.4248 8.75675 22.4245 8.64795V7.89703C22.424 7.84247 22.4343 7.78839 22.455 7.73791C22.4756 7.68743 22.5061 7.64155 22.5447 7.60299C22.5832 7.56443 22.6291 7.53395 22.6796 7.51331C22.7301 7.49267 22.7841 7.48231 22.8387 7.48283H23.5858ZM11.1215 7.48283C11.231 7.48383 11.3358 7.52779 11.4132 7.60527C11.4907 7.68271 11.5346 7.78747 11.5357 7.89703V8.64795C11.5336 8.75683 11.4892 8.86063 11.4119 8.93723C11.3346 9.01387 11.2304 9.05731 11.1215 9.05827H10.3744C10.3197 9.06023 10.2651 9.05055 10.2144 9.02987C10.1637 9.00919 10.118 8.97795 10.0802 8.93827C10.0036 8.86103 9.96055 8.75675 9.96019 8.64795V7.89703C9.95971 7.84247 9.97003 7.78839 9.99067 7.73791C10.0113 7.68743 10.0418 7.64155 10.0804 7.60299C10.1189 7.56443 10.1648 7.53395 10.2153 7.51331C10.2658 7.49267 10.3199 7.48231 10.3744 7.48283H11.1215ZM6.13964 7.48283C6.19416 7.48231 6.24828 7.49267 6.29876 7.51331C6.34924 7.53395 6.39508 7.56443 6.43364 7.60299C6.4722 7.64155 6.50272 7.68743 6.52332 7.73791C6.54396 7.78839 6.55432 7.84247 6.5538 7.89703V8.64795C6.55348 8.75675 6.51039 8.86103 6.43379 8.93827C6.39608 8.97795 6.35032 9.00919 6.2996 9.02987C6.24888 9.05055 6.19436 9.06023 6.13964 9.05827H5.39256C5.33844 9.05967 5.28468 9.04971 5.23468 9.02907C5.18464 9.00839 5.13956 8.97747 5.10224 8.93827C5.02564 8.86103 4.98256 8.75675 4.98224 8.64795V7.89703C4.98236 7.78707 5.02544 7.68151 5.10224 7.60283C5.17948 7.52627 5.28376 7.48315 5.39256 7.48283H6.13964ZM3.63903 7.48283C3.7478 7.48315 3.85208 7.52627 3.92934 7.60283C4.00616 7.68151 4.0492 7.78707 4.04936 7.89703V8.64795C4.049 8.75675 4.00592 8.86103 3.92934 8.93827C3.89203 8.97747 3.84691 9.00839 3.79691 9.02907C3.7469 9.04971 3.69311 9.05967 3.63903 9.05827H2.89194C2.83721 9.06023 2.78268 9.05055 2.73197 9.02987C2.68126 9.00919 2.63551 8.97795 2.59775 8.93827C2.52118 8.86103 2.47808 8.75675 2.47775 8.64795V7.89703C2.47724 7.84247 2.4876 7.78839 2.50823 7.73791C2.52886 7.68743 2.55935 7.64155 2.59792 7.60299C2.63648 7.56443 2.68235 7.53395 2.73283 7.51331C2.78332 7.49267 2.83741 7.48231 2.89194 7.48283H3.63903ZM13.6221 9.96019C13.6787 9.95519 13.7358 9.96183 13.7898 9.97983C13.8437 9.99783 13.8933 10.0267 13.9356 10.0647C14.0124 10.1434 14.0555 10.249 14.0556 10.3589V11.1099C14.0553 11.2186 14.0122 11.3229 13.9356 11.4002C13.8982 11.4406 13.8526 11.4725 13.8019 11.4939C13.7511 11.5152 13.6965 11.5255 13.6414 11.524H12.875C12.8206 11.525 12.7667 11.5144 12.7166 11.493C12.6666 11.4717 12.6217 11.4401 12.5847 11.4002C12.5081 11.3229 12.465 11.2186 12.4647 11.1099V10.3744C12.4648 10.2644 12.5079 10.1589 12.5847 10.0802C12.662 10.0036 12.7662 9.96055 12.875 9.96019H13.6221ZM18.6039 9.96019C18.7135 9.96123 18.8182 10.0052 18.8957 10.0826C18.9731 10.1601 19.0171 10.2648 19.0181 10.3744V11.1254C19.019 11.1797 19.0085 11.2337 18.9871 11.2837C18.9658 11.3338 18.9341 11.3787 18.8942 11.4157C18.8573 11.4556 18.8123 11.4872 18.7623 11.5086C18.7123 11.5299 18.6583 11.5404 18.6039 11.5396H17.8569C17.7476 11.5376 17.6434 11.4933 17.5661 11.416C17.4889 11.3388 17.4446 11.2346 17.4427 11.1254V10.3744C17.4437 10.2648 17.4876 10.1601 17.5651 10.0826C17.6425 10.0052 17.7473 9.96123 17.8569 9.96019H18.6039ZM23.5858 9.96019C23.6945 9.96055 23.7988 10.0036 23.8761 10.0802C23.9529 10.1589 23.9959 10.2644 23.9961 10.3744V11.1254C23.9958 11.2341 23.9527 11.3384 23.8761 11.4157C23.8391 11.4556 23.7941 11.4872 23.7441 11.5086C23.6941 11.5299 23.6401 11.5404 23.5858 11.5396H22.8387C22.7291 11.5385 22.6244 11.4946 22.5469 11.4171C22.4695 11.3396 22.4255 11.2349 22.4245 11.1254V10.3744C22.424 10.3199 22.4343 10.2658 22.455 10.2153C22.4756 10.1648 22.5061 10.1189 22.5447 10.0804C22.5832 10.0418 22.6291 10.0113 22.6796 9.99067C22.7301 9.97003 22.7841 9.95971 22.8387 9.96019H23.5858ZM6.13964 9.96019C6.19416 9.95971 6.24828 9.97003 6.29876 9.99067C6.34924 10.0113 6.39508 10.0418 6.43364 10.0804C6.4722 10.1189 6.50272 10.1648 6.52332 10.2153C6.54396 10.2658 6.55432 10.3199 6.5538 10.3744V11.1254C6.5528 11.2349 6.50884 11.3396 6.4314 11.4171C6.35392 11.4946 6.24916 11.5385 6.13964 11.5396H5.39256C5.33816 11.5404 5.2842 11.5299 5.2342 11.5086C5.18416 11.4872 5.1392 11.4556 5.10224 11.4157C5.02564 11.3384 4.98256 11.2341 4.98224 11.1254V10.3744C4.98236 10.2644 5.02544 10.1589 5.10224 10.0802C5.17948 10.0036 5.28376 9.96055 5.39256 9.96019H6.13964ZM21.1084 9.96019C21.2172 9.96055 21.3215 10.0036 21.3987 10.0802C21.4755 10.1589 21.5186 10.2644 21.5187 10.3744V11.1254C21.5184 11.2341 21.4753 11.3384 21.3987 11.4157C21.3617 11.4556 21.3168 11.4872 21.2667 11.5086C21.2167 11.5299 21.1628 11.5404 21.1084 11.5396H20.3613C20.2518 11.5385 20.147 11.4946 20.0695 11.4171C19.9921 11.3396 19.9481 11.2349 19.9471 11.1254V10.3744C19.9466 10.3199 19.957 10.2658 19.9776 10.2153C19.9982 10.1648 20.0287 10.1189 20.0673 10.0804C20.1059 10.0418 20.1517 10.0113 20.2022 9.99067C20.2527 9.97003 20.3068 9.95971 20.3613 9.96019H21.1084ZM1.16165 9.96019C1.27043 9.96055 1.37471 10.0036 1.45197 10.0802C1.52877 10.1589 1.57183 10.2644 1.57196 10.3744V11.1254C1.57164 11.2341 1.52854 11.3384 1.45197 11.4157C1.415 11.4556 1.37003 11.4872 1.32 11.5086C1.26998 11.5299 1.21603 11.5404 1.16165 11.5396H0.414568C0.305033 11.5385 0.200267 11.4946 0.12281 11.4171C0.0453532 11.3396 0.00138938 11.2349 0.000379764 11.1254V10.3744C-0.00160739 10.3174 0.00799875 10.2605 0.0286248 10.2073C0.0492508 10.154 0.0804667 10.1056 0.120377 10.0647C0.199058 9.98791 0.304617 9.94487 0.414568 9.94471L1.16165 9.96019ZM3.63903 9.96019C3.7478 9.96055 3.85208 10.0036 3.92934 10.0802C4.00616 10.1589 4.0492 10.2644 4.04936 10.3744V11.1254C4.049 11.2341 4.00592 11.3384 3.92934 11.4157C3.89237 11.4556 3.84741 11.4872 3.79739 11.5086C3.74737 11.5299 3.6934 11.5404 3.63903 11.5396H2.89194C2.78241 11.5385 2.67764 11.4946 2.60019 11.4171C2.52273 11.3396 2.47876 11.2349 2.47775 11.1254V10.3744C2.47724 10.3199 2.4876 10.2658 2.50823 10.2153C2.52886 10.1648 2.55935 10.1189 2.59792 10.0804C2.63648 10.0418 2.68235 10.0113 2.73283 9.99067C2.78332 9.97003 2.83741 9.95971 2.89194 9.96019H3.63903ZM23.5897 12.4647C23.6985 12.4647 23.8028 12.5079 23.8798 12.5848C23.9567 12.6618 24 12.7662 24 12.875V13.6259C24.0005 13.6801 23.9902 13.7339 23.9699 13.7842C23.9495 13.8344 23.9193 13.8801 23.8811 13.9186C23.843 13.9571 23.7976 13.9877 23.7476 14.0085C23.6975 14.0294 23.6439 14.0401 23.5897 14.0401H22.8387C22.7287 14.04 22.6232 13.9969 22.5445 13.9201C22.5061 13.8814 22.4758 13.8355 22.4552 13.785C22.4346 13.7345 22.4241 13.6805 22.4245 13.6259V12.875C22.4248 12.7662 22.4679 12.662 22.5445 12.5847C22.6232 12.5079 22.7287 12.4648 22.8387 12.4647H23.5897ZM1.16165 12.4647C1.27047 12.4647 1.37484 12.5079 1.45179 12.5848C1.52874 12.6618 1.57196 12.7662 1.57196 12.875V13.6259C1.57247 13.6801 1.56224 13.7339 1.54185 13.7842C1.52146 13.8344 1.49131 13.8801 1.45316 13.9186C1.41501 13.9571 1.3696 13.9877 1.31957 14.0085C1.26953 14.0294 1.21586 14.0401 1.16165 14.0401H0.414568C0.30675 14.0442 0.201469 14.0068 0.120377 13.9356C0.0800907 13.8951 0.0486384 13.8466 0.0279869 13.7933C0.00733523 13.7401 -0.00206767 13.6831 0.000379764 13.6259V12.875C0.000704876 12.7662 0.0438068 12.662 0.120377 12.5847C0.199058 12.5079 0.304617 12.4648 0.414568 12.4647H1.16165ZM11.1215 12.4647C11.2303 12.465 11.3346 12.5081 11.4118 12.5847C11.4517 12.6217 11.4833 12.6666 11.5047 12.7166C11.526 12.7667 11.5366 12.8206 11.5357 12.875V13.6259C11.5371 13.681 11.5268 13.7357 11.5055 13.7864C11.4841 13.8371 11.4522 13.8827 11.4118 13.9201C11.3346 13.9967 11.2303 14.0398 11.1215 14.0401H10.3744C10.3184 14.0442 10.2622 14.037 10.209 14.0191C10.1559 14.0011 10.1068 13.9727 10.0647 13.9356C10.0264 13.8969 9.99599 13.851 9.97539 13.8005C9.95479 13.75 9.94439 13.6959 9.94471 13.6414V12.875C9.94503 12.7662 9.98815 12.662 10.0647 12.5847C10.1434 12.5079 10.249 12.4648 10.3589 12.4647H11.1215ZM21.1084 12.4647C21.2172 12.4647 21.3216 12.5079 21.3985 12.5848C21.4755 12.6618 21.5187 12.7662 21.5187 12.875V13.6259C21.5192 13.6801 21.509 13.7339 21.4886 13.7842C21.4682 13.8344 21.4381 13.8801 21.3999 13.9186C21.3617 13.9571 21.3163 13.9877 21.2663 14.0085C21.2163 14.0294 21.1626 14.0401 21.1084 14.0401H20.3613C20.2514 14.04 20.1458 13.9969 20.0671 13.9201C20.0287 13.8814 19.9984 13.8355 19.9778 13.785C19.9572 13.7345 19.9468 13.6805 19.9471 13.6259V12.875C19.9475 12.7662 19.9905 12.662 20.0671 12.5847C20.1458 12.5079 20.2514 12.4648 20.3613 12.4647H21.1084ZM3.63903 12.4647C3.74785 12.4647 3.85222 12.5079 3.92917 12.5848C4.00612 12.6618 4.04936 12.7662 4.04936 12.875V13.6259C4.04984 13.6801 4.03964 13.7339 4.01924 13.7842C3.99884 13.8344 3.96868 13.8801 3.93053 13.9186C3.89238 13.9571 3.84698 13.9877 3.79694 14.0085C3.74691 14.0294 3.69323 14.0401 3.63903 14.0401H2.89194C2.78413 14.0442 2.67884 14.0068 2.59775 13.9356C2.55937 13.8969 2.52901 13.851 2.50842 13.8005C2.48783 13.75 2.47741 13.6959 2.47775 13.6414V12.875C2.47808 12.7662 2.52118 12.662 2.59775 12.5847C2.67643 12.5079 2.78199 12.4648 2.89194 12.4647H3.63903ZM18.6039 12.4647C18.658 12.4633 18.7118 12.4732 18.7618 12.4939C18.8118 12.5146 18.8569 12.5455 18.8942 12.5847C18.9341 12.6217 18.9658 12.6666 18.9871 12.7166C19.0085 12.7667 19.019 12.8206 19.0181 12.875V13.6259C19.0171 13.7355 18.9731 13.8403 18.8957 13.9177C18.8182 13.9952 18.7135 14.0391 18.6039 14.0401H17.8569C17.7481 14.0398 17.6438 13.9967 17.5665 13.9201C17.5261 13.8827 17.4942 13.8371 17.4729 13.7864C17.4515 13.7357 17.4412 13.681 17.4427 13.6259V12.875C17.4417 12.8206 17.4523 12.7667 17.4737 12.7166C17.495 12.6666 17.5266 12.6217 17.5665 12.5847C17.6438 12.5081 17.7481 12.465 17.8569 12.4647H18.6039ZM6.13964 12.4647C6.24956 12.4648 6.35512 12.5079 6.43379 12.5847C6.51039 12.662 6.55348 12.7662 6.5538 12.875V13.6259C6.55416 13.6805 6.54376 13.7345 6.52316 13.785C6.50256 13.8355 6.47219 13.8814 6.43379 13.9201C6.35512 13.9969 6.24956 14.04 6.13964 14.0401H5.39256C5.33832 14.0401 5.28468 14.0294 5.23464 14.0085C5.1846 13.9877 5.1392 13.9571 5.10104 13.9186C5.06288 13.8801 5.03272 13.8344 5.01236 13.7842C4.99196 13.7339 4.98172 13.6801 4.98224 13.6259V12.875C4.98224 12.7662 5.02548 12.6618 5.1024 12.5848C5.17936 12.5079 5.28372 12.4647 5.39256 12.4647H6.13964ZM13.6259 14.942C13.6805 14.9415 13.7346 14.9519 13.7851 14.9725C13.8355 14.9931 13.8814 15.0236 13.92 15.0622C13.9585 15.1008 13.989 15.1467 14.0097 15.1971C14.0303 15.2476 14.0406 15.3017 14.0401 15.3562V16.1072C14.0401 16.1614 14.0294 16.2151 14.0085 16.2651C13.9877 16.3151 13.9571 16.3605 13.9186 16.3987C13.8801 16.4369 13.8344 16.467 13.7842 16.4874C13.7339 16.5078 13.6801 16.518 13.6259 16.5175H12.875C12.7662 16.5175 12.6618 16.4743 12.5849 16.3973C12.5079 16.3204 12.4647 16.216 12.4647 16.1072V15.3562C12.4642 15.302 12.4744 15.2483 12.4948 15.198C12.5152 15.1478 12.5453 15.1021 12.5835 15.0636C12.6216 15.0251 12.667 14.9945 12.7171 14.9737C12.7671 14.9528 12.8208 14.942 12.875 14.942H13.6259ZM1.16165 14.942C1.21586 14.942 1.26953 14.9528 1.31957 14.9737C1.3696 14.9945 1.41501 15.0251 1.45316 15.0636C1.49131 15.1021 1.52146 15.1478 1.54185 15.198C1.56224 15.2483 1.57247 15.302 1.57196 15.3562V16.1072C1.57196 16.216 1.52874 16.3204 1.45179 16.3973C1.37484 16.4743 1.27047 16.5175 1.16165 16.5175H0.414568C0.304617 16.5173 0.199058 16.4743 0.120377 16.3975C0.0438068 16.3202 0.000704876 16.2159 0.000379764 16.1072V15.3562C3.40276e-05 15.3017 0.0104543 15.2477 0.0310465 15.1972C0.0516388 15.1467 0.0819963 15.1007 0.120377 15.062C0.199058 14.9852 0.304617 14.9422 0.414568 14.942H1.16165ZM23.5858 14.942C23.6403 14.9415 23.6944 14.9519 23.7449 14.9725C23.7954 14.9931 23.8412 15.0236 23.8798 15.0622C23.9184 15.1008 23.9489 15.1467 23.9695 15.1971C23.9901 15.2476 24.0005 15.3017 24 15.3562V16.1072C24 16.216 23.9567 16.3204 23.8798 16.3973C23.8028 16.4743 23.6985 16.5175 23.5897 16.5175H22.8387C22.7287 16.5173 22.6232 16.4743 22.5445 16.3975C22.4679 16.3202 22.4248 16.2159 22.4245 16.1072V15.3562C22.4241 15.3017 22.4346 15.2477 22.4552 15.1972C22.4758 15.1467 22.5061 15.1007 22.5445 15.062C22.6232 14.9852 22.7287 14.9422 22.8387 14.942H23.5858ZM11.1215 14.942C11.2303 14.9424 11.3346 14.9855 11.4118 15.062C11.4522 15.0995 11.4841 15.1451 11.5055 15.1958C11.5268 15.2465 11.5371 15.3012 11.5357 15.3562V16.1072C11.5366 16.1615 11.526 16.2155 11.5047 16.2655C11.4833 16.3156 11.4517 16.3605 11.4118 16.3975C11.3346 16.4741 11.2303 16.5172 11.1215 16.5175H10.3744C10.2644 16.5173 10.1589 16.4743 10.0802 16.3975C10.0036 16.3202 9.96055 16.2159 9.96019 16.1072V15.3562C9.95987 15.3017 9.97027 15.2477 9.99087 15.1972C10.0115 15.1467 10.0418 15.1007 10.0802 15.062C10.1589 14.9852 10.2644 14.9422 10.3744 14.942H11.1215ZM21.1084 14.942C21.1626 14.942 21.2163 14.9528 21.2663 14.9737C21.3163 14.9945 21.3617 15.0251 21.3999 15.0636C21.4381 15.1021 21.4682 15.1478 21.4886 15.198C21.509 15.2483 21.5192 15.302 21.5187 15.3562V16.1072C21.5187 16.216 21.4755 16.3204 21.3985 16.3973C21.3216 16.4743 21.2172 16.5175 21.1084 16.5175H20.3613C20.2514 16.5173 20.1458 16.4743 20.0671 16.3975C19.9905 16.3202 19.9475 16.2159 19.9471 16.1072V15.3562C19.9468 15.3017 19.9572 15.2477 19.9778 15.1972C19.9984 15.1467 20.0287 15.1007 20.0671 15.062C20.1458 14.9852 20.2514 14.9422 20.3613 14.942H21.1084ZM3.63903 14.942C3.69323 14.942 3.74691 14.9528 3.79694 14.9737C3.84698 14.9945 3.89238 15.0251 3.93053 15.0636C3.96868 15.1021 3.99884 15.1478 4.01924 15.198C4.03964 15.2483 4.04984 15.302 4.04936 15.3562V16.1072C4.04936 16.216 4.00612 16.3204 3.92917 16.3973C3.85222 16.4743 3.74785 16.5175 3.63903 16.5175H2.89194C2.78199 16.5173 2.67643 16.4743 2.59775 16.3975C2.52118 16.3202 2.47808 16.2159 2.47775 16.1072V15.3562C2.47741 15.3017 2.48783 15.2477 2.50842 15.1972C2.52901 15.1467 2.55937 15.1007 2.59775 15.062C2.67643 14.9852 2.78199 14.9422 2.89194 14.942H3.63903ZM18.6039 14.942C18.7135 14.9431 18.8182 14.987 18.8957 15.0645C18.9731 15.1419 19.0171 15.2467 19.0181 15.3562V16.1072C19.019 16.1615 19.0085 16.2155 18.9871 16.2655C18.9658 16.3156 18.9341 16.3605 18.8942 16.3975C18.8569 16.4367 18.8118 16.4676 18.7618 16.4883C18.7118 16.5089 18.658 16.5189 18.6039 16.5175H17.8569C17.7481 16.5172 17.6438 16.4741 17.5665 16.3975C17.5266 16.3605 17.495 16.3156 17.4737 16.2655C17.4523 16.2155 17.4417 16.1615 17.4427 16.1072V15.3562C17.4412 15.3012 17.4515 15.2465 17.4729 15.1958C17.4942 15.1451 17.5261 15.0995 17.5665 15.062C17.6438 14.9855 17.7481 14.9424 17.8569 14.942H18.6039ZM6.13964 14.942C6.24956 14.9422 6.35512 14.9852 6.43379 15.062C6.47219 15.1007 6.50256 15.1467 6.52316 15.1972C6.54376 15.2477 6.55416 15.3017 6.5538 15.3562V16.1072C6.55348 16.2159 6.51039 16.3202 6.43379 16.3975C6.35512 16.4743 6.24956 16.5173 6.13964 16.5175H5.39256C5.28372 16.5175 5.17936 16.4743 5.1024 16.3973C5.02548 16.3204 4.98224 16.216 4.98224 16.1072V15.3562C4.98172 15.302 4.99196 15.2483 5.01236 15.198C5.03272 15.1478 5.06288 15.1021 5.10104 15.0636C5.1392 15.0251 5.1846 14.9945 5.23464 14.9737C5.28468 14.9528 5.33832 14.942 5.39256 14.942H6.13964ZM18.6039 17.4427C18.6583 17.4417 18.7123 17.4523 18.7623 17.4737C18.8123 17.495 18.8573 17.5266 18.8942 17.5665C18.9341 17.6035 18.9658 17.6485 18.9871 17.6985C19.0085 17.7485 19.019 17.8025 19.0181 17.8569V18.6078C19.0161 18.717 18.9719 18.8212 18.8946 18.8985C18.8173 18.9757 18.7131 19.02 18.6039 19.022H17.8569C17.8025 19.0229 17.7485 19.0123 17.6985 18.991C17.6485 18.9697 17.6035 18.938 17.5665 18.8981C17.5266 18.8611 17.495 18.8162 17.4737 18.7662C17.4523 18.7161 17.4417 18.6622 17.4427 18.6078V17.8569C17.4446 17.7476 17.4889 17.6434 17.5661 17.5662C17.6434 17.4889 17.7476 17.4446 17.8569 17.4427H18.6039ZM6.13964 17.4427C6.24916 17.4437 6.35392 17.4876 6.4314 17.5651C6.50884 17.6425 6.5528 17.7473 6.5538 17.8569V18.6078C6.5528 18.7173 6.50884 18.8221 6.4314 18.8995C6.35392 18.977 6.24916 19.021 6.13964 19.022H5.39256C5.33816 19.0229 5.2842 19.0123 5.2342 18.991C5.18416 18.9697 5.1392 18.938 5.10224 18.8981C5.06304 18.8608 5.03212 18.8157 5.01144 18.7657C4.9908 18.7157 4.98084 18.6619 4.98224 18.6078V17.8569C4.98256 17.7481 5.02564 17.6438 5.10224 17.5665C5.1392 17.5266 5.18416 17.495 5.2342 17.4737C5.2842 17.4523 5.33816 17.4417 5.39256 17.4427H6.13964ZM13.6221 17.4427C13.6771 17.4412 13.7318 17.4515 13.7826 17.4729C13.8333 17.4942 13.8789 17.5261 13.9163 17.5665C13.9928 17.6438 14.0359 17.7481 14.0363 17.8569V18.6078C14.0353 18.7173 13.9913 18.8221 13.9138 18.8995C13.8364 18.977 13.7316 19.021 13.6221 19.022H12.875C12.8206 19.0229 12.7667 19.0123 12.7166 18.991C12.6666 18.9697 12.6217 18.938 12.5847 18.8981C12.5455 18.8608 12.5146 18.8157 12.4939 18.7657C12.4732 18.7157 12.4633 18.6619 12.4647 18.6078V17.8569C12.465 17.7481 12.5081 17.6438 12.5847 17.5665C12.6217 17.5266 12.6666 17.495 12.7166 17.4737C12.7667 17.4523 12.8206 17.4417 12.875 17.4427H13.6221ZM11.1215 17.4427C11.2307 17.4446 11.3349 17.4889 11.4122 17.5662C11.4894 17.6434 11.5337 17.7476 11.5357 17.8569V18.6078C11.5366 18.6622 11.526 18.7161 11.5047 18.7662C11.4833 18.8162 11.4517 18.8611 11.4118 18.8981C11.3748 18.938 11.3299 18.9697 11.2798 18.991C11.2298 19.0123 11.1759 19.0229 11.1215 19.022H10.3744C10.2648 19.021 10.1601 18.977 10.0826 18.8995C10.0052 18.8221 9.96123 18.7173 9.96019 18.6078V17.8569C9.96123 17.7473 10.0052 17.6425 10.0826 17.5651C10.1601 17.4876 10.2648 17.4437 10.3744 17.4427H11.1215ZM21.1084 17.4427C21.1628 17.4417 21.2167 17.4523 21.2667 17.4737C21.3168 17.495 21.3617 17.5266 21.3987 17.5665C21.4753 17.6438 21.5184 17.7481 21.5187 17.8569V18.6078C21.5201 18.6619 21.5101 18.7157 21.4895 18.7657C21.4688 18.8157 21.4379 18.8608 21.3987 18.8981C21.3617 18.938 21.3168 18.9697 21.2667 18.991C21.2167 19.0123 21.1628 19.0229 21.1084 19.022H20.3613C20.2518 19.021 20.147 18.977 20.0695 18.8995C19.9921 18.8221 19.9481 18.7173 19.9471 18.6078V17.8569C19.9481 17.7473 19.9921 17.6425 20.0695 17.5651C20.147 17.4876 20.2518 17.4437 20.3613 17.4427H21.1084ZM8.64411 17.4427C8.75295 17.4447 8.85675 17.4891 8.93339 17.5664C9.00999 17.6438 9.05343 17.748 9.05443 17.8569V18.6078C9.05583 18.6619 9.04587 18.7157 9.02519 18.7657C9.00451 18.8157 8.97359 18.8608 8.93439 18.8981C8.89743 18.938 8.85247 18.9697 8.80247 18.991C8.75243 19.0123 8.69847 19.0229 8.64411 19.022H7.89703C7.78747 19.021 7.68271 18.977 7.60527 18.8995C7.52779 18.8221 7.48383 18.7173 7.48283 18.6078V17.8569C7.48383 17.7473 7.52779 17.6425 7.60527 17.5651C7.68271 17.4876 7.78747 17.4437 7.89703 17.4427H8.64411ZM16.1033 17.4427C16.1577 17.4417 16.2117 17.4523 16.2617 17.4737C16.3117 17.495 16.3567 17.5266 16.3936 17.5665C16.4702 17.6438 16.5133 17.7481 16.5136 17.8569V18.6078C16.515 18.6619 16.5051 18.7157 16.4844 18.7657C16.4637 18.8157 16.4328 18.8608 16.3936 18.8981C16.3567 18.938 16.3117 18.9697 16.2617 18.991C16.2117 19.0123 16.1577 19.0229 16.1033 19.022H15.3562C15.2467 19.021 15.1419 18.977 15.0645 18.8995C14.987 18.8221 14.9431 18.7173 14.9421 18.6078V17.8569C14.9424 17.7481 14.9855 17.6438 15.0621 17.5665C15.0995 17.5261 15.1451 17.4942 15.1958 17.4729C15.2465 17.4515 15.3012 17.4412 15.3562 17.4427H16.1033ZM3.63903 17.4427C3.6934 17.4417 3.74737 17.4523 3.79739 17.4737C3.84741 17.495 3.89237 17.5266 3.92934 17.5665C4.00592 17.6438 4.049 17.7481 4.04936 17.8569V18.6078C4.05076 18.6619 4.0408 18.7157 4.02012 18.7657C3.99944 18.8157 3.96853 18.8608 3.92934 18.8981C3.89237 18.938 3.84741 18.9697 3.79739 18.991C3.74737 19.0123 3.6934 19.0229 3.63903 19.022H2.89194C2.78241 19.021 2.67764 18.977 2.60019 18.8995C2.52273 18.8221 2.47876 18.7173 2.47775 18.6078V17.8569C2.47876 17.7473 2.52273 17.6425 2.60019 17.5651C2.67764 17.4876 2.78241 17.4437 2.89194 17.4427H3.63903ZM3.63903 19.9471C3.7478 19.9475 3.85208 19.9906 3.92934 20.0671C4.00616 20.1458 4.0492 20.2513 4.04936 20.3613V21.1123C4.04936 21.2204 4.00664 21.3242 3.93053 21.4011C3.85442 21.4779 3.75105 21.5215 3.6429 21.5226H2.89194C2.78199 21.5224 2.67643 21.4794 2.59775 21.4026C2.52118 21.3253 2.47808 21.221 2.47775 21.1123V20.3613C2.47724 20.3068 2.4876 20.2527 2.50823 20.2022C2.52886 20.1517 2.55935 20.1058 2.59792 20.0673C2.63648 20.0287 2.68235 19.9982 2.73283 19.9776C2.78332 19.9569 2.83741 19.9466 2.89194 19.9471H3.63903ZM18.6039 19.9471C18.7135 19.9481 18.8182 19.9921 18.8957 20.0695C18.9731 20.147 19.0171 20.2518 19.0181 20.3613V21.1123C19.019 21.1666 19.0085 21.2206 18.9871 21.2706C18.9658 21.3207 18.9341 21.3656 18.8942 21.4026C18.8569 21.4417 18.8118 21.4727 18.7618 21.4933C18.7118 21.514 18.658 21.524 18.6039 21.5226H17.8569C17.7481 21.5223 17.6438 21.4791 17.5665 21.4026C17.5266 21.3656 17.495 21.3207 17.4737 21.2706C17.4523 21.2206 17.4417 21.1666 17.4427 21.1123V20.3613C17.4437 20.2518 17.4876 20.147 17.5651 20.0695C17.6425 19.9921 17.7473 19.9481 17.8569 19.9471H18.6039ZM6.13964 19.9471C6.19416 19.9466 6.24828 19.9569 6.29876 19.9776C6.34924 19.9982 6.39508 20.0287 6.43364 20.0673C6.4722 20.1058 6.50272 20.1517 6.52332 20.2022C6.54396 20.2527 6.55432 20.3068 6.5538 20.3613V21.1123C6.55348 21.221 6.51039 21.3253 6.43379 21.4026C6.35512 21.4794 6.24956 21.5224 6.13964 21.5226H5.39256C5.28372 21.5226 5.17936 21.4793 5.1024 21.4024C5.02548 21.3255 4.98224 21.2211 4.98224 21.1123V20.3613C4.98236 20.2513 5.02544 20.1458 5.10224 20.0671C5.17948 19.9906 5.28376 19.9475 5.39256 19.9471H6.13964ZM13.6221 19.9471C13.6766 19.9468 13.7307 19.9572 13.7811 19.9778C13.8316 19.9984 13.8775 20.0287 13.9163 20.0671C13.9931 20.1458 14.0361 20.2513 14.0363 20.3613V21.1123C14.0363 21.2211 13.993 21.3255 13.9161 21.4024C13.8392 21.4793 13.7348 21.5226 13.6259 21.5226H12.875C12.7662 21.5226 12.6618 21.4793 12.5849 21.4024C12.5079 21.3255 12.4647 21.2211 12.4647 21.1123V20.3613C12.4648 20.2513 12.5079 20.1458 12.5847 20.0671C12.662 19.9906 12.7662 19.9475 12.875 19.9471H13.6221ZM11.1215 19.9471C11.231 19.9481 11.3358 19.9921 11.4132 20.0695C11.4907 20.147 11.5346 20.2518 11.5357 20.3613V21.1123C11.5366 21.1666 11.526 21.2206 11.5047 21.2706C11.4833 21.3207 11.4517 21.3656 11.4118 21.4026C11.3346 21.4791 11.2303 21.5223 11.1215 21.5226H10.3744C10.2644 21.5224 10.1589 21.4794 10.0802 21.4026C10.0036 21.3253 9.96055 21.221 9.96019 21.1123V20.3613C9.95971 20.3068 9.97003 20.2527 9.99067 20.2022C10.0113 20.1517 10.0418 20.1058 10.0804 20.0673C10.1189 20.0287 10.1648 19.9982 10.2153 19.9776C10.2658 19.9569 10.3199 19.9466 10.3744 19.9471H11.1215ZM21.1084 19.9471C21.2172 19.9475 21.3215 19.9906 21.3987 20.0671C21.4755 20.1458 21.5186 20.2513 21.5187 20.3613V21.1123C21.5187 21.2211 21.4755 21.3255 21.3985 21.4024C21.3216 21.4793 21.2172 21.5226 21.1084 21.5226H20.3613C20.2514 21.5224 20.1458 21.4794 20.0671 21.4026C19.9905 21.3253 19.9475 21.221 19.9471 21.1123V20.3613C19.9466 20.3068 19.957 20.2527 19.9776 20.2022C19.9982 20.1517 20.0287 20.1058 20.0673 20.0673C20.1059 20.0287 20.1517 19.9982 20.2022 19.9776C20.2527 19.9569 20.3068 19.9466 20.3613 19.9471H21.1084ZM8.64411 19.9471C8.75287 19.9475 8.85715 19.9906 8.93439 20.0671C8.97407 20.1049 9.00531 20.1506 9.02599 20.2013C9.04667 20.2521 9.05635 20.3066 9.05443 20.3613V21.1123C9.05583 21.1663 9.04587 21.2201 9.02519 21.2701C9.00451 21.3201 8.97359 21.3653 8.93439 21.4026C8.85715 21.4791 8.75287 21.5223 8.64411 21.5226H7.89703C7.78707 21.5224 7.68151 21.4794 7.60283 21.4026C7.52627 21.3253 7.48315 21.221 7.48283 21.1123V20.3613C7.48231 20.3068 7.49267 20.2527 7.51331 20.2022C7.53395 20.1517 7.56443 20.1058 7.60299 20.0673C7.64155 20.0287 7.68743 19.9982 7.73791 19.9776C7.78839 19.9569 7.84247 19.9466 7.89703 19.9471H8.64411ZM16.1033 19.9471C16.2121 19.9475 16.3164 19.9906 16.3936 20.0671C16.4705 20.1458 16.5135 20.2513 16.5136 20.3613V21.1123C16.5136 21.2211 16.4704 21.3255 16.3935 21.4024C16.3165 21.4793 16.2121 21.5226 16.1033 21.5226H15.3562C15.302 21.5231 15.2483 21.5129 15.198 21.4925C15.1478 21.4721 15.1021 21.4419 15.0636 21.4038C15.0251 21.3656 14.9945 21.3202 14.9737 21.2702C14.9528 21.2202 14.9421 21.1665 14.9421 21.1123V20.3613C14.9422 20.2513 14.9853 20.1458 15.0621 20.0671C15.1008 20.0287 15.1467 19.9984 15.1972 19.9778C15.2477 19.9572 15.3017 19.9468 15.3562 19.9471H16.1033ZM13.6221 22.4245C13.6766 22.4241 13.7307 22.4346 13.7811 22.4552C13.8316 22.4758 13.8775 22.5061 13.9163 22.5445C13.9931 22.6232 14.0361 22.7287 14.0363 22.8387V23.5897C14.0363 23.6985 13.993 23.8028 13.9161 23.8798C13.8392 23.9567 13.7348 24 13.6259 24H12.875C12.7662 24 12.6618 23.9567 12.5849 23.8798C12.5079 23.8028 12.4647 23.6985 12.4647 23.5897V22.8387C12.4648 22.7287 12.5079 22.6232 12.5847 22.5445C12.662 22.4679 12.7662 22.4248 12.875 22.4245H13.6221ZM11.1215 22.4245C11.2317 22.4245 11.3374 22.468 11.4158 22.5456C11.494 22.6231 11.5385 22.7285 11.5396 22.8387V23.5897C11.5404 23.644 11.5299 23.698 11.5086 23.748C11.4872 23.798 11.4556 23.843 11.4157 23.88C11.3384 23.9565 11.2341 23.9996 11.1254 24H10.3744C10.2644 23.9998 10.1589 23.9568 10.0802 23.88C10.0036 23.8027 9.96055 23.6984 9.96019 23.5897V22.8387C9.95971 22.7841 9.97003 22.7301 9.99067 22.6796C10.0113 22.6291 10.0418 22.5832 10.0804 22.5447C10.1189 22.5061 10.1648 22.4756 10.2153 22.455C10.2658 22.4343 10.3199 22.424 10.3744 22.4245H11.1215ZM8.64411 22.4245C8.75287 22.4248 8.85715 22.4679 8.93439 22.5445C8.97407 22.5823 9.00531 22.628 9.02599 22.6787C9.04667 22.7294 9.05635 22.7839 9.05443 22.8387V23.5897C9.05583 23.6437 9.04587 23.6975 9.02519 23.7475C9.00451 23.7975 8.97359 23.8427 8.93439 23.88C8.85715 23.9565 8.75287 23.9996 8.64411 24H7.89703C7.78707 23.9998 7.68151 23.9568 7.60283 23.88C7.52627 23.8027 7.48315 23.6984 7.48283 23.5897V22.8387C7.48231 22.7841 7.49267 22.7301 7.51331 22.6796C7.53395 22.6291 7.56443 22.5832 7.60299 22.5447C7.64155 22.5061 7.68743 22.4756 7.73791 22.455C7.78839 22.4343 7.84247 22.424 7.89703 22.4245H8.64411ZM16.1033 22.4245C16.2121 22.4248 16.3164 22.4679 16.3936 22.5445C16.4705 22.6232 16.5135 22.7287 16.5136 22.8387V23.5897C16.5136 23.6978 16.4709 23.8016 16.3948 23.8784C16.3187 23.9553 16.2153 23.9989 16.1072 24H15.3562C15.302 24.0005 15.2483 23.9902 15.198 23.9698C15.1478 23.9495 15.1021 23.9193 15.0636 23.8812C15.0251 23.843 14.9945 23.7976 14.9737 23.7476C14.9528 23.6975 14.9421 23.6439 14.9421 23.5897V22.8387C14.9422 22.7287 14.9853 22.6232 15.0621 22.5445C15.1008 22.5061 15.1467 22.4758 15.1972 22.4552C15.2477 22.4346 15.3017 22.4241 15.3562 22.4245H16.1033Z" fill="#323E45" style="fill:#323E45;fill:color(display-p3 0.1961 0.2431 0.2706);fill-opacity:1;"/>
</svg>
