<svg width="24" height="25" viewBox="0 0 24 25" fill="none" xmlns="http://www.w3.org/2000/svg">
<path fill-rule="evenodd" clip-rule="evenodd" d="M11.7603 0.000614242C13.3227 -0.0149115 14.8049 0.263875 16.2027 0.838505C17.005 1.16863 17.7476 1.58096 18.4293 2.0719L18.4342 2.07386L18.4371 2.07581C19.5383 2.46088 20.4882 3.00575 21.275 3.71546C23.0904 5.35419 23.9721 7.80164 24.0035 10.9606C24.0347 14.1075 23.2125 16.9923 21.5387 19.6022L21.192 20.1207C18.9779 23.3159 16.0267 24.9621 12.3717 24.9987C9.43897 25.0278 6.90583 24.2067 4.80233 22.5201L4.80331 22.5192C4.79921 22.5159 4.79448 22.5136 4.79159 22.5114C4.78828 22.5086 4.78455 22.5059 4.7828 22.5045C1.9146 20.5445 0.0382218 17.2596 0.00057177 13.486C-0.0148703 11.934 0.282959 10.4539 0.835533 9.10706C0.968499 8.49953 1.14314 7.91687 1.35897 7.36097C1.94008 5.86229 2.75247 4.55573 3.79842 3.44593L4.19491 3.04554C5.13885 2.13936 6.21643 1.42652 7.4244 0.908817C8.80286 0.318497 10.2499 0.0154495 11.7603 0.000614242ZM18.818 6.92347C19.0411 7.2062 19.2279 7.52819 19.3805 7.88831C19.3877 7.90546 19.3948 7.92275 19.4019 7.94007C19.4276 8.00252 19.4525 8.06586 19.4762 8.1305C19.4805 8.14246 19.4845 8.15459 19.4889 8.16663C19.5783 8.41668 19.6536 8.68232 19.7144 8.9635C19.7308 9.03897 19.7469 9.11536 19.7613 9.193C19.7707 9.24394 19.7791 9.29543 19.7877 9.34729C19.7943 9.38709 19.8011 9.42707 19.8072 9.46741C19.8178 9.53788 19.8274 9.60918 19.8365 9.68128C19.8412 9.71847 19.8449 9.75596 19.8492 9.79358C19.8566 9.85874 19.8644 9.92442 19.8707 9.99085C19.8747 10.0335 19.8779 10.0765 19.8814 10.1198C19.8853 10.167 19.8899 10.2145 19.8932 10.2623C19.8996 10.3552 19.9045 10.4493 19.9088 10.5446C19.9098 10.5683 19.9108 10.592 19.9117 10.6158C19.9153 10.7082 19.9179 10.8016 19.9195 10.8961C19.9201 10.9298 19.9211 10.9637 19.9215 10.9977C19.9363 12.4912 19.7085 13.8988 19.2389 15.2164V15.2194L19.2369 15.2203C19.21 15.4263 19.1823 15.6303 19.149 15.8307L19.0279 16.4762C18.7582 17.7474 18.3171 18.8974 17.6998 19.9205C17.0946 20.9482 16.2986 21.7595 15.314 22.3434C14.3228 22.9316 13.2108 23.2278 11.9918 23.2399L11.5162 23.2311C10.4234 23.1805 9.44538 22.9136 8.59725 22.4147C7.64657 21.8552 6.85988 21.075 6.2369 20.0856C5.76629 19.3481 5.38891 18.5343 5.10311 17.6471L5.00936 17.3385C4.27093 16.2191 3.83309 14.8828 3.81893 13.4479C3.80825 12.3908 4.02957 11.3793 4.43221 10.4625L4.43319 10.4567L4.43514 10.4498C4.49448 9.74145 4.58926 9.04811 4.72323 8.37171C4.72696 8.35287 4.73116 8.33384 4.73495 8.31507C4.75996 8.19097 4.78641 8.06827 4.81405 7.9469C4.82744 7.88824 4.84202 7.83012 4.85604 7.7721C4.87885 7.67745 4.90284 7.58378 4.92733 7.49085C4.9375 7.45235 4.94714 7.41382 4.9576 7.37561C4.9919 7.25009 5.02656 7.12584 5.06405 7.00354C4.03776 8.43345 3.30541 9.93887 2.86483 11.5221C2.86121 11.5351 2.85767 11.5481 2.85409 11.5612C2.51549 12.7923 2.35263 14.0707 2.36581 15.3971C2.37364 16.1793 2.47041 16.9115 2.65292 17.5963L2.7369 17.8903C3.16128 18.7796 3.67304 19.5661 4.27108 20.2516L4.5367 20.5426L4.54061 20.5465C5.45843 21.5344 6.55285 22.3029 7.82967 22.8512C8.03549 22.9395 8.2458 23.0199 8.45956 23.0944L8.62264 23.1344C9.09241 23.2484 9.57542 23.331 10.0699 23.3776C10.1293 23.3831 10.1889 23.3867 10.2486 23.3912C10.4337 23.4054 10.6202 23.4163 10.8082 23.4205C10.9206 23.423 11.0337 23.4236 11.1471 23.4225C16.7483 23.3669 21.1785 18.8725 21.1226 13.275C21.0983 10.8528 20.238 8.64538 18.818 6.92347ZM17.1627 18.7926C17.108 18.855 17.0533 18.9163 16.9976 18.9762C16.966 19.0103 16.9339 19.0435 16.9019 19.0768C16.8424 19.1388 16.7829 19.2001 16.7223 19.2594C16.6904 19.2906 16.6578 19.3208 16.6256 19.3512C16.5599 19.4132 16.4942 19.474 16.4273 19.5328C16.4044 19.553 16.3811 19.5726 16.358 19.5924C16.2468 19.6877 16.1338 19.7783 16.0191 19.8649C15.9647 19.906 15.9103 19.9468 15.8551 19.986C15.8067 20.0202 15.7575 20.0528 15.7086 20.0856C15.6475 20.1265 15.586 20.1662 15.524 20.2047C15.4707 20.2377 15.4168 20.2692 15.3629 20.3004C15.3146 20.3284 15.2662 20.3559 15.2174 20.3825C15.1561 20.4158 15.095 20.449 15.0328 20.4801C14.9786 20.5073 14.9236 20.5328 14.8687 20.5582C14.8113 20.5849 14.754 20.6116 14.6959 20.6364C14.6236 20.6671 14.5505 20.6954 14.4771 20.7233C14.4262 20.7426 14.3753 20.762 14.3238 20.7799C14.2184 20.8167 14.1121 20.8506 14.0045 20.8815C13.966 20.8925 13.927 20.9015 13.8883 20.9117C13.8068 20.9333 13.7249 20.9541 13.6422 20.9723C13.5955 20.9826 13.5487 20.9924 13.5015 21.0016C13.4179 21.0179 13.3335 21.0316 13.2486 21.0446C13.2041 21.0513 13.1597 21.0583 13.1148 21.0641C13.0154 21.077 12.9152 21.088 12.814 21.0963C12.7906 21.0982 12.7672 21.1005 12.7437 21.1022C12.6085 21.1118 12.4719 21.1194 12.3336 21.1207L12.0035 21.1188C11.729 21.1128 11.4609 21.0933 11.1988 21.0651C11.0497 21.049 10.9025 21.0308 10.7574 21.0075C10.3724 20.9455 10.002 20.8574 9.64608 20.7438C9.6292 20.7384 9.61211 20.7337 9.5953 20.7282C9.444 20.6786 9.29587 20.6232 9.14999 20.5641C9.11572 20.5502 9.08142 20.5365 9.04745 20.5221C8.98468 20.4955 8.92266 20.4675 8.86092 20.4391C8.83723 20.4282 8.81318 20.418 8.78963 20.4069C8.44704 20.2442 8.121 20.053 7.81112 19.8336C7.79148 19.8237 7.77206 19.8134 7.75252 19.8033C7.7037 19.7781 7.65519 19.7525 7.60702 19.7262C7.58411 19.7137 7.56142 19.7008 7.53866 19.6881C7.41168 19.6171 7.2868 19.5428 7.16463 19.4645C7.1527 19.4568 7.14039 19.4497 7.1285 19.442C7.06767 19.4025 7.0074 19.3622 6.94784 19.3209C6.94479 19.3188 6.94209 19.3162 6.93905 19.3141C6.9857 19.3926 7.03187 19.4711 7.08065 19.5475L7.0826 19.5504C7.18271 19.7095 7.28823 19.861 7.39706 20.0065C7.76206 20.4942 8.17601 20.9053 8.63924 21.2438C8.69558 21.285 8.75137 21.3268 8.80917 21.3658L9.10506 21.5524L9.40682 21.7145C9.43525 21.7284 9.46491 21.7402 9.49374 21.7535C10.199 22.0808 11.0243 22.2492 11.982 22.2399C13.0389 22.2293 13.9756 21.9753 14.8033 21.484L15.108 21.2897C15.7116 20.8775 16.2253 20.3518 16.651 19.7096C16.7155 19.6122 16.779 19.5126 16.8394 19.4098L16.8424 19.4049C16.8471 19.3971 16.8513 19.3884 16.856 19.3805C16.977 19.1785 17.0904 18.9705 17.1969 18.7565C17.186 18.769 17.1736 18.7802 17.1627 18.7926ZM10.984 7.09046C10.8356 7.09179 10.6876 7.09977 10.5406 7.11194C9.78734 7.59319 9.07948 8.28053 8.4244 9.193C7.08267 11.0589 6.42634 13.1101 6.44881 15.359C6.46227 16.7094 6.9553 17.8004 7.941 18.6647L8.1451 18.8346L8.14706 18.8366C8.20649 18.884 8.2693 18.9303 8.33358 18.9772C9.17275 19.3868 10.1155 19.6142 11.109 19.6041C14.5371 19.5698 17.3383 16.7363 17.3043 13.3141C17.2701 9.88596 14.4061 7.0569 10.984 7.09046ZM13.0885 6.25745C13.0282 6.26186 12.9685 6.26972 12.9088 6.276C12.8526 6.28193 12.7965 6.28698 12.7408 6.29456C15.8887 7.06768 18.2708 9.93604 18.3043 13.3043C18.3144 14.3235 18.1072 15.2966 17.7291 16.1813C17.9319 15.7913 18.1095 15.3918 18.2603 14.9821C18.3643 14.1449 18.4134 13.2461 18.4039 12.2838C18.389 10.7682 18.2265 9.38691 17.9215 8.13831L17.7662 7.55921C17.7241 7.41582 17.6772 7.27582 17.6314 7.13831C16.9384 6.59695 15.712 6.26494 13.8414 6.2428C13.7173 6.24135 13.5903 6.24151 13.4605 6.2428C13.3353 6.24408 13.2111 6.24845 13.0885 6.25745ZM15.484 2.45765C15.8201 2.67909 16.1332 2.93032 16.4254 3.2096C16.4347 3.21851 16.4444 3.227 16.4537 3.23597C16.7445 3.51716 17.0129 3.82671 17.2594 4.16468L17.2672 4.16956L17.2701 4.17347C17.2738 4.17595 17.2772 4.17879 17.2808 4.18128C20.1798 6.15446 22.0858 9.47358 22.1236 13.2662C22.1305 13.9545 22.0721 14.627 21.9605 15.2799C22.0763 14.738 22.159 14.1756 22.2057 13.5914C22.2402 13.1547 22.2572 12.7055 22.2525 12.2448C22.2377 10.7335 22.0137 9.34872 21.5885 8.08948C21.5277 7.9097 21.4631 7.73198 21.3941 7.55725C21.2552 7.20569 21.1033 6.86793 20.939 6.54358C20.8569 6.38136 20.7717 6.22249 20.6832 6.06702C20.2411 5.29007 19.7204 4.59684 19.1217 3.98597L19.1197 3.98401C18.7751 3.62872 18.4062 3.30522 18.0152 3.01038C17.9985 2.99779 17.9822 2.98477 17.9654 2.97229C17.7112 2.88796 17.4464 2.81371 17.1715 2.74671C17.0773 2.72373 16.982 2.70122 16.8853 2.6803C16.8179 2.66572 16.7499 2.65189 16.6812 2.63831C16.5525 2.61281 16.4216 2.58897 16.2887 2.56702C16.2176 2.5553 16.1461 2.54355 16.0738 2.53284C15.9913 2.5206 15.908 2.5086 15.8238 2.49768L15.484 2.45765ZM8.19588 7.79944C7.04108 8.40893 6.09553 9.37375 5.50155 10.5446C5.47304 10.6007 5.44345 10.6564 5.41659 10.7135C5.41219 10.7723 5.40876 10.8312 5.40487 10.8903C5.37209 11.3888 5.3567 11.896 5.3619 12.4127C5.36904 13.1281 5.40738 13.8082 5.47518 14.4518C5.61756 12.3405 6.33191 10.3901 7.6119 8.60999L7.8951 8.23206C8.02679 8.06369 8.16148 7.90242 8.29842 7.74768C8.26421 7.76494 8.22974 7.78157 8.19588 7.79944ZM5.14706 5.17444C4.93612 5.32765 4.73073 5.48798 4.5328 5.65686C4.36024 5.80409 4.1939 5.95832 4.03182 6.11683C3.93488 6.21163 3.8397 6.30819 3.74667 6.40686C3.60243 6.55983 3.46219 6.71667 3.32772 6.87854C3.22899 6.99741 3.13387 7.11935 3.04061 7.2428C2.91121 7.41407 2.787 7.5895 2.66854 7.76917C2.65572 7.78862 2.64314 7.80822 2.63045 7.82776C2.44842 8.10809 2.27965 8.39797 2.12557 8.6969C2.05678 8.83035 1.9903 8.96529 1.92733 9.10218C1.88199 9.20077 1.83872 9.3007 1.79647 9.401C1.59781 10.34 1.50248 11.3565 1.51327 12.4518C1.51511 12.6353 1.52128 12.818 1.52987 12.9987C1.53263 12.9802 1.53583 12.9615 1.53866 12.943C1.54486 12.9025 1.55263 12.8623 1.55917 12.8219C1.58343 12.6719 1.60942 12.5224 1.63827 12.3737C1.64662 12.3306 1.6559 12.2877 1.66463 12.2448C1.69406 12.1 1.72459 11.9557 1.75838 11.8121C1.76627 11.7786 1.77369 11.745 1.78182 11.7116C1.87059 11.3462 1.97429 10.9851 2.09139 10.6276C2.10613 10.5826 2.12113 10.5377 2.13631 10.4928C2.18999 10.3342 2.24598 10.1762 2.30526 10.0192C2.31053 10.0052 2.31557 9.99114 2.32088 9.97718C2.45561 9.62352 2.60499 9.27408 2.76815 8.92835C2.79174 8.87836 2.81623 8.82876 2.84042 8.77893C2.90187 8.65234 2.96556 8.52652 3.03085 8.401C3.05387 8.35674 3.07668 8.31232 3.10018 8.26819C3.28434 7.92236 3.48248 7.58039 3.69588 7.2428C3.70847 7.22289 3.72128 7.20311 3.73397 7.18323C3.82904 7.03426 3.92713 6.88625 4.02792 6.7389C4.04706 6.7109 4.06618 6.68285 4.08553 6.65491C4.19726 6.49362 4.31167 6.3328 4.43026 6.17347C4.60388 5.93961 4.78109 5.71378 4.96249 5.49671C5.0006 5.45103 5.04025 5.40688 5.0787 5.36194C5.123 5.31023 5.16678 5.25839 5.21151 5.20765C5.26367 5.14843 5.31597 5.08975 5.36874 5.03186C5.38007 5.01943 5.39155 5.00713 5.40292 4.99475C5.31667 5.05336 5.23133 5.11323 5.14706 5.17444ZM21.4264 5.36194C21.6791 5.78535 21.9102 6.22968 22.1168 6.6969C22.1887 6.85874 22.2587 7.02284 22.3248 7.19007L22.4342 7.47815C22.5593 7.8202 22.6689 8.17063 22.7652 8.52796C22.5447 7.42475 22.1726 6.48206 21.6558 5.69104L21.4264 5.36194ZM10.5553 3.28382C10.5051 3.28624 10.4549 3.28653 10.4049 3.28968C10.0974 3.30902 9.79436 3.34431 9.49569 3.39026C9.44944 3.39739 9.40304 3.40303 9.35702 3.41077C9.19042 3.43876 9.02545 3.47152 8.8619 3.50745C8.74755 3.56964 8.63353 3.63346 8.52108 3.70081C8.51366 3.70526 8.50701 3.71099 8.4996 3.71546C8.1664 3.91625 7.84115 4.13901 7.52499 4.38538C7.26091 4.69872 7.01985 5.04248 6.80624 5.42054L6.80721 5.42151C6.34807 6.24616 5.99732 7.20996 5.75741 8.31702C5.74624 8.36857 5.73391 8.42012 5.72323 8.47229C5.72848 8.4665 5.73456 8.46147 5.73983 8.45569C5.76576 8.42728 5.79256 8.39971 5.81893 8.37171C5.89423 8.29174 5.97063 8.21289 6.0494 8.13636C6.07401 8.11245 6.09867 8.08863 6.12362 8.06507C6.21694 7.9769 6.31192 7.89046 6.40975 7.80725C6.44837 7.77442 6.48862 7.74359 6.52792 7.71155C6.60064 7.65225 6.67362 7.59326 6.74862 7.53675C6.96957 7.37031 7.19971 7.21555 7.43905 7.07483C7.45902 7.06309 7.4795 7.05221 7.4996 7.04065C7.56348 7.00392 7.62788 6.96805 7.69295 6.93323C7.71619 6.92079 7.7389 6.90733 7.76229 6.89515C7.92916 6.80821 8.09992 6.72782 8.27401 6.65393C8.30677 6.64003 8.33964 6.62635 8.37264 6.61292C8.43233 6.58863 8.49285 6.56629 8.55331 6.54358C8.58656 6.53109 8.61943 6.5175 8.65292 6.5055C8.83356 6.44073 9.01776 6.38389 9.20467 6.33362C9.22677 6.32768 9.2489 6.32178 9.27108 6.31604C9.36221 6.29249 9.45399 6.27061 9.54647 6.25061C9.55271 6.24926 9.55878 6.24707 9.56503 6.24573C9.66549 6.2243 9.76678 6.20525 9.86874 6.18811C9.88757 6.18495 9.9065 6.18234 9.92538 6.17933C10.0208 6.16408 10.1168 6.15067 10.2135 6.13929C10.7084 5.84773 11.2251 5.62639 11.7642 5.47718C11.7743 5.47438 11.7845 5.47211 11.7945 5.46936C12.0528 5.39926 12.3155 5.34369 12.5836 5.30628C12.6509 5.29682 12.7188 5.29121 12.7867 5.28382C12.8616 5.27573 12.9366 5.26595 13.0123 5.26038C13.1414 5.25078 13.2717 5.24601 13.4029 5.24378C13.4184 5.24352 13.4343 5.24296 13.4498 5.2428C13.6155 5.24115 13.7783 5.24113 13.9381 5.24378C13.9691 5.2443 14 5.24504 14.0308 5.24573C14.174 5.24889 14.3146 5.2546 14.4527 5.26136C14.4677 5.2621 14.4827 5.26253 14.4976 5.26331C14.8178 5.27996 15.1243 5.30645 15.4166 5.34339C15.4261 5.34459 15.4355 5.34607 15.4449 5.34729C15.569 5.36331 15.6903 5.38216 15.8092 5.40198C15.8409 5.40729 15.8725 5.41202 15.9039 5.41761C16.309 5.48953 16.6824 5.58511 17.023 5.70472C17.0278 5.70638 17.0329 5.70792 17.0377 5.7096C16.908 5.45859 16.7702 5.22061 16.6236 4.99671C16.6024 4.96489 16.58 4.93246 16.5582 4.901C16.5469 4.89365 16.5353 4.88683 16.524 4.87952C16.3379 4.75908 16.148 4.64397 15.9537 4.53577C15.8301 4.46694 15.7045 4.40123 15.5777 4.33753C15.3795 4.23792 15.1778 4.14388 14.9723 4.05725C14.5993 3.90015 14.2146 3.76589 13.8199 3.65393C12.9096 3.39565 11.9458 3.26118 10.9469 3.27112C10.8157 3.27246 10.685 3.27756 10.5553 3.28382ZM18.4898 6.55628L18.4918 6.55725L18.4947 6.56604C18.5246 6.59472 18.5557 6.62219 18.5846 6.65198C18.5506 6.61369 18.5175 6.57454 18.483 6.53675C18.4853 6.54323 18.4875 6.54978 18.4898 6.55628ZM11.7701 1.00061C10.3909 1.01416 9.07429 1.28974 7.81795 1.82776C6.5641 2.36513 5.46759 3.13201 4.52596 4.13147C4.28731 4.38469 4.06185 4.64991 3.8492 4.9264C3.85305 4.92309 3.85708 4.91993 3.86092 4.91663C3.97882 4.81544 4.09908 4.71692 4.22127 4.62073C4.24968 4.59838 4.27761 4.57542 4.30624 4.55335C4.42267 4.46353 4.54159 4.37681 4.6617 4.29163C4.6847 4.27533 4.70694 4.25795 4.73006 4.24183L4.82186 4.17933C4.93407 4.10272 5.04847 4.02917 5.16366 3.95667C5.18903 3.9407 5.21431 3.92458 5.23983 3.90882C5.37436 3.82568 5.51064 3.74503 5.64901 3.66761C5.67748 3.65168 5.70632 3.63641 5.73495 3.62073C5.871 3.54619 6.00848 3.4738 6.14803 3.40491C6.17792 3.39016 6.20783 3.37545 6.23788 3.36097C6.37722 3.29376 6.5181 3.22906 6.66073 3.16761C6.68443 3.1574 6.70823 3.14738 6.73202 3.13733C6.88607 3.07225 7.04213 3.01098 7.19979 2.95276C7.21062 2.94877 7.22117 2.94403 7.23202 2.94007C7.39004 2.88228 7.55006 2.82866 7.71151 2.77796C7.72712 2.77306 7.74274 2.76814 7.75838 2.76331L7.76131 2.76136L7.76717 2.7594C7.92351 2.63457 8.08541 2.51471 8.25448 2.40198C9.23721 1.74615 10.419 1.42346 11.774 1.40979L12.0777 1.4137C12.1612 1.4162 12.2439 1.41952 12.3258 1.42444H12.3375C12.5111 1.40691 12.6861 1.39241 12.8629 1.38245C13.0442 1.37204 13.2276 1.36576 13.4127 1.3639C13.6367 1.36164 13.8574 1.36319 14.0748 1.3678L14.1099 1.36878C14.177 1.37033 14.2437 1.37439 14.3101 1.37659C14.435 1.38072 14.5587 1.38477 14.6812 1.39124C14.7049 1.39249 14.7289 1.39283 14.7525 1.39417C13.8013 1.12287 12.808 0.990285 11.7701 1.00061Z" fill="#323E45" style="fill:#323E45;fill:color(display-p3 0.1961 0.2431 0.2706);fill-opacity:1;"/>
</svg>
