<svg width="31" height="33" viewBox="0 0 31 33" fill="none" xmlns="http://www.w3.org/2000/svg">
<path d="M15.7002 14.6143L26.2178 4.09668L27.2734 5.15332L15.9072 16.5186L27.2051 27.8164L26.1494 28.8721L15.7002 18.4229V33H14.2061V18.2207L3.90234 28.5244L2.84668 27.4678L13.7959 16.5186L2.77832 5.50098L3.83398 4.44531L14.2061 14.8174V0H15.7002V14.6143Z" fill="#323E45" style="fill:#323E45;fill:color(display-p3 0.1961 0.2431 0.2706);fill-opacity:1;"/>
<path d="M26.666 11.9268C27.2823 11.9268 27.8485 12.0394 28.3447 12.2734C28.8416 12.5078 29.2377 12.8487 29.5283 13.2695C29.823 13.6962 29.9797 14.1855 30.0186 14.7266L30.042 15.0479H28.4434L28.4053 14.793C28.3449 14.3926 28.1684 14.074 27.8662 13.8301C27.5442 13.5912 27.1483 13.457 26.666 13.457C26.1549 13.457 25.7848 13.5769 25.5303 13.7646L25.5264 13.7676C25.2856 13.9388 25.167 14.1824 25.167 14.5244C25.167 14.7797 25.2404 14.9404 25.3555 15.0479C25.4673 15.1522 25.6044 15.2397 25.7812 15.3125L25.9727 15.3809L25.9756 15.3818C26.2482 15.4687 26.6435 15.5477 27.1621 15.6299L27.166 15.6309C28.02 15.7766 28.7264 16.0233 29.2695 16.3838C29.8675 16.7807 30.1494 17.4045 30.1494 18.2012C30.1493 18.7286 30.0026 19.2101 29.7207 19.626C29.4377 20.0554 29.0484 20.3744 28.5518 20.5957L28.5508 20.5947C28.0535 20.828 27.501 20.9277 26.9023 20.9277C26.2218 20.9277 25.6055 20.8171 25.0791 20.5557C24.5521 20.2997 24.1255 19.9461 23.8301 19.4648C23.5409 18.9935 23.386 18.4601 23.3604 17.8721L23.3467 17.5586H24.959L24.9766 17.8398C25.0033 18.2665 25.1519 18.6006 25.418 18.8604L25.5391 18.9678L25.542 18.9707C25.8793 19.2472 26.3282 19.3974 26.9141 19.3975C27.4411 19.3975 27.8259 19.2883 28.1162 19.0859C28.3886 18.896 28.5195 18.6469 28.5195 18.2949C28.5195 18.0479 28.4394 17.8675 28.3125 17.7412C28.1688 17.5982 27.9688 17.4886 27.6904 17.4033C27.4021 17.315 27.0166 17.2347 26.4971 17.1406C25.6512 16.9962 24.9436 16.7638 24.4092 16.4023C23.8028 16.014 23.5371 15.3842 23.5371 14.583C23.5372 14.07 23.6705 13.5979 23.9434 13.1904C24.2123 12.789 24.587 12.4718 25.0586 12.25L25.0654 12.2471C25.5327 12.0403 26.0715 11.9268 26.666 11.9268Z" fill="#323E45" style="fill:#323E45;fill:color(display-p3 0.1961 0.2431 0.2706);fill-opacity:1;"/>
<path fill-rule="evenodd" clip-rule="evenodd" d="M3.4834 12.0088C4.06843 12.0088 4.58836 12.1234 5.06055 12.3584L5.06445 12.3604C5.52549 12.5965 5.88814 12.9291 6.14355 13.3574C6.39921 13.7861 6.52929 14.2885 6.5293 14.8428C6.52925 15.4081 6.3995 15.9106 6.14355 16.3398L6.14258 16.3418C5.87632 16.7792 5.51402 17.1119 5.05176 17.3486C4.58523 17.5874 4.06234 17.6875 3.4834 17.6875H1.62988V20.8574H0V12.0088H3.4834ZM1.62988 16.1445H3.38867C3.87789 16.1445 4.22713 16.0198 4.49121 15.7852L4.49219 15.7842C4.73857 15.566 4.87591 15.2635 4.87598 14.8428C4.87596 14.4348 4.73962 14.1311 4.49219 13.9121C4.23717 13.6864 3.88558 13.5518 3.40039 13.5518H1.62988V16.1445Z" fill="#323E45" style="fill:#323E45;fill:color(display-p3 0.1961 0.2431 0.2706);fill-opacity:1;"/>
</svg>
