<svg width="21" height="16" viewBox="0 0 21 16" fill="none" xmlns="http://www.w3.org/2000/svg">
<path d="M3.83789 0C5.27421 0.000103742 6.12532 1.11995 6.12109 2.18262C6.11564 3.63972 5.27441 3.96999 5.27441 4.75C5.27452 5.41707 6.27269 8.46044 6.65527 9.7832C7.14027 11.439 7.66692 12.7163 7.66699 14.2998C7.66699 15.2833 6.6504 16 3.83398 16C1.01682 15.9999 0 15.2832 0 14.2998C7.39071e-05 12.7352 0.549683 11.439 1.02051 9.7832C1.4663 8.3324 2.40127 5.399 2.40137 4.75C2.40137 4.02261 1.56779 3.67979 1.57324 2.18262C1.56792 1.1199 2.40145 0 3.83789 0Z" fill="#323E45" style="fill:#323E45;fill:color(display-p3 0.1961 0.2431 0.2706);fill-opacity:1;"/>
<path d="M16.6787 1.91309C17.127 0.960684 18.3536 0.299871 19.6475 0.890625C20.9414 1.48089 21.2314 2.83305 20.7744 3.7832C20.1485 5.08466 19.2483 5.03415 18.917 5.73145C18.6333 6.32802 18.2346 9.46151 18.0137 10.8027C17.744 12.4844 17.6746 13.8447 17 15.2617C16.5809 16.1411 15.361 16.3649 12.8252 15.207C10.2883 14.0499 9.67977 12.9917 10.0986 12.1113C10.7656 10.7115 11.809 9.77646 12.9404 8.48828C13.9605 7.37369 16.0529 5.13174 16.3301 4.55078C16.6397 3.90005 16.0357 3.25092 16.6787 1.91309Z" fill="#323E45" style="fill:#323E45;fill:color(display-p3 0.1961 0.2431 0.2706);fill-opacity:1;"/>
</svg>
