<svg width="36" height="7" viewBox="0 0 36 7" fill="none" xmlns="http://www.w3.org/2000/svg">
<path fill-rule="evenodd" clip-rule="evenodd" d="M3.70656 0C5.02439 0 6.04203 0.907926 6.04203 2.70278C6.04203 4.47663 5.02439 5.40582 3.67441 5.40582C2.81754 5.40582 2.28197 5.04674 1.90691 4.66667V7H0V0.126778H1.63913L1.7783 0.939556C2.20685 0.432963 2.75298 0 3.70656 0ZM26.2574 0C28.1118 0 28.8682 0.902222 28.8682 2.25581V3.86737C28.8682 4.18937 28.9536 4.27544 29.4545 4.30759V5.425H28.7725C27.7282 5.425 27.3766 5.25285 27.1741 4.47948C26.7264 5.09185 26.1512 5.49993 25.1388 5.49993C24.0626 5.49993 23.4125 4.97363 23.4125 4.039C23.4125 3.53422 23.5831 3.14741 24.1372 2.86819C24.6806 2.58896 25.5862 2.4277 27.0354 2.36341V2.17C27.0354 1.65433 26.8224 1.36422 26.1939 1.36422C25.5862 1.36422 25.3413 1.62219 25.3413 2.01963V2.15911L23.7001 2.04115V1.96596C23.7001 0.945259 24.393 0 26.2574 0ZM10.0385 0C10.2274 0 10.4161 0.0212593 10.5736 0.0531481V1.77826C10.3636 1.74663 10.1643 1.71474 9.88123 1.71474C9.0314 1.71474 8.41243 2.08548 8.41243 2.70978V5.25H6.54545V0.0847778H8.12932L8.26572 1.25948C8.59103 0.476519 9.17836 0 10.0385 0ZM13.0907 0V5.25H11.3287V0H13.0907ZM21.0228 0C22.2097 0 22.9091 0.764815 22.9091 1.94911V5.25H21.0228V2.22185C21.0228 1.73963 20.8002 1.40415 20.2174 1.40415C19.571 1.40415 19.1895 1.876 19.1895 2.36833V5.25H17.314V2.22185C17.314 1.73963 17.0914 1.40415 16.498 1.40415C15.8517 1.40415 15.4806 1.876 15.4806 2.36833V5.25H13.5943V0.13637H15.2051L15.3746 1.01656C15.8409 0.450593 16.4026 0 17.3245 0C18.1404 0 18.7232 0.366852 18.9988 0.995556C19.465 0.461222 20.0584 0 21.0228 0ZM31.8641 0V2.3883L33.7708 0.000259259H35.849L33.9966 2.16248L36 5.25H33.8567L32.6396 3.33511L31.8644 4.228V5.25H29.958V0H31.8641ZM27.0354 3.12615C26.2044 3.19044 25.7676 3.27652 25.5116 3.40537C25.2667 3.52359 25.2134 3.68459 25.2134 3.86737C25.2134 4.17874 25.437 4.37215 25.8954 4.37215C26.5453 4.37215 27.0354 3.96407 27.0354 3.36233V3.12615ZM3.05317 1.25637C2.35683 1.25637 1.87476 1.78422 1.87476 2.70304C1.87476 3.62133 2.35683 4.14944 3.05317 4.14944C3.76007 4.14944 4.19943 3.62133 4.19943 2.70278C4.19943 1.79485 3.76007 1.25637 3.05317 1.25637Z" fill="#323E45" style="fill:#323E45;fill:color(display-p3 0.1961 0.2431 0.2706);fill-opacity:1;"/>
</svg>
