<svg width="20" height="20" viewBox="0 0 20 20" fill="none" xmlns="http://www.w3.org/2000/svg">
<path d="M16.6689 14.2705C17.1733 13.6135 18.1153 13.4899 18.7725 13.9941C19.429 14.4985 19.5527 15.4397 19.0488 16.0967C18.2351 17.1572 17.2764 18.0889 16.208 18.8682C15.5389 19.3558 14.6015 19.2097 14.1133 18.541C13.6251 17.8717 13.7721 16.9325 14.4414 16.4443C15.2793 15.8331 16.0307 15.1022 16.6689 14.2705Z" fill="#323E45" style="fill:#323E45;fill:color(display-p3 0.1961 0.2431 0.2706);fill-opacity:1;"/>
<path fill-rule="evenodd" clip-rule="evenodd" d="M8.5 0C13.1944 0 16.9999 3.80564 17 8.5C17 13.1944 13.1944 17 8.5 17C3.80558 17 0 13.1944 0 8.5C6.5971e-05 3.80564 3.80562 0 8.5 0ZM8.5 3C5.46247 3 3.00007 5.46249 3 8.5C3 11.5376 5.46243 14 8.5 14C11.5376 14 14 11.5376 14 8.5C13.9999 5.46249 11.5375 3 8.5 3Z" fill="#323E45" style="fill:#323E45;fill:color(display-p3 0.1961 0.2431 0.2706);fill-opacity:1;"/>
</svg>
