<svg width="26" height="14" viewBox="0 0 26 14" fill="none" xmlns="http://www.w3.org/2000/svg">
<path fill-rule="evenodd" clip-rule="evenodd" d="M20.8008 4C23.5688 4 25.8125 6.2388 25.8125 9C25.8124 11.7612 23.5688 13.999 20.8008 13.999C18.0329 13.9989 15.7891 11.7611 15.7891 9C15.7891 6.23889 18.0329 4.00014 20.8008 4ZM20.8008 6C19.1401 6.00014 17.7939 7.34337 17.7939 9C17.794 10.6566 19.1401 11.9999 20.8008 12C22.4616 12 23.8085 10.6567 23.8086 9C23.8086 7.34328 22.4616 6 20.8008 6Z" fill="#323E45" style="fill:#323E45;fill:color(display-p3 0.1961 0.2431 0.2706);fill-opacity:1;"/>
<path d="M19.7988 2H13.7852V13.749H11.7803V0H19.7988V2Z" fill="#323E45" style="fill:#323E45;fill:color(display-p3 0.1961 0.2431 0.2706);fill-opacity:1;"/>
<path d="M2.00488 4C2.00502 5.51838 3.23963 6.74973 4.76172 6.75C6.28404 6.75 7.51842 5.51855 7.51855 4H7.51562V0H9.52051V4H9.52344C9.5233 6.62303 7.39125 8.74902 4.76172 8.74902C2.13243 8.74875 0.00013263 6.62286 0 4V0H2.00488V4Z" fill="#323E45" style="fill:#323E45;fill:color(display-p3 0.1961 0.2431 0.2706);fill-opacity:1;"/>
</svg>
