<svg width="34" height="11" viewBox="0 0 34 11" fill="none" xmlns="http://www.w3.org/2000/svg">
<path fill-rule="evenodd" clip-rule="evenodd" d="M21.765 0.114307H19.9124C19.9024 0.114299 19.8925 0.116318 19.8833 0.120248C19.8742 0.124178 19.8658 0.12994 19.8588 0.137199C19.8518 0.144459 19.8463 0.153071 19.8426 0.162536C19.8388 0.172002 19.837 0.182131 19.8371 0.192336V1.17822C18.9076 0.414082 17.7555 -0.00132327 16.5685 3.16676e-06C13.6602 3.16676e-06 11.2937 2.45033 11.2937 5.46261C11.2937 8.475 13.6602 10.9253 16.5685 10.9253C17.7555 10.9267 18.9076 10.5113 19.8371 9.74699V10.742C19.8371 10.7628 19.845 10.7824 19.859 10.7971C19.8732 10.8117 19.8924 10.82 19.9124 10.82H21.765C21.785 10.8198 21.8042 10.8115 21.8183 10.7969C21.8325 10.7823 21.8404 10.7626 21.8404 10.742V0.192279C21.8404 0.171632 21.8325 0.151793 21.8183 0.137145C21.8113 0.129915 21.803 0.124174 21.7939 0.120254C21.7847 0.116334 21.7749 0.114313 21.765 0.114307ZM16.5697 8.84069C15.9233 8.84101 15.2916 8.64319 14.7558 8.27269C14.2188 7.90181 13.8 7.37458 13.5526 6.75727C13.3051 6.13938 13.2402 5.46064 13.3658 4.80527C13.4908 4.15112 13.8012 3.54925 14.2584 3.07497C14.7131 2.6031 15.2949 2.28092 15.9294 2.14964C16.5626 2.0191 17.2195 2.08591 17.8154 2.34145C18.4118 2.59705 18.9217 3.03004 19.2804 3.58559C19.6395 4.14243 19.8309 4.79515 19.8307 5.46255C19.83 6.35789 19.4862 7.21627 18.8748 7.84967C18.2635 8.48284 17.4346 8.83925 16.5697 8.84069Z" fill="#323E45" style="fill:#323E45;fill:color(display-p3 0.1961 0.2431 0.2706);fill-opacity:1;"/>
<path d="M11.4664 0.114051H9.45975C9.43464 0.113985 9.41005 0.12129 9.38887 0.135101C9.36765 0.148942 9.35065 0.168666 9.3399 0.19208L5.68749 8.33789L2.18763 0.195194C2.17734 0.171197 2.16049 0.150765 2.13911 0.13637C2.11781 0.122065 2.09291 0.114447 2.06745 0.114455H0.0754627C0.0628711 0.114444 0.0504798 0.117683 0.0394317 0.123871C0.0283837 0.13006 0.0190347 0.138999 0.0122474 0.149865C0.00536799 0.160772 0.00124173 0.173259 0.000239519 0.186205C-0.000762696 0.19915 0.00139054 0.212148 0.00650569 0.22403L4.50025 10.6812C4.51804 10.7225 4.54697 10.7577 4.58362 10.7823C4.62026 10.807 4.66299 10.8201 4.70672 10.8201H6.64073C6.68401 10.8201 6.72638 10.8073 6.76279 10.7833C6.79919 10.7594 6.82811 10.7252 6.84608 10.6848L11.5346 0.224837C11.5426 0.206948 11.5438 0.186607 11.5379 0.16787C11.5319 0.149133 11.5193 0.133376 11.5026 0.12374C11.4915 0.117441 11.4791 0.114108 11.4664 0.114051ZM31.9854 0.113647H33.8492C33.869 0.113878 33.888 0.122125 33.902 0.136658C33.9159 0.151191 33.9239 0.1708 33.9239 0.191273V2.47857C33.9177 5.34563 33.1185 8.34591 31.6207 10.7577C31.6085 10.7771 31.5918 10.7931 31.572 10.804C31.5522 10.815 31.5301 10.8207 31.5076 10.8205H29.2637C29.2494 10.8205 29.2354 10.8163 29.2233 10.8084C29.2113 10.8005 29.2017 10.7892 29.1956 10.7759C29.1896 10.7626 29.1873 10.7478 29.1888 10.7332C29.1906 10.7186 29.1962 10.7049 29.2051 10.6935C29.9799 9.68295 30.5988 8.55525 31.0605 7.35812C30.3162 7.75658 29.4888 7.9644 28.649 7.96378C25.7405 7.96378 23.3744 5.5131 23.3744 2.50117V0.192484C23.3744 0.171722 23.3821 0.151941 23.3963 0.137293C23.4104 0.122702 23.4296 0.114455 23.4496 0.114455H25.3128C25.3327 0.114455 25.3519 0.122702 25.3661 0.137293C25.3802 0.151941 25.3882 0.17178 25.3882 0.192484V2.50117C25.3881 2.94416 25.4724 3.3829 25.6363 3.79283C25.7998 4.20172 26.04 4.57377 26.3433 4.88789C26.6454 5.20083 27.0049 5.4495 27.4012 5.61962C27.7964 5.78909 28.2206 5.87641 28.649 5.87649C29.0775 5.87645 29.5017 5.78913 29.897 5.61962C30.2933 5.44955 30.6529 5.20087 30.955 4.88789C31.2582 4.57371 31.4983 4.20167 31.6618 3.79283C31.8258 3.38293 31.9102 2.94415 31.9101 2.50112V0.191734C31.9101 0.17103 31.918 0.151191 31.9322 0.136601C31.9392 0.12935 31.9474 0.12359 31.9565 0.119658C31.9657 0.115726 31.9755 0.113645 31.9854 0.113647Z" fill="#323E45" style="fill:#323E45;fill:color(display-p3 0.1961 0.2431 0.2706);fill-opacity:1;"/>
</svg>
