<svg viewBox="0 0 48 48" fill="none" xmlns="http://www.w3.org/2000/svg">
  <path d="M26.0255 7.83245C26.54 6.9166 27.2971 6.15998 28.2137 5.64558C29.1386 5.12308 30.1754 4.86183 31.3236 4.86183C32.6677 4.86183 33.8453 5.2062 34.8565 5.89495C35.867 6.5837 36.5735 7.53683 36.9752 8.7537H34.3553C34.3095 8.75347 34.2647 8.74085 34.2256 8.71718C34.1865 8.69352 34.1545 8.6597 34.1331 8.61933C33.8628 8.11245 33.498 7.72683 33.0381 7.46308C32.5382 7.17558 31.9612 7.03183 31.3067 7.03183C30.6059 7.03183 29.982 7.19558 29.437 7.52308C28.8908 7.84995 28.4659 8.31245 28.1618 8.90933C27.8571 9.5062 27.705 10.2068 27.705 11.01C27.705 11.8137 27.8571 12.5 28.1618 13.1025C28.4659 13.7056 28.8908 14.1706 29.437 14.4975C29.982 14.825 30.6053 14.9887 31.3061 14.9887C31.9612 14.9887 32.5388 14.8418 33.0381 14.5493C33.498 14.28 33.8628 13.8918 34.1331 13.3843C34.1544 13.3438 34.1863 13.3098 34.2254 13.286C34.2646 13.2622 34.3095 13.2496 34.3553 13.2493H36.9752C36.5729 14.4781 35.8695 15.4337 34.8646 16.1168C33.8591 16.8 32.6789 17.1412 31.3236 17.1412C30.1748 17.1412 29.1379 16.88 28.2137 16.3575C27.2987 15.8448 26.5419 15.0915 26.0255 14.1793C25.4912 13.2493 25.2246 12.1931 25.2246 11.0106C25.2246 9.82808 25.4912 8.7687 26.0255 7.83308V7.83245ZM42.4116 7.79058C42.9115 7.5037 43.4828 7.35995 44.1261 7.35995V9.6412C44.1261 9.70751 44.0997 9.77109 44.0528 9.81798C44.0058 9.86486 43.9422 9.8912 43.8758 9.8912H43.4884C42.7307 9.8912 42.1588 10.07 41.7739 10.4256C41.3891 10.7818 41.197 11.4012 41.197 12.285V17.0381H38.7848V7.49745H41.197V8.9787C41.4943 8.48609 41.9123 8.0772 42.4116 7.79058ZM54.2923 12.9906H47.3135C47.3711 13.6793 47.6126 14.2187 48.0375 14.6093C48.463 14.9993 48.9855 15.1943 49.6056 15.1943C50.451 15.1943 51.0667 14.8525 51.4515 14.1668C51.4732 14.1284 51.5048 14.0965 51.543 14.0743C51.5811 14.0522 51.6245 14.0405 51.6686 14.0406H54.1202C53.8449 14.9593 53.3162 15.7137 52.5346 16.305C51.7537 16.8968 50.7951 17.1925 49.6575 17.1925C48.7377 17.1925 47.9142 16.9887 47.1846 16.5806C46.4613 16.1795 45.869 15.5787 45.4789 14.85C45.0709 14.1037 44.8669 13.2431 44.8669 12.2668C44.8669 11.2912 45.0678 10.4131 45.4701 9.66683C45.8527 8.94032 46.4398 8.34154 47.159 7.94433C47.8823 7.54308 48.7152 7.34183 49.6569 7.34183C50.5993 7.34183 51.3777 7.53745 52.0954 7.92745C52.8023 8.30727 53.3829 8.88482 53.7661 9.58933C54.1628 10.3068 54.3605 11.1306 54.3605 12.0606C54.3605 12.405 54.338 12.715 54.2923 12.9906ZM51.8632 11.3718C51.8513 10.7518 51.6273 10.2556 51.1912 9.88183C50.7544 9.50933 50.2201 9.32245 49.5887 9.32245C48.9911 9.32245 48.4887 9.5037 48.0807 9.86495C47.6733 10.2262 47.423 10.7287 47.3311 11.3712L51.8632 11.3718ZM67.4996 7.83245C68.014 6.91652 68.7711 6.15987 69.6878 5.64558C70.612 5.12308 71.6495 4.86183 72.7977 4.86183C74.1418 4.86183 75.3194 5.2062 76.3299 5.89495C77.3405 6.5837 78.0469 7.53683 78.4493 8.7537H75.8287C75.783 8.75347 75.7382 8.74085 75.6991 8.71718C75.6599 8.69352 75.628 8.6597 75.6066 8.61933C75.3369 8.11245 74.9715 7.72683 74.5116 7.46308C74.0122 7.17558 73.4347 7.03183 72.7802 7.03183C72.0793 7.03183 71.4561 7.19558 70.9105 7.52308C70.3648 7.84995 69.9393 8.31245 69.6352 8.90933C69.3311 9.5062 69.1785 10.2068 69.1785 11.01C69.1785 11.8137 69.3311 12.5 69.6352 13.1025C69.9393 13.7056 70.3648 14.1706 70.9105 14.4975C71.4561 14.825 72.0793 14.9887 72.7802 14.9887C73.4347 14.9887 74.0122 14.8418 74.5116 14.5493C74.9715 14.28 75.3369 13.8918 75.6066 13.3843C75.6278 13.3438 75.6598 13.3098 75.6989 13.286C75.738 13.2622 75.7829 13.2496 75.8287 13.2493H78.4493C78.0469 14.4781 77.3436 15.4337 76.3381 16.1168C75.3332 16.8 74.153 17.1412 72.7977 17.1412C71.6488 17.1412 70.612 16.88 69.6872 16.3575C68.7722 15.8447 68.0154 15.0914 67.499 14.1793C66.9652 13.2493 66.6981 12.1931 66.6981 11.0106C66.6981 9.82808 66.9652 8.7687 67.499 7.83308H67.4996V7.83245ZM82.0166 16.5812C81.287 16.1795 80.6865 15.5792 80.2852 14.85C79.8653 14.1037 79.6557 13.2431 79.6557 12.2668C79.6557 11.2912 79.8709 10.4306 80.3021 9.6837C80.7169 8.95289 81.329 8.35322 82.0685 7.95308C82.815 7.5462 83.6479 7.34183 84.5664 7.34183C85.4856 7.34183 86.3185 7.5462 87.065 7.95308C87.8043 8.3538 88.4163 8.95359 88.8314 9.68433C89.2619 10.4306 89.4772 11.2912 89.4772 12.2668C89.4772 13.2431 89.2563 14.1043 88.8139 14.85C88.3877 15.581 87.7675 16.1801 87.0218 16.5812C86.2697 16.9881 85.4281 17.1925 84.4976 17.1925C83.5671 17.1925 82.7512 16.9887 82.016 16.5806H82.0166V16.5812ZM85.7297 14.7725C86.1145 14.56 86.4217 14.2412 86.6514 13.8162C86.881 13.3918 86.9961 12.8756 86.9961 12.2662C86.9961 11.36 86.7577 10.6625 86.2809 10.1743C85.8041 9.68683 85.2216 9.44245 84.532 9.44245C83.8431 9.44245 83.2655 9.6862 82.8006 10.1743C82.3357 10.6618 82.1029 11.36 82.1029 12.2668C82.1029 13.1731 82.3294 13.8712 82.7837 14.3593C83.2374 14.8468 83.8087 15.0906 84.4982 15.0906C84.9295 15.092 85.3538 14.9825 85.7303 14.7725H85.7297ZM94.6201 7.79058C95.12 7.5037 95.6913 7.35995 96.3346 7.35995V9.6412C96.3346 9.70751 96.3082 9.77109 96.2612 9.81798C96.2143 9.86486 96.1506 9.8912 96.0843 9.8912H95.6976C94.9392 9.8912 94.3679 10.07 93.9831 10.4256C93.5976 10.7818 93.4055 11.4012 93.4055 12.285V17.0381H90.9933V7.49745H93.4055V8.9787C93.7031 8.48608 94.1206 8.07721 94.6201 7.79058ZM106.501 12.9906H99.522C99.579 13.6793 99.8205 14.2187 100.246 14.6093C100.671 14.9993 101.193 15.1943 101.813 15.1943C102.659 15.1943 103.275 14.8525 103.66 14.1668C103.682 14.1284 103.713 14.0964 103.751 14.0742C103.79 14.052 103.833 14.0404 103.877 14.0406H106.328C106.053 14.9593 105.524 15.7137 104.743 16.305C103.962 16.8968 103.003 17.1925 101.865 17.1925C100.946 17.1925 100.122 16.9887 99.3931 16.5806C98.6697 16.1794 98.0773 15.5786 97.6868 14.85C97.2794 14.1037 97.0754 13.2431 97.0754 12.2668C97.0754 11.2912 97.2763 10.4131 97.6786 9.66683C98.0608 8.94028 98.6477 8.34146 99.3668 7.94433C100.091 7.54308 100.924 7.34183 101.865 7.34183C102.807 7.34183 103.586 7.53745 104.303 7.92745C105.01 8.30737 105.591 8.88486 105.975 9.58933C106.371 10.3068 106.57 11.1306 106.57 12.0606C106.572 12.3719 106.549 12.683 106.5 12.9906H106.501ZM104.071 11.3718C104.06 10.7518 103.836 10.2556 103.399 9.88183C102.962 9.50933 102.428 9.32245 101.797 9.32245C101.199 9.32245 100.697 9.5037 100.289 9.86495C99.8812 10.2262 99.6309 10.7287 99.5396 11.3712L104.071 11.3718ZM62.7347 4.98933V8.82245C62.4018 8.37495 61.9538 8.0162 61.3912 7.7462C60.8378 7.47873 60.2308 7.34046 59.616 7.34183C58.8007 7.34183 58.0592 7.54245 57.3934 7.94433C56.727 8.3462 56.2014 8.92058 55.8166 9.6662C55.4318 10.4131 55.2397 11.2681 55.2397 12.2325C55.2397 13.1968 55.4318 14.0725 55.8166 14.8243C56.2014 15.5762 56.727 16.1587 57.3934 16.5718C58.0547 16.9837 58.8198 17.1988 59.5991 17.1918C60.3112 17.1918 60.937 17.0481 61.4776 16.7612C62.017 16.475 62.4362 16.0956 62.7353 15.625V17.0375H65.1819V1.88745L63.54 3.26495C63.288 3.4764 63.0853 3.7404 62.9463 4.0384C62.8073 4.3364 62.7353 4.66119 62.7353 4.98995L62.7347 4.98933ZM62.4074 13.7737C62.1941 14.176 61.8716 14.5102 61.477 14.7381C61.095 14.9596 60.6609 15.0754 60.2192 15.0737C59.7845 15.0762 59.3577 14.9571 58.9872 14.73C58.6023 14.5 58.2926 14.17 58.0567 13.7393C57.8214 13.3087 57.7038 12.8062 57.7038 12.2331C57.7038 11.6581 57.8208 11.1625 58.0567 10.7431C58.292 10.3243 58.5998 10.0056 58.9784 9.78683C59.3555 9.56937 59.7839 9.45651 60.2192 9.45995C60.6666 9.45995 61.0865 9.57183 61.477 9.79558C61.8714 10.0237 62.1938 10.3578 62.4074 10.76C62.6371 11.1787 62.7522 11.6812 62.7522 12.2662C62.7522 12.8518 62.6371 13.3543 62.408 13.7731L62.4074 13.7737Z" fill="currentColor"/>
</svg>
