<svg viewBox="0 0 48 48" fill="none" xmlns="http://www.w3.org/2000/svg">
  <path d="M3.61673 19.9081L0.00625731 19.9012L0 13.245C-0.000397192 12.9158 0.0714462 12.5905 0.210473 12.2921C0.3495 11.9936 0.552332 11.7292 0.80469 11.5175L3.61422 9.16125L3.61673 19.9081ZM9.02304 15.3731L9.02179 10.1931C9.01797 10.0648 9.01797 9.93643 9.02179 9.80812L9.02054 4.62687L6.22164 6.97375C5.96958 7.18517 5.76691 7.44916 5.6279 7.74717C5.48888 8.04518 5.41688 8.36998 5.41695 8.69875L5.42008 18.3956V19.9069H9.02554L9.02429 15.3737H9.02367L9.02304 15.3731ZM14.4319 19.9075H10.827L10.8251 14.4137L10.8646 14.4531C11.8267 15.4204 13.0794 16.0466 14.4312 16.2363L14.4319 19.9075ZM18.8132 7.16437L16.5518 9.06125L16.2221 9.3375C16.181 9.37167 16.1521 9.41816 16.1396 9.47007C16.127 9.52197 16.1316 9.57653 16.1526 9.62562C16.2101 9.75818 16.2349 9.90256 16.225 10.0467C16.2151 10.1908 16.1707 10.3304 16.0957 10.4539C16.0206 10.5773 15.917 10.681 15.7935 10.7563C15.6701 10.8315 15.5304 10.8761 15.3861 10.8862C15.258 10.8948 15.1295 10.8758 15.0094 10.8305C14.8892 10.7852 14.7802 10.7147 14.6897 10.6237C14.5973 10.5317 14.5261 10.4207 14.4811 10.2984C14.436 10.1761 14.4182 10.0455 14.4287 9.91562L14.4281 5.59187L14.4269 3.76437L14.4256 0.095L11.6273 2.44188C11.3752 2.65337 11.1725 2.91746 11.0335 3.21558C10.8944 3.5137 10.8225 3.83862 10.8226 4.1675V5.58937L10.8245 9.835V10.1675C10.861 11.1914 11.2477 12.1719 11.9202 12.9456C12.3352 13.4247 12.8471 13.8106 13.4221 14.078C13.9972 14.3453 14.6223 14.4881 15.2566 14.4969C15.8491 14.5067 16.4376 14.3993 16.9884 14.1808C17.5391 13.9623 18.041 13.637 18.4653 13.2238C18.8895 12.8106 19.2276 12.3176 19.4602 11.7731C19.6927 11.2287 19.815 10.6437 19.82 10.0519C19.8335 9.00117 19.4776 7.97913 18.8132 7.16437Z" fill="currentColor"/>
</svg>
