<svg xmlns="http://www.w3.org/2000/svg" width="128" height="24" fill="none"><path fill="#323E45" d="m4.326 23.775-4.318-.007L0 15.779a2.707 2.707 0 0 1 .963-2.072l3.36-2.828.003 12.896ZM10.792 11.655a7.732 7.732 0 0 0 0 .462l.002 6.216v.001l.003 5.44H6.483l-.003-13.45a2.706 2.706 0 0 1 .962-2.07l3.349-2.816.001 6.217ZM12.997 17.23a7.475 7.475 0 0 0 4.267 2.14v4.404h-4.312l-.002-6.591.047.047Z" style="fill:#323e45;fill:color(display-p3 .1961 .2431 .2706);fill-opacity:1"/><path fill="#323E45" fill-rule="evenodd" d="M59.403 8.696c1.128 0 2.059.234 2.917.702a4.94 4.94 0 0 1 2 1.995c.474.86.71 1.85.71 2.965 0 .414-.027.786-.082 1.117H56.6c.069.826.358 1.473.866 1.942.509.468 1.134.702 1.876.702 1.011 0 1.748-.41 2.208-1.233a.298.298 0 0 1 .26-.152h2.932a5.21 5.21 0 0 1-1.896 2.718c-.934.71-2.081 1.064-3.442 1.065-1.1 0-2.086-.245-2.959-.735a5.152 5.152 0 0 1-2.04-2.076c-.488-.895-.732-1.928-.732-3.1 0-1.17.24-2.224.721-3.12a5.043 5.043 0 0 1 2.021-2.067c.865-.482 1.862-.723 2.988-.723Zm-.082 2.376c-.714 0-1.316.218-1.803.652-.488.433-.787 1.036-.897 1.807l5.422.001c-.014-.744-.283-1.34-.805-1.788-.522-.447-1.161-.672-1.917-.672ZM101.164 8.696c1.1 0 2.096.245 2.989.734.885.48 1.617 1.2 2.114 2.077.515.895.772 1.929.772 3.1 0 1.17-.265 2.204-.794 3.1a5.507 5.507 0 0 1-2.143 2.076c-.9.488-1.907.734-3.02.734s-2.088-.245-2.968-.735a5.266 5.266 0 0 1-2.071-2.076c-.502-.895-.753-1.928-.753-3.1 0-1.17.257-2.204.772-3.1a5.373 5.373 0 0 1 2.114-2.076c.893-.489 1.889-.734 2.988-.734Zm-.041 2.52c-.824 0-1.515.293-2.071.879-.556.585-.835 1.423-.835 2.511s.27 1.926.814 2.511c.543.585 1.227.877 2.052.877a3 3 0 0 0 1.474-.382c.46-.255.827-.637 1.101-1.147.275-.51.412-1.129.412-1.86 0-1.087-.285-1.925-.855-2.51a2.81 2.81 0 0 0-2.092-.878ZM121.858 8.696c1.127 0 2.058.235 2.916.702a4.946 4.946 0 0 1 2 1.995c.474.86.711 1.85.711 2.965.003.374-.025.747-.083 1.117h-8.347c.068.826.357 1.473.866 1.942.508.468 1.133.702 1.875.702 1.012 0 1.748-.41 2.209-1.233a.299.299 0 0 1 .26-.151h2.932c-.329 1.102-.962 2.008-1.896 2.717-.935.71-2.082 1.065-3.443 1.065-1.099 0-2.086-.245-2.958-.735a5.157 5.157 0 0 1-2.041-2.076c-.487-.895-.731-1.928-.731-3.1 0-1.17.24-2.224.722-3.12a5.037 5.037 0 0 1 2.019-2.067c.866-.482 1.863-.723 2.989-.723Zm-.082 2.376c-.714 0-1.316.218-1.803.652-.488.433-.788 1.036-.897 1.807l5.421.001c-.013-.744-.281-1.34-.804-1.788-.522-.447-1.162-.672-1.917-.672ZM77.976 20.331h-2.927v-1.695c-.358.564-.86 1.02-1.505 1.363-.647.344-1.395.517-2.247.517a4.896 4.896 0 0 1-2.639-.743c-.797-.496-1.426-1.196-1.886-2.098-.46-.902-.69-1.953-.69-3.11 0-1.158.23-2.183.69-3.08.46-.894 1.089-1.584 1.886-2.066.797-.482 1.684-.723 2.66-.723a4.842 4.842 0 0 1 2.122.486c.673.324 1.21.754 1.608 1.29V5.874v.001a2.71 2.71 0 0 1 .963-2.07l1.965-1.654v18.181Zm-5.938-9.094a2.92 2.92 0 0 0-1.484.393 2.966 2.966 0 0 0-1.103 1.147c-.282.504-.422 1.099-.422 1.788 0 .688.14 1.291.422 1.808.282.517.653.912 1.114 1.188.443.273.953.416 1.473.414a2.971 2.971 0 0 0 1.505-.404 2.907 2.907 0 0 0 1.113-1.157h.001c.274-.503.411-1.106.411-1.809 0-.702-.137-1.305-.412-1.807a2.915 2.915 0 0 0-1.113-1.157 2.973 2.973 0 0 0-1.505-.404Z" clip-rule="evenodd" style="fill:#323e45;fill:color(display-p3 .1961 .2431 .2706);fill-opacity:1"/><path fill="#323E45" d="M37.472 5.72c1.608 0 3.017.413 4.226 1.24 1.209.826 2.054 1.97 2.534 3.43H41.1a.304.304 0 0 1-.266-.162c-.323-.608-.76-1.07-1.31-1.386-.599-.345-1.289-.518-2.072-.518-.838 0-1.584.196-2.236.59a4.008 4.008 0 0 0-1.526 1.663c-.364.716-.546 1.557-.546 2.52 0 .965.182 1.789.547 2.511.363.724.871 1.283 1.525 1.675.652.393 1.398.59 2.236.59.784-.001 1.474-.177 2.072-.528.55-.323.987-.789 1.31-1.398a.301.301 0 0 1 .266-.162h3.133c-.48 1.474-1.322 2.62-2.524 3.44-1.203.82-2.615 1.23-4.236 1.23-1.375 0-2.615-.313-3.72-.94a6.871 6.871 0 0 1-2.618-2.614c-.64-1.116-.958-2.383-.958-3.802 0-1.42.319-2.691.958-3.814l.119-.204a6.856 6.856 0 0 1 2.499-2.42c1.106-.628 2.346-.941 3.72-.941ZM87.086 5.72c1.608 0 3.017.414 4.225 1.24 1.21.826 2.054 1.97 2.536 3.43h-3.135a.304.304 0 0 1-.266-.162c-.322-.608-.76-1.07-1.31-1.386-.598-.345-1.289-.518-2.072-.518-.838 0-1.583.196-2.236.59a4.013 4.013 0 0 0-1.525 1.663c-.364.716-.547 1.557-.547 2.52 0 .965.183 1.788.547 2.511.364.724.872 1.283 1.525 1.675.653.393 1.398.589 2.236.59.783 0 1.474-.177 2.072-.528a3.45 3.45 0 0 0 1.31-1.398.302.302 0 0 1 .266-.162h3.135c-.482 1.474-1.323 2.62-2.526 3.44-1.202.82-2.614 1.23-4.235 1.23-1.374 0-2.615-.313-3.722-.94a6.874 6.874 0 0 1-2.617-2.614c-.638-1.116-.958-2.383-.958-3.802 0-1.42.32-2.691.958-3.814l.12-.204a6.852 6.852 0 0 1 2.498-2.42c1.106-.628 2.347-.941 3.72-.941ZM52.787 11.455a.3.3 0 0 1-.3.3h-.463c-.906 0-1.59.215-2.05.641-.46.428-.69 1.171-.69 2.232v5.703h-2.886V8.883h2.885v1.777a4.062 4.062 0 0 1 1.453-1.426c.598-.344 1.282-.516 2.051-.516v2.737ZM115.242 11.455a.3.3 0 0 1-.3.3h-.463c-.907 0-1.59.215-2.05.641-.461.428-.691 1.171-.691 2.232v5.703h-2.885V8.883h2.885v1.777a4.066 4.066 0 0 1 1.453-1.426c.598-.344 1.282-.516 2.051-.516v2.737ZM17.26 11.784a1.082 1.082 0 0 0 .695 1.098 1.073 1.073 0 0 0 1.3-.451 1.089 1.089 0 0 0 .068-.994.3.3 0 0 1-.016-.187.3.3 0 0 1 .1-.16l3.099-2.607a5.385 5.385 0 0 1 1.204 3.465 5.392 5.392 0 0 1-1.621 3.806 5.368 5.368 0 0 1-3.838 1.528 5.368 5.368 0 0 1-3.991-1.861 5.383 5.383 0 0 1-1.31-3.334v-.003a5.698 5.698 0 0 1 0-.396l-.004-6.801a2.709 2.709 0 0 1 .963-2.07L17.257 0l.004 11.784Z" style="fill:#323e45;fill:color(display-p3 .1961 .2431 .2706);fill-opacity:1"/></svg>