<svg xmlns="http://www.w3.org/2000/svg" width="64" height="64" fill="none"><path fill="#323E45" d="M32 0c17.673 0 32 14.327 32 32 0 17.673-14.327 32-32 32C14.327 64 0 49.673 0 32 0 14.327 14.327 0 32 0Zm0 2C15.431 2 2 15.431 2 32c0 16.569 13.431 30 30 30 16.569 0 30-13.431 30-30C62 15.431 48.569 2 32 2Zm.702 2.809C47.4 5.18 59.2 17.213 59.2 32l-.009.702C58.82 47.4 46.787 59.2 32 59.2l-.702-.009c-14.464-.366-26.123-12.025-26.49-26.489L4.8 32C4.8 16.978 16.978 4.8 32 4.8l.702.009ZM32 6.799C18.082 6.8 6.8 18.083 6.8 32c0 13.917 11.282 25.2 25.2 25.2 13.917 0 25.2-11.283 25.2-25.2S45.917 6.8 32 6.8Zm.58 2.807C44.682 9.914 54.4 19.823 54.4 32l-.006.578C54.087 44.682 44.178 54.398 32 54.4l-.578-.006C19.51 54.09 9.909 44.49 9.607 32.578L9.601 32C9.6 19.629 19.63 9.6 32 9.6l.578.006ZM32 11.6c-11.266 0-20.4 9.134-20.4 20.4 0 11.266 9.133 20.4 20.4 20.4 11.266-.001 20.4-9.134 20.4-20.4 0-11.266-9.134-20.4-20.4-20.4ZM32 14.4c9.72 0 17.6 7.88 17.6 17.6l-.005.455C49.353 41.965 41.568 49.6 32 49.601l-.454-.006C22.036 49.354 14.4 41.568 14.4 32c0-9.72 7.88-17.6 17.6-17.6Zm0 2c-8.615 0-15.6 6.985-15.6 15.6 0 8.615 6.985 15.6 15.6 15.6 8.615 0 15.6-6.985 15.6-15.6 0-8.615-6.985-15.6-15.6-15.6Zm0 2.8c7.07 0 12.8 5.73 12.8 12.8S39.07 44.8 32 44.8 19.2 39.07 19.2 32 24.93 19.2 32 19.2Zm0 2c-5.965 0-10.8 4.835-10.8 10.8 0 5.965 4.835 10.8 10.8 10.8 5.965 0 10.8-4.835 10.8-10.8 0-5.965-4.835-10.8-10.8-10.8Zm0 2.8a8 8 0 1 1 0 16 8 8 0 0 1 0-16Zm0 2a6 6 0 1 0 0 12 6 6 0 0 0 0-12Z" style="fill:#323e45;fill:color(display-p3 .1961 .2431 .2706);fill-opacity:1"/><path fill="#EDEFEB" d="M32.785 1.61C49.212 2.025 62.4 15.472 62.4 32l-.01.784C61.975 49.211 48.529 62.4 32.002 62.4l-.785-.01C15.05 61.98 2.02 48.95 1.61 32.785L1.6 32c0-16.79 13.612-30.4 30.401-30.4l.784.01Zm-.784 2.99c-15.132 0-27.4 12.268-27.4 27.4 0 15.132 12.268 27.4 27.4 27.4 15.132-.001 27.4-12.268 27.4-27.4C59.4 16.868 47.132 4.6 32 4.6ZM32 6.4c14.138 0 25.6 11.462 25.6 25.6l-.008.661c-.35 13.833-11.675 24.94-25.592 24.94l-.66-.01C17.507 57.242 6.4 45.918 6.4 32 6.4 17.862 17.862 6.4 32 6.4Zm0 3C19.519 9.4 9.4 19.52 9.4 32 9.4 44.481 19.52 54.6 32 54.6c12.481 0 22.6-10.119 22.6-22.6C54.6 19.519 44.482 9.4 32 9.4Zm0 1.8c11.487 0 20.8 9.313 20.8 20.8S43.487 52.8 32 52.8 11.2 43.487 11.2 32 20.513 11.2 32 11.2Zm0 3c-9.83 0-17.8 7.97-17.8 17.8 0 9.83 7.97 17.8 17.8 17.8 9.83 0 17.8-7.97 17.8-17.8 0-9.83-7.97-17.8-17.8-17.8Zm0 1.8c8.837 0 16 7.163 16 16s-7.163 16-16 16-16-7.163-16-16 7.163-16 16-16Zm0 3c-7.18 0-13 5.82-13 13s5.82 13 13 13 13-5.82 13-13-5.82-13-13-13Zm.576 1.814C38.494 21.114 43.2 26.008 43.2 32l-.015.576C42.886 38.494 37.992 43.2 32 43.2l-.576-.015c-5.727-.29-10.32-4.882-10.61-10.609L20.8 32c0-6.186 5.014-11.2 11.2-11.2l.576.014ZM32 23.8a8.2 8.2 0 1 0 0 16.4 8.2 8.2 0 0 0 0-16.4Z" style="fill:#edefeb;fill:color(display-p3 .9294 .9373 .9216);fill-opacity:1"/><mask id="a" width="32" height="64" x="0" y="0" maskUnits="userSpaceOnUse" style="mask-type:alpha"><path fill="#D9D9D9" d="M0 0h32v64H0z" style="fill:#d9d9d9;fill:color(display-p3 .851 .851 .851);fill-opacity:1"/></mask><g mask="url(#a)"><path fill="#EDEFEB" stroke="#EDEFEB" stroke-width="2" d="M32 2.6c3.614 0 7.156 2.957 9.853 8.351 2.668 5.336 4.347 12.776 4.347 21.05 0 8.272-1.679 15.713-4.347 21.048-2.697 5.395-6.239 8.35-9.853 8.35s-7.156-2.955-9.854-8.35C19.48 47.714 17.8 40.273 17.8 32s1.679-15.713 4.346-21.049C24.845 5.557 28.386 2.6 32 2.6Z" style="fill:#edefeb;fill:color(display-p3 .9294 .9373 .9216);fill-opacity:1;stroke:#edefeb;stroke:color(display-p3 .9294 .9373 .9216);stroke-opacity:1"/><path fill="#323E45" d="M32 0c8.837 0 16 14.327 16 32 0 17.673-7.163 32-16 32S16 49.673 16 32c0-17.673 7.163-32 16-32Zm0 2c-3.253 0-6.735 2.689-9.524 8.267C19.746 15.725 18 23.407 18 32s1.746 16.275 4.476 21.733C25.265 59.311 28.747 62 32 62c3.252 0 6.735-2.689 9.524-8.267C44.254 48.275 46 40.593 46 32s-1.746-16.275-4.476-21.733C38.735 4.689 35.252 2 32 2Zm0 2.8c7.51 0 13.6 12.178 13.6 27.2l-.004.702C45.409 47.4 39.393 59.2 32 59.2l-.35-.009c-7.233-.366-13.061-12.025-13.245-26.489L18.4 32c0-15.022 6.09-27.2 13.6-27.2Zm0 2c-2.59 0-5.473 2.152-7.827 6.861C21.878 18.251 20.4 24.732 20.4 32c0 7.268 1.478 13.749 3.773 18.339C26.528 55.048 29.41 57.2 32 57.2s5.474-2.152 7.828-6.861c2.295-4.59 3.773-11.071 3.773-18.339 0-7.268-1.478-13.749-3.773-18.339C37.473 8.951 34.59 6.801 32 6.8Zm.29 2.806C38.34 9.913 43.2 19.822 43.2 32l-.015 1.152C42.886 44.988 37.992 54.4 32 54.4l-.29-.006c-5.859-.297-10.6-9.596-10.896-21.24L20.8 32c0-12.371 5.014-22.4 11.2-22.4l.29.006ZM32 11.6c-1.927 0-4.21 1.614-6.13 5.455C24.008 20.776 22.8 26.058 22.8 32s1.209 11.223 3.07 14.944C27.79 50.785 30.072 52.4 32 52.4c1.927 0 4.21-1.614 6.13-5.455 1.861-3.72 3.07-9.002 3.07-14.944s-1.209-11.224-3.07-14.945C36.21 13.214 33.928 11.6 32 11.6Zm0 2.8c4.86 0 8.8 7.88 8.8 17.6 0 9.72-3.94 17.6-8.8 17.6l-.227-.005C27.018 49.355 23.2 41.568 23.2 32c0-9.72 3.94-17.6 8.8-17.6Zm0 2c-1.264 0-2.948 1.078-4.434 4.05C26.14 23.303 25.2 27.384 25.2 32c0 4.617.94 8.698 2.366 11.55 1.486 2.973 3.17 4.05 4.434 4.05 1.264 0 2.947-1.077 4.434-4.05C37.86 40.699 38.8 36.618 38.8 32c0-4.616-.94-8.697-2.366-11.55-1.487-2.972-3.17-4.05-4.434-4.05Zm.165 2.804c3.458.176 6.234 5.837 6.234 12.796 0 7.069-2.865 12.8-6.399 12.8l-.166-.004C28.376 44.62 25.6 38.958 25.6 32c0-7.07 2.865-12.8 6.4-12.8l.165.004ZM32 21.2c-.602 0-1.685.54-2.737 2.644C28.27 25.828 27.6 28.709 27.6 32c0 3.291.67 6.172 1.663 8.156C30.314 42.26 31.398 42.8 32 42.8c.602 0 1.685-.54 2.736-2.644.992-1.984 1.663-4.865 1.663-8.156 0-3.291-.67-6.172-1.663-8.156C33.685 21.74 32.602 21.2 32 21.2Zm0 2.8c2.21 0 4 3.582 4 8s-1.79 8-4 8-4-3.582-4-8 1.79-8 4-8Zm-.01 2.001a.228.228 0 0 0-.039.013.845.845 0 0 0-.217.141c-.215.183-.496.525-.774 1.082C30.402 28.353 30 30.034 30 32c0 1.966.402 3.647.96 4.763.278.557.559.9.774 1.082a.845.845 0 0 0 .217.141c.02.008.032.012.038.013L32 38l.01-.001a.228.228 0 0 0 .039-.013.845.845 0 0 0 .217-.141c.215-.183.495-.525.774-1.082.558-1.116.96-2.797.96-4.763 0-1.966-.402-3.647-.96-4.763-.279-.557-.559-.9-.774-1.082a.845.845 0 0 0-.217-.141.228.228 0 0 0-.038-.013L32 26l-.01.001Z" style="fill:#323e45;fill:color(display-p3 .1961 .2431 .2706);fill-opacity:1"/><path fill="#EDEFEB" d="M32.393 1.61C40.606 2.025 47.2 15.472 47.2 32l-.005.784C46.987 49.211 40.264 62.4 32 62.4l-.393-.01C23.524 61.98 17.01 48.95 16.805 32.785L16.8 32c0-16.79 6.805-30.4 15.2-30.4l.393.01ZM32 3.6c-3.032 0-6.315 2.51-8.959 7.798C20.457 16.568 18.8 23.848 18.8 32c0 8.151 1.657 15.433 4.241 20.602 2.644 5.288 5.927 7.797 8.959 7.797s6.315-2.509 8.959-7.797C43.543 47.432 45.2 40.152 45.2 32c0-8.151-1.657-15.433-4.241-20.602C38.315 6.11 35.032 3.6 32 3.6Zm0 2.8c7.07 0 12.8 11.462 12.8 25.6 0 14.138-5.73 25.6-12.8 25.6l-.33-.008C24.753 57.242 19.2 45.917 19.2 32c0-14.138 5.73-25.6 12.8-25.6Zm0 2c-2.369 0-5.052 1.973-7.262 6.393C22.588 19.093 21.2 25.174 21.2 32c0 6.826 1.388 12.908 3.538 17.208 2.21 4.42 4.893 6.392 7.262 6.393 2.369 0 5.053-1.973 7.263-6.393C41.413 44.908 42.8 38.826 42.8 32c0-6.826-1.387-12.907-3.537-17.207C37.053 10.373 34.369 8.4 32 8.4Zm.269 2.807C37.889 11.492 42.4 20.692 42.4 32c0 11.487-4.656 20.799-10.399 20.8l-.269-.007c-5.62-.285-10.131-9.485-10.131-20.793 0-11.487 4.656-20.8 10.4-20.8l.268.007ZM32 13.2c-1.706 0-3.79 1.435-5.565 4.986C24.72 21.618 23.6 26.5 23.6 32s1.119 10.382 2.835 13.813C28.21 49.365 30.294 50.8 32 50.8c1.706 0 3.789-1.436 5.564-4.986C39.281 42.381 40.4 37.5 40.4 32c0-5.5-1.119-10.382-2.835-13.814-1.775-3.55-3.858-4.985-5.564-4.986ZM32 16c4.418 0 8 7.163 8 16s-3.582 16-8 16-8-7.163-8-16 3.582-16 8-16Zm0 2c-1.044 0-2.527.898-3.868 3.581C26.85 24.144 26 27.825 26 32c0 4.175.85 7.856 2.132 10.419C29.473 45.102 30.956 46 32 46s2.527-.898 3.868-3.581C37.15 39.856 38 36.175 38 32c0-4.175-.85-7.856-2.132-10.419C34.527 18.898 33.043 18 32 18Zm0 2.8c3.093 0 5.6 5.014 5.6 11.2l-.007.576C37.443 38.494 34.996 43.2 32 43.2l-.288-.015c-2.863-.29-5.16-4.882-5.305-10.609L26.4 32c0-6.185 2.507-11.2 5.6-11.2Zm0 2c-.38 0-1.264.361-2.17 2.175-.848 1.694-1.43 4.175-1.43 7.025 0 2.85.582 5.33 1.43 7.025.906 1.814 1.79 2.175 2.17 2.175.38 0 1.264-.36 2.17-2.175.848-1.694 1.43-4.175 1.43-7.025 0-2.85-.582-5.33-1.43-7.025C33.265 23.16 32.38 22.8 32 22.8Z" style="fill:#edefeb;fill:color(display-p3 .9294 .9373 .9216);fill-opacity:1"/></g></svg>