<svg width="105" height="24" viewBox="0 0 105 24" fill="none" xmlns="http://www.w3.org/2000/svg">
<path d="M20.042 17.1572C20.6485 16.3676 21.7803 16.219 22.5703 16.8252C23.36 17.4316 23.5093 18.5635 22.9033 19.3535C21.925 20.6284 20.7726 21.7487 19.4883 22.6855C18.6837 23.272 17.5557 23.0962 16.9688 22.292C16.3818 21.4873 16.5585 20.3584 17.3633 19.7715C18.3708 19.0366 19.2746 18.1573 20.042 17.1572ZM10.2197 0C15.8639 0 20.4394 4.57552 20.4395 10.2197C20.4395 15.864 15.864 20.4395 10.2197 20.4395C4.57552 20.4394 0 15.8639 0 10.2197C3.6078e-05 4.57554 4.57554 3.60791e-05 10.2197 0ZM39.4248 2.34961C41.0748 2.34961 42.5252 2.75 43.8252 3.5C45.125 4.27493 46.1247 5.32501 46.8496 6.6748C47.5496 8.02481 47.9248 9.55 47.9248 11.25C47.9248 12.35 47.7502 13.4 47.4502 14.375C47.1252 15.35 46.6746 16.225 46.0996 17C46.3996 17.325 46.7999 17.4746 47.2998 17.4746H48.8252V20H47.125C46.425 20 45.9 19.9246 45.5 19.7246C45.1001 19.5246 44.7497 19.2252 44.4248 18.7754L44.3496 18.6748C42.9496 19.6747 41.2997 20.1504 39.4248 20.1504C37.7749 20.1504 36.2999 19.775 35 19C33.7 18.25 32.7 17.1751 32 15.8252C31.275 14.4752 30.9248 12.95 30.9248 11.25C30.9248 9.55 31.275 8.02481 32 6.6748C32.7 5.32488 33.7 4.27497 35 3.5C36.2999 2.75003 37.7749 2.34964 39.4248 2.34961ZM52.7949 13.9746C52.7949 15.2246 53.0449 16.1752 53.5449 16.8252C54.0449 17.475 54.7697 17.7998 55.7695 17.7998C56.7945 17.7998 57.5943 17.4248 58.1943 16.6748C58.7693 15.9248 59.0693 14.8748 59.0693 13.5498V7.2002H61.7695V20H59.3945L59.0947 18.375C58.1197 19.575 56.7945 20.1504 55.1445 20.1504C53.6447 20.1504 52.4201 19.6998 51.4951 18.75C50.5451 17.825 50.0947 16.325 50.0947 14.25V7.2002H52.7949V13.9746ZM70.1807 7.0498C71.4056 7.04983 72.4807 7.29983 73.4307 7.7998C74.3805 8.29976 75.1053 9.02493 75.6553 9.9248C76.2053 10.8498 76.4809 11.9254 76.5059 13.1504C76.5058 13.5002 76.4806 13.825 76.4307 14.1748H66.7803V14.3252C66.8303 15.4499 67.1804 16.3247 67.8301 16.9746C68.4551 17.6246 69.3055 17.9502 70.3555 17.9502C71.1803 17.9502 71.8801 17.7749 72.4551 17.375C73.005 16.9751 73.3801 16.4251 73.5801 15.7002H76.2803C76.0302 17.0001 75.4058 18.0754 74.3809 18.9004C73.3559 19.7504 72.0806 20.1504 70.5557 20.1504C69.2057 20.1504 68.0557 19.8996 67.0557 19.3496C66.0557 18.7996 65.3059 18.0498 64.7559 17.0498C64.2059 16.0748 63.9551 14.925 63.9551 13.625C63.9551 12.325 64.2055 11.1748 64.7305 10.1748C65.2555 9.17488 65.9807 8.42497 66.9307 7.875C67.8806 7.32506 68.9557 7.0498 70.1807 7.0498ZM81.1885 13.9746C81.1885 15.2246 81.4385 16.1752 81.9385 16.8252C82.4384 17.475 83.1633 17.7998 84.1631 17.7998C85.1881 17.7998 85.9879 17.4248 86.5879 16.6748C87.1629 15.9248 87.4629 14.8748 87.4629 13.5498V7.2002H90.1631V20H87.7881L87.4883 18.375C86.5133 19.575 85.1881 20.1504 83.5381 20.1504C82.0383 20.1504 80.8136 19.6998 79.8887 18.75C78.9387 17.825 78.4883 16.325 78.4883 14.25V7.2002H81.1885V13.9746ZM98.5742 7.0498C99.7991 7.04983 100.874 7.29983 101.824 7.7998C102.774 8.29976 103.499 9.02494 104.049 9.9248C104.599 10.8498 104.874 11.9254 104.899 13.1504C104.899 13.5002 104.874 13.825 104.824 14.1748H95.1738V14.3252C95.2238 15.4499 95.5739 16.3247 96.2236 16.9746C96.8486 17.6246 97.699 17.9502 98.749 17.9502C99.5739 17.9502 100.274 17.7749 100.849 17.375C101.399 16.9751 101.774 16.4251 101.974 15.7002H104.674C104.424 17.0001 103.799 18.0754 102.774 18.9004C101.749 19.7504 100.474 20.1504 98.9492 20.1504C97.5992 20.1504 96.4492 19.8996 95.4492 19.3496C94.4492 18.7996 93.6994 18.0498 93.1494 17.0498C92.5994 16.0748 92.3486 14.925 92.3486 13.625C92.3486 12.325 92.599 11.1748 93.124 10.1748C93.649 9.17488 94.3743 8.42497 95.3242 7.875C96.2742 7.32506 97.3493 7.0498 98.5742 7.0498ZM39.4248 4.875C38.325 4.87503 37.3753 5.15031 36.5254 5.7002C35.6755 6.25012 35.0252 6.9998 34.5752 7.97461C34.1002 8.94961 33.875 10.05 33.875 11.25C33.875 12.475 34.1002 13.5748 34.5752 14.5498C35.0252 15.5248 35.6754 16.2752 36.5254 16.8252C37.3752 17.375 38.325 17.625 39.4248 17.625C40.6748 17.625 41.7502 17.2748 42.7002 16.5498L42.3252 16.0498C42.1002 15.7499 41.8748 15.5504 41.6748 15.4004C41.4498 15.2754 41.1998 15.2002 40.9248 15.2002H39.375V12.7002H41.25C41.85 12.7002 42.3502 12.8 42.7002 13C43.0501 13.2 43.3997 13.5 43.7246 13.9248L44.25 14.5996C44.7249 13.6497 44.9746 12.5249 44.9746 11.25C44.9746 10.05 44.7254 8.94961 44.2754 7.97461C43.8004 6.99969 43.1498 6.25017 42.2998 5.7002C41.4498 5.15022 40.4998 4.875 39.4248 4.875ZM10.2197 3.60742C6.56763 3.60746 3.60746 6.56763 3.60742 10.2197C3.60742 13.8719 6.5676 16.833 10.2197 16.833C13.8719 16.833 16.833 13.8719 16.833 10.2197C16.833 6.5676 13.8719 3.60742 10.2197 3.60742ZM70.2803 9.22461C69.3804 9.22465 68.6304 9.4999 67.9805 10.0498C67.3305 10.5998 66.9809 11.3002 66.8809 12.2002H73.7559C73.6309 11.2754 73.2556 10.5504 72.6309 10.0254C72.0059 9.50039 71.2303 9.22461 70.2803 9.22461ZM98.6738 9.22461C97.774 9.22465 97.024 9.4999 96.374 10.0498C95.724 10.5998 95.3744 11.3002 95.2744 12.2002H102.149C102.024 11.2754 101.649 10.5504 101.024 10.0254C100.399 9.50039 99.6238 9.22461 98.6738 9.22461Z" fill="#323E45" style="fill:#323E45;fill:color(display-p3 0.1961 0.2431 0.2706);fill-opacity:1;"/>
</svg>
