<svg viewBox="0 0 48 48" fill="none" xmlns="http://www.w3.org/2000/svg">
  <path d="M31.2799 15.708C29.9913 14.4587 28.3603 13.5934 26.5802 13.2148C24.8001 12.8362 22.9454 12.96 21.2356 13.5715C19.5258 14.1831 18.0326 15.2569 16.9327 16.6657C15.8328 18.0745 15.1723 19.7594 15.0294 21.5208C14.8865 23.2822 15.2671 25.0465 16.1263 26.6047C16.6436 27.5429 17.3213 28.3827 18.1258 29.0909L16.0738 32.5367H18.292L19.6814 30.2037C19.7462 30.2408 19.8115 30.2773 19.8774 30.313C21.4675 31.1763 23.2795 31.5797 25.0987 31.4755C26.6182 31.3885 28.0896 30.9505 29.3922 30.2034L30.7818 32.5367H33L25.3687 19.722L24.5369 18.3251L23.705 19.722L19.1388 27.3898C18.6348 26.8928 18.204 26.3262 17.8616 25.7053C17.1797 24.4686 16.8776 23.0684 16.991 21.6704C17.1044 20.2724 17.6286 18.9352 18.5016 17.817C19.3746 16.6989 20.5597 15.8467 21.9167 15.3613C23.2737 14.8759 24.7458 14.7777 26.1586 15.0782C27.5714 15.3787 28.8658 16.0654 29.8886 17.057L31.2799 15.708ZM32.3235 34.9581H32.2237L32.2487 35L32.3235 34.9581ZM16.85 34.9581H16.7503L16.8251 35L16.85 34.9581ZM20.8387 28.6485C20.7804 28.6169 20.7226 28.5845 20.6653 28.5514L24.5369 22.0501L28.4083 28.5512C27.37 29.1504 26.1957 29.5017 24.9827 29.5711C23.5388 29.6538 22.1007 29.3336 20.8387 28.6485Z" fill="currentColor"/>
</svg>
