<svg viewBox="0 0 48 48" fill="none" xmlns="http://www.w3.org/2000/svg">
  <path d="M19.2412 16H21.4136V32H19.2412V16ZM28.554 16V17.9305H30.2383V32H32.3431V17.9305H34V16H28.554ZM14 32H16.1049V24.7413H17.8975V22.8372H16.1049V17.9305H18.4435V16H14V32ZM28.8331 30.9519C28.8335 31.3025 28.8337 31.6519 28.8336 32H26.8648C26.8631 31.3947 26.8618 30.7864 26.8609 30.1751C26.8593 29.5648 26.8566 28.9534 26.8503 28.3441C26.8379 27.1267 26.8114 25.9141 26.7512 24.7413H24.4356V32H22.5451V16H26.9871C27.2561 16.5504 27.4842 17.1221 27.6694 17.7098C27.8611 18.3172 28.0197 18.9357 28.1445 19.5622C28.2735 20.1992 28.3761 20.856 28.4586 21.5242C28.5411 22.1923 28.6038 22.8758 28.6523 23.5655C28.7007 24.2547 28.7352 24.956 28.7603 25.6579C28.7854 26.3591 28.8014 27.0703 28.8119 27.7761C28.8224 28.4802 28.8276 29.1955 28.8304 29.897C28.8318 30.2495 28.8327 30.6011 28.8331 30.9519ZM26.6171 22.8372C26.4479 21.0078 26.1577 19.3145 25.6552 17.9305H24.4356V22.8372H26.6171Z" fill="currentColor"/>
</svg>
