<svg viewBox="0 0 48 48" fill="none" xmlns="http://www.w3.org/2000/svg">
  <path d="M22.7705 35.1875L22.4834 35.8623L22.8184 37L19.2734 33.8115L20.0996 33.4541L22.7705 35.1875ZM27.833 32.7705L29.9092 32.6123L26.7246 35.8184L25.7207 35.0801L26.3643 35.9668L23.1387 37L22.8184 35.5928L23.0557 34.6836L25.1426 33.4541L25.248 34.0352L26.9209 32.2725L27.833 32.7705ZM19.2725 32.4951L16.9092 33.4551L18.5703 27.5459L19.2725 32.4951ZM29.9092 32.0713L28.21 32.2725L27.5459 31.8477V29.6895L28.7842 29.5322L29.9092 28.7275V32.0713ZM35.8184 17.458L29.3252 20.9033L30.7451 20.9238L31.0977 20.4541L30.875 21.7803L28.041 22.0703L28.3154 22.9688L31.0977 22.7754L31.502 22.3057L31.332 23.6318L28.5381 23.8662L28.8115 24.8193L31.502 24.626L31.8682 24.1562L31.7764 25.4414L29.0342 25.7314L29.3086 26.7256L31.8682 26.5322L32.2725 26.0625L32.1416 27.334L29.5303 27.624L29.7129 28.0518L28.3682 29.0469L26.918 29.2949L26.7881 29.0469L24.9854 31.0908L23.9541 30.3867L24.542 30.3311L26.252 28.2871L25.665 27.4854L23.7842 29.627L22.792 28.9082L23.3271 28.8672L25.1289 26.7256L24.5938 25.9658L22.7002 28.1484L21.6162 27.4854L22.2041 27.4307L24.0459 25.2061L23.5098 24.4463L21.5771 26.6289L20.4541 26.0078L21.042 25.9658L22.7393 23.5352L27.3232 21.1221L23.2617 22.8184L22.8184 20.4268L24.5059 20.3965L25.5713 19.2725L27.5283 21.0146L27.7441 20.9014L27.2539 19.1035L33.2373 17.2295L32.0996 14.7988L30.2803 16.584L25.3174 16.0146L28.3916 14.583L22.8184 12.1396L30.6094 11L35.8184 17.458ZM16.6348 19.5488L19.7656 17.8242L16.8066 22.3477L14.2695 22.8096L15.5381 25.2715L21.127 21.3105L22.8184 23.3721L13.8994 27.5449L12.1816 19.2861L18.4443 13.3633L16.6348 19.5488Z" fill="currentColor"/>
</svg>
