<svg viewBox="0 0 48 48" fill="none" xmlns="http://www.w3.org/2000/svg">
  <path d="M24.0009 13C21.8253 12.9998 19.6985 13.6448 17.8894 14.8534C16.0804 16.0619 14.6703 17.7799 13.8376 19.7898C13.0049 21.7998 12.7869 24.0116 13.2113 26.1454C13.6356 28.2793 14.6832 30.2394 16.2215 31.7778C17.7598 33.3163 19.7198 34.364 21.8537 34.7886C23.9875 35.2131 26.1993 34.9953 28.2093 34.1628C30.2193 33.3302 31.9373 31.9203 33.1461 30.1114C34.3548 28.3024 35 26.1756 35 24C34.9968 21.0838 33.8369 18.2879 31.7749 16.2257C29.7129 14.1636 26.9172 13.0035 24.0009 13ZM24.0009 14.7914C25.8479 14.7914 27.8986 18.3619 28.0136 23.5418H19.9883C20.1033 18.3619 22.1549 14.7914 24.0009 14.7914ZM20.1796 15.6229C20.0194 15.885 19.8666 16.1654 19.7214 16.464C18.788 18.3817 18.2525 20.8811 18.1978 23.5418H14.8036C14.8896 21.8563 15.4364 20.2268 16.3843 18.8306C17.3322 17.4343 18.6449 16.3248 20.1796 15.6229ZM14.8904 25.3341H18.2346C18.377 27.6648 18.8946 29.8304 19.7214 31.537C19.8666 31.8349 20.0194 32.1149 20.1796 32.377C18.7811 31.7364 17.5647 30.7566 16.641 29.5264C15.7173 28.2963 15.1155 26.8549 14.8904 25.3331V25.3341ZM27.8232 32.377C27.9825 32.1149 28.1362 31.8349 28.2814 31.537C28.8487 30.3284 29.2514 29.0492 29.4788 27.7336H27.6572C26.9718 31.0835 25.4256 33.2086 24.0009 33.2086C22.2605 33.2086 20.339 30.0369 20.0269 25.3341H29.7682C29.7956 24.8947 29.8107 24.4497 29.8107 24.0009C29.8107 21.1724 29.2676 18.4929 28.2814 16.4649C28.1362 16.166 27.9825 15.886 27.8232 15.6239C29.4294 16.3569 30.7909 17.5363 31.7456 19.0214C32.7004 20.5066 33.208 22.2349 33.208 24.0005C33.208 25.766 32.7004 27.4943 31.7456 28.9795C30.7909 30.4647 29.4294 31.644 27.8232 32.377Z" fill="currentColor"/>
</svg>
