<svg viewBox="0 0 48 48" fill="none" xmlns="http://www.w3.org/2000/svg">
  <path d="M9.70656 20.5C11.0244 20.5 12.042 21.4079 12.042 23.2028C12.042 24.9766 11.0244 25.9058 9.67441 25.9058C8.81754 25.9058 8.28197 25.5467 7.90691 25.1667V27.5H6V20.6268H7.63913L7.7783 21.4396C8.20685 20.933 8.75298 20.5 9.70656 20.5ZM32.2574 20.5C34.1118 20.5 34.8682 21.4022 34.8682 22.7558V24.3674C34.8682 24.6894 34.9536 24.7754 35.4545 24.8076V25.925H34.7725C33.7282 25.925 33.3766 25.7529 33.1741 24.9795C32.7264 25.5919 32.1512 25.9999 31.1388 25.9999C30.0626 25.9999 29.4125 25.4736 29.4125 24.539C29.4125 24.0342 29.5831 23.6474 30.1372 23.3682C30.6806 23.089 31.5862 22.9277 33.0354 22.8634V22.67C33.0354 22.1543 32.8224 21.8642 32.1939 21.8642C31.5862 21.8642 31.3413 22.1222 31.3413 22.5196V22.6591L29.7001 22.5411V22.466C29.7001 21.4453 30.393 20.5 32.2574 20.5ZM16.0385 20.5C16.2274 20.5 16.4161 20.5213 16.5736 20.5531V22.2783C16.3636 22.2466 16.1643 22.2147 15.8812 22.2147C15.0314 22.2147 14.4124 22.5855 14.4124 23.2098V25.75H12.5455V20.5848H14.1293L14.2657 21.7595C14.591 20.9765 15.1784 20.5 16.0385 20.5ZM19.0907 20.5V25.75H17.3287V20.5H19.0907ZM27.0228 20.5C28.2097 20.5 28.9091 21.2648 28.9091 22.4491V25.75H27.0228V22.7219C27.0228 22.2396 26.8002 21.9041 26.2174 21.9041C25.571 21.9041 25.1895 22.376 25.1895 22.8683V25.75H23.314V22.7219C23.314 22.2396 23.0914 21.9041 22.498 21.9041C21.8517 21.9041 21.4806 22.376 21.4806 22.8683V25.75H19.5943V20.6364H21.2051L21.3746 21.5166C21.8409 20.9506 22.4026 20.5 23.3245 20.5C24.1404 20.5 24.7232 20.8669 24.9988 21.4956C25.465 20.9612 26.0584 20.5 27.0228 20.5ZM37.8641 20.5V22.8883L39.7708 20.5003H41.849L39.9966 22.6625L42 25.75H39.8567L38.6396 23.8351L37.8644 24.728V25.75H35.958V20.5H37.8641ZM33.0354 23.6261C32.2044 23.6904 31.7676 23.7765 31.5116 23.9054C31.2667 24.0236 31.2134 24.1846 31.2134 24.3674C31.2134 24.6787 31.437 24.8721 31.8954 24.8721C32.5453 24.8721 33.0354 24.4641 33.0354 23.8623V23.6261ZM9.05317 21.7564C8.35683 21.7564 7.87476 22.2842 7.87476 23.203C7.87476 24.1213 8.35683 24.6494 9.05317 24.6494C9.76007 24.6494 10.1994 24.1213 10.1994 23.2028C10.1994 22.2949 9.76007 21.7564 9.05317 21.7564Z" fill="currentColor"/>
</svg>
