<svg viewBox="0 0 48 48" fill="none" xmlns="http://www.w3.org/2000/svg">
  <path d="M35.9963 19.047C38.6679 21.7782 38.6679 26.2217 35.9963 28.9523C35.3659 29.6005 34.6124 30.1157 33.7803 30.4674C32.9482 30.8191 32.0543 31.0002 31.1513 31C29.3673 31.0004 27.6553 30.2942 26.3881 29.035L26.3151 28.9618L24.0021 26.6055L21.6884 28.9618C21.0572 29.6077 20.3037 30.1206 19.4721 30.4705C18.6405 30.8203 17.7476 31.0001 16.8458 30.9992C15.944 30.9983 15.0514 30.8168 14.2205 30.4653C13.3896 30.1138 12.6371 29.5994 12.0072 28.9523C10.7126 27.63 10 25.8705 10 23.9996C10 22.1288 10.7126 20.37 12.0072 19.0477C12.6304 18.4072 13.3736 17.8966 14.1943 17.5453C15.0149 17.1939 15.8968 17.0087 16.7891 17.0003C17.6813 16.9919 18.5665 17.1605 19.3936 17.4963C20.2207 17.8322 20.9734 18.3287 21.6084 18.9573L21.6884 19.0381L24.0021 21.3945L26.3151 19.0381C26.9463 18.3923 27.6998 17.8793 28.5314 17.5295C29.363 17.1796 30.2559 16.9998 31.1577 17.0007C32.0595 17.0016 32.9521 17.1831 33.783 17.5346C34.6139 17.8861 35.3664 18.3999 35.9963 19.047ZM27.4815 20.1091L27.4193 20.1714L20.2441 27.4798C19.8014 27.9328 19.273 28.2926 18.6897 28.5381C18.1065 28.7835 17.4802 28.9096 16.8477 28.9091C16.2152 28.9085 15.5892 28.7812 15.0064 28.5346C14.4236 28.2881 13.8958 27.9273 13.454 27.4734C11.5801 25.558 11.5807 22.4419 13.454 20.5265C13.8911 20.0775 14.4124 19.7195 14.9879 19.4732C15.5634 19.2269 16.1817 19.0971 16.8074 19.0912C17.4331 19.0854 18.0538 19.2036 18.6338 19.4391C19.2138 19.6746 19.7416 20.0228 20.187 20.4635L20.2441 20.5208L21.8178 22.1231C21.9117 22.2185 22.064 22.2185 22.158 22.1225C22.2 22.0791 22.225 22.0219 22.2281 21.9615C22.2313 21.9011 22.2124 21.8416 22.1751 21.7941L22.1573 21.7744L20.5836 20.1714C20.0965 19.673 19.5151 19.2772 18.8735 19.0072C18.2318 18.7372 17.5428 18.5984 16.8469 18.5991C16.1511 18.5997 15.4623 18.7397 14.8212 19.011C14.18 19.2822 13.5993 19.6791 13.1133 20.1784C11.0521 22.286 11.0521 25.7146 13.1133 27.8209C13.5997 28.3212 14.1812 28.7187 14.8234 28.9901C15.4655 29.2615 16.1554 29.4011 16.8522 29.4009C18.2239 29.4014 19.5407 28.8603 20.5176 27.8947L20.5842 27.8285L27.7594 20.5202C28.2021 20.0671 28.7305 19.7073 29.3138 19.4619C29.897 19.2164 30.5233 19.0903 31.1558 19.0909C31.7883 19.0915 32.4143 19.2188 32.9971 19.4653C33.5799 19.7118 34.1076 20.0726 34.5495 20.5265C36.4227 22.4419 36.4227 25.558 34.5495 27.4734C34.1124 27.9224 33.5911 28.2804 33.0156 28.5267C32.4401 28.773 31.8218 28.9028 31.1961 28.9087C30.5704 28.9145 29.9497 28.7963 29.3697 28.5608C28.7897 28.3253 28.2619 27.9772 27.8165 27.5364L27.7594 27.4791L26.1571 25.8476C26.1349 25.8247 26.1084 25.8066 26.0791 25.7942C26.0498 25.7819 26.0184 25.7755 25.9866 25.7756C25.9548 25.7756 25.9234 25.7821 25.8941 25.7946C25.8649 25.807 25.8384 25.8253 25.8163 25.8482C25.7744 25.8915 25.7496 25.9486 25.7465 26.0088C25.7433 26.0691 25.762 26.1285 25.7992 26.1759L25.817 26.1963L27.4193 27.8285C27.9063 28.327 28.4878 28.7229 29.1295 28.993C29.7712 29.2631 30.4603 29.4019 31.1562 29.4012C31.8522 29.4006 32.541 29.2605 33.1822 28.9892C33.8234 28.7179 34.4041 28.3209 34.8902 27.8215C36.9514 25.7139 36.9514 22.2854 34.8902 20.1791C34.4093 19.6849 33.8358 19.291 33.2025 19.0199C32.5693 18.7488 31.8889 18.6059 31.2004 18.5994C30.5119 18.5929 29.8289 18.7229 29.1906 18.982C28.5524 19.2411 27.9716 19.6241 27.4815 20.1091ZM28.9118 21.6057L28.8642 21.6535L26.5607 23.9996L28.8642 26.3465C29.1627 26.652 29.519 26.8947 29.9123 27.0602C30.3056 27.2257 30.7279 27.3108 31.1544 27.3104C31.5809 27.3099 32.0031 27.2241 32.396 27.0578C32.789 26.8915 33.1449 26.6481 33.4427 26.342C34.7056 25.0502 34.7056 22.9491 33.4427 21.6579C33.1489 21.3558 32.7985 21.1147 32.4116 20.9486C32.0247 20.7824 31.6089 20.6944 31.1881 20.6895C30.7672 20.6847 30.3495 20.7631 29.959 20.9203C29.5684 21.0775 29.2125 21.3105 28.9118 21.6057ZM16.8522 20.6894C16.0176 20.6889 15.216 21.0157 14.6185 21.6L14.5614 21.6579C13.9493 22.2824 13.6079 23.124 13.6114 23.9996C13.6114 24.8842 13.9484 25.7165 14.5607 26.342C14.8547 26.6441 15.2051 26.8851 15.592 27.0512C15.9788 27.2173 16.3946 27.3053 16.8154 27.3102C17.2362 27.315 17.6539 27.2366 18.0445 27.0794C18.4351 26.9223 18.7909 26.6894 19.0917 26.3942L19.1393 26.3465L21.4428 23.9996L19.1393 21.6535C18.8412 21.3483 18.4853 21.1059 18.0926 20.9405C17.6999 20.7751 17.2782 20.6893 16.8522 20.6894Z" fill="currentColor"/>
</svg>
