<svg viewBox="0 0 48 48" fill="none" xmlns="http://www.w3.org/2000/svg">
  <path d="M3.48364 12.3091H0.3V20.5574H1.32965V17.3877H3.48364C4.02805 17.3877 4.50145 17.2934 4.91568 17.0813C5.32991 16.8692 5.64945 16.5747 5.88616 16.1858C6.11102 15.8087 6.22937 15.361 6.22937 14.8425C6.22937 14.3358 6.11102 13.888 5.88616 13.511C5.66129 13.1339 5.34174 12.8393 4.92751 12.6272C4.50145 12.4151 4.02805 12.3091 3.48364 12.3091ZM1.32965 16.445V13.2517H3.40079C3.9452 13.2517 4.37127 13.4049 4.69081 13.6877C5.01036 13.9705 5.17605 14.3594 5.17605 14.8425C5.17605 15.3374 5.01036 15.7263 4.69081 16.0091C4.35943 16.3036 3.93337 16.445 3.38895 16.445H1.32965Z" fill="currentColor"/>
</svg>
