<svg viewBox="0 0 48 48" fill="none" xmlns="http://www.w3.org/2000/svg">
  <path d="M24.6778 17.859H23.66C23.6837 18.4011 23.8257 18.8842 24.0861 19.3084C24.3464 19.7326 24.7252 20.0507 25.2104 20.2864C25.6838 20.5221 26.2519 20.6281 26.9028 20.6281C27.4709 20.6281 27.9798 20.5339 28.4295 20.3218C28.8793 20.1215 29.2225 19.8386 29.471 19.4616C29.7196 19.0963 29.8497 18.6721 29.8497 18.2008C29.8497 17.482 29.6012 16.9635 29.1041 16.6336C28.6071 16.3036 27.9443 16.068 27.1158 15.9266C26.5951 15.8441 26.1809 15.7616 25.885 15.6673C25.5773 15.5731 25.3406 15.4435 25.1512 15.2667C24.9619 15.0899 24.8672 14.8425 24.8672 14.5243C24.8672 14.1001 25.021 13.7584 25.3524 13.5228C25.672 13.2871 26.1099 13.1575 26.6661 13.1575C27.2105 13.1575 27.6721 13.3107 28.0508 13.5935C28.4177 13.888 28.6307 14.2769 28.7017 14.7482H29.7196C29.6841 14.2533 29.542 13.8173 29.2817 13.4403C29.0213 13.0632 28.6662 12.7568 28.2165 12.5447C27.7668 12.3326 27.246 12.2266 26.6661 12.2266C26.1099 12.2266 25.6128 12.3326 25.1867 12.5212C24.7607 12.7215 24.4293 13.0043 24.1926 13.3578C23.9559 13.7113 23.8375 14.1237 23.8375 14.5833C23.8375 15.3138 24.0742 15.8323 24.5713 16.1505C25.0565 16.4804 25.7193 16.7043 26.5478 16.8457C27.0685 16.9399 27.4709 17.0224 27.7786 17.1167C28.0863 17.211 28.3349 17.3406 28.5242 17.5291C28.7136 17.7176 28.8201 17.9769 28.8201 18.295C28.8201 18.7428 28.6426 19.0845 28.2875 19.332C27.9325 19.5794 27.4827 19.6972 26.9146 19.6972C26.2756 19.6972 25.7548 19.5323 25.3524 19.2023C24.9382 18.8724 24.7133 18.4246 24.6778 17.859Z" fill="currentColor"/>
</svg>
