<svg viewBox="0 0 48 48" fill="none" xmlns="http://www.w3.org/2000/svg">
  <path d="M17.1484 33.499L14.5049 33.4932L14.5 27.2734C14.4997 27.0143 14.5566 26.7584 14.666 26.5234C14.7754 26.2884 14.9351 26.0798 15.1338 25.9131L17.1475 24.2236L17.1484 33.499ZM25.4229 29.5449C26.2067 30.117 27.1063 30.5147 28.0615 30.7119L28.0625 33.499H25.4248L25.4229 29.5449ZM22.6035 23.8047C22.5999 23.9342 22.5999 24.0638 22.6035 24.1934L22.6045 29.4219V29.6299L22.6064 29.6318L22.6074 33.499H19.9688V32.4727L19.9658 22.6846C19.9658 22.4258 20.0225 22.1701 20.1318 21.9355C20.2412 21.701 20.4003 21.4926 20.5986 21.3262L20.5996 21.3271L22.6025 19.6465L22.6035 23.8047ZM28.0576 17.7041L28.0586 19.5488L28.0596 23.9131H28.0605C28.0506 24.1033 28.0776 24.2937 28.1436 24.4727C28.2141 24.664 28.3254 24.8374 28.4697 24.9814C28.6113 25.1234 28.7812 25.2339 28.9688 25.3047C29.1568 25.3756 29.3581 25.4049 29.5586 25.3916H29.5605C29.7858 25.3757 30.0045 25.306 30.1973 25.1885C30.3899 25.071 30.5517 24.9086 30.6689 24.7158C30.786 24.523 30.8556 24.3051 30.8711 24.0801C30.8822 23.9187 30.8637 23.7574 30.8203 23.6025L31.0234 23.4336L32.8916 21.8652C33.2968 22.5153 33.5099 23.2709 33.5 24.0439V24.0469C33.4954 24.5781 33.3854 25.1031 33.1768 25.5918C32.9681 26.0806 32.664 26.5235 32.2832 26.8945C31.9025 27.2655 31.4522 27.5577 30.958 27.7539C30.4637 27.9501 29.9352 28.0469 29.4033 28.0381H29.4014C28.832 28.0301 28.2711 27.9012 27.7549 27.6611C27.2386 27.421 26.7789 27.0747 26.4062 26.6445L26.4053 26.6436C25.8044 25.9518 25.458 25.0761 25.4229 24.1611V23.832L25.4209 19.5459V18.1104C25.4208 17.8516 25.4775 17.5959 25.5869 17.3613C25.6963 17.1267 25.8553 16.9185 26.0537 16.752L28.0566 15.0713L28.0576 17.7041Z" fill="currentColor"/>
</svg>
