<svg viewBox="0 0 48 48" fill="none" xmlns="http://www.w3.org/2000/svg">
  <path d="M20.9403 4.08671C20.1921 3.4118 19.2785 2.89089 18.2007 2.52348C18.6562 2.85699 19.0827 3.22756 19.4796 3.63677C20.4888 4.66623 21.282 5.91198 21.8602 7.37508C22.4373 8.83766 22.7356 10.46 22.753 12.2409C22.7711 14.0333 22.5004 15.6633 21.9411 17.1324C21.3818 18.6016 20.5973 19.8552 19.5876 20.8936C18.6096 21.9218 17.4695 22.7176 16.1683 23.2818C14.8663 23.8458 13.4774 24.1355 12.0006 24.1502C10.6933 24.1633 9.46676 23.9712 8.32036 23.5759C7.15082 23.27 6.06354 22.7707 5.09375 22.1126C5.10111 22.1183 5.10847 22.1249 5.11583 22.1307C7.12007 23.7378 9.5372 24.5273 12.3672 24.4992C15.8467 24.4645 18.652 22.9099 20.7818 19.836C22.6292 17.1766 23.5367 14.2199 23.5044 10.966C23.4739 7.89441 22.6192 5.60185 20.9403 4.08671Z" fill="currentColor"/>
</svg>
