<svg viewBox="0 0 48 48" fill="none" xmlns="http://www.w3.org/2000/svg">
  <path d="M12.3294 20.6213C10.6424 20.6381 9.22321 20.2328 8.07049 19.4062C7.01922 18.8835 6.12144 18.0932 5.46781 17.125C5.75297 18.1213 6.14956 19.0189 6.65916 19.8173C7.24314 20.7456 7.97377 21.4673 8.85132 21.9837C9.7286 22.4999 10.7741 22.7522 11.987 22.7403C13.1253 22.729 14.1492 22.4539 15.0588 21.914C15.9684 21.3747 16.7056 20.6247 17.2707 19.6638C17.857 18.6927 18.2794 17.596 18.5385 16.3731C18.625 15.9654 18.6946 15.5407 18.7506 15.1016C18.4512 15.9281 18.0523 16.7155 17.5527 17.4635C16.17 19.5479 14.4291 20.6005 12.3294 20.6213Z" fill="currentColor"/>
</svg>
