<svg viewBox="0 0 48 48" fill="none" xmlns="http://www.w3.org/2000/svg">
  <path d="M12.3415 1.92692C13.2537 1.98816 14.0797 2.22443 14.8188 2.63626C15.6432 3.09646 16.3413 3.72932 16.9124 4.53485C19.7293 6.41111 21.5871 9.60933 21.6236 13.2714C21.6823 19.147 17.0283 23.8653 11.1525 23.9234C10.1706 23.9331 9.2213 23.812 8.32062 23.576C9.46677 23.9712 10.6933 24.1631 12.0009 24.1502C13.4776 24.1355 14.8666 23.8456 16.1686 23.2819C17.4698 22.7176 18.6097 21.9215 19.5879 20.8936C20.5976 19.8553 21.3821 18.6014 21.9411 17.1322C22.5007 15.6633 22.7711 14.0331 22.7532 12.2409C22.7356 10.4601 22.4376 8.8377 21.8602 7.37486C21.2822 5.91202 20.4888 4.66626 19.4798 3.63681C19.083 3.2276 18.6564 2.85677 18.201 2.52352C16.8611 2.06621 15.2674 1.8465 13.4185 1.86516C13.0524 1.86857 12.6939 1.88986 12.3415 1.92692Z" fill="currentColor"/>
</svg>
