<svg viewBox="0 0 48 48" fill="none" xmlns="http://www.w3.org/2000/svg">
  <path d="M8.00184 3.21287C8.17162 3.07331 8.34824 2.94138 8.53273 2.81838C9.42 2.22625 10.5023 1.92349 11.7796 1.91061C11.9704 1.90877 12.1578 1.91481 12.3415 1.9269C12.6939 1.89011 13.0524 1.86856 13.4185 1.86488C15.2674 1.84675 16.8611 2.06646 18.201 2.52324C17.5345 2.03545 16.8057 1.62756 16.0136 1.30166C14.6795 0.753163 13.2637 0.485615 11.7654 0.500596C10.3204 0.514788 8.93905 0.804675 7.62155 1.36894C6.30431 1.93347 5.15133 2.74006 4.16287 3.78923C3.16364 4.84943 2.38465 6.10018 1.82538 7.54278C1.61486 8.08497 1.44534 8.65529 1.31656 9.25293C2.52026 6.35827 4.96 4.12143 8.00184 3.21287Z" fill="currentColor"/>
</svg>
