<svg viewBox="0 0 48 48" fill="none" xmlns="http://www.w3.org/2000/svg">
  <path d="M21.625 13.2715C21.5885 9.60943 19.7307 6.41121 16.9138 4.53496C16.9577 4.59672 17.001 4.65901 17.0433 4.72313C17.4486 5.34154 17.789 6.04984 18.0652 6.84722C18.9493 7.62937 19.4027 9.01441 19.4224 11.0034C19.4368 12.4623 19.2129 13.8284 18.7519 15.1015C18.6959 15.5407 18.626 15.9654 18.5398 16.373C18.2804 17.5959 17.8581 18.6927 17.272 19.6638C16.7069 20.6246 15.9695 21.3747 15.0601 21.914C14.1505 22.4538 13.1266 22.7287 11.9883 22.74C10.7754 22.7521 9.72993 22.4998 8.85239 21.9834C7.97484 21.4672 7.24447 20.7453 6.66049 19.8172C6.15089 19.0188 5.75403 18.1213 5.46888 17.125C4.75691 16.0705 4.33456 14.8051 4.32115 13.4437C4.31117 12.4295 4.52904 11.4591 4.92669 10.5842C4.98398 9.86068 5.07886 9.15555 5.21473 8.46959C5.46283 7.2149 5.84839 6.11791 6.37139 5.17912C6.60845 4.75914 6.87626 4.37516 7.1743 4.02641C6.33223 4.68976 5.5514 5.50423 4.83233 6.47245C2.82283 9.1721 1.83438 12.1488 1.86671 15.4022C1.87617 16.3531 2.01047 17.2416 2.2696 18.069C2.77921 19.146 3.41391 20.0861 4.17503 20.8877C5.14167 21.9282 6.29465 22.7358 7.63397 23.3109C7.85999 23.4079 8.08943 23.4956 8.32202 23.5761C9.22296 23.8118 10.172 23.9332 11.1539 23.9235C17.0294 23.8654 21.6836 19.1471 21.625 13.2715Z" fill="currentColor"/>
</svg>
