<svg viewBox="0 0 48 48" fill="none" xmlns="http://www.w3.org/2000/svg">
  <path d="M5.21399 8.46945C5.07811 9.15541 4.98323 9.86081 4.92594 10.5843C5.89862 8.44238 7.94886 6.87231 10.3747 6.62448C11.3153 6.04838 12.3426 5.75429 13.4562 5.74299C15.6418 5.72117 17.1677 6.08018 18.0339 6.81896C18.0445 6.8279 18.0542 6.83815 18.0647 6.84708C17.7885 6.0497 17.4479 5.34167 17.0429 4.72299C17.0003 4.65913 16.9572 4.59684 16.9133 4.53508C15.21 3.4005 13.1566 2.74897 10.9426 2.77105C10.1662 2.77894 9.41196 2.86961 8.68711 3.03387C8.16227 3.31429 7.65766 3.64544 7.17381 4.02653C6.87552 4.37529 6.6077 4.75926 6.37064 5.17898C5.84764 6.11829 5.46208 7.21529 5.21399 8.46945Z" fill="currentColor"/>
</svg>
