<svg viewBox="0 0 48 48" fill="none" xmlns="http://www.w3.org/2000/svg">
  <path d="M13.4554 5.74309C12.3416 5.75412 11.3145 6.04848 10.3739 6.62457C10.5734 6.60434 10.7755 6.59225 10.98 6.59041C14.6815 6.55361 17.7675 9.60781 17.8043 13.3096C17.8413 17.0111 14.816 20.0677 11.1143 20.1045C10.0233 20.1155 8.98833 19.8627 8.07031 19.4062C9.22303 20.2327 10.6422 20.6382 12.3293 20.6212C14.4289 20.6001 16.1701 19.5478 17.5525 17.4637C18.0521 16.7154 18.4511 15.928 18.7504 15.1015C18.8624 14.2234 18.9147 13.2836 18.9047 12.2793C18.8894 10.7308 18.7231 9.31083 18.4074 8.01934C18.3068 7.60935 18.1922 7.21854 18.0637 6.84718C18.0534 6.83824 18.0437 6.82799 18.0332 6.81932C17.1669 6.08028 15.6408 5.72127 13.4554 5.74309Z" fill="currentColor"/>
</svg>
