<svg viewBox="0 0 48 48" fill="none" xmlns="http://www.w3.org/2000/svg">
  <path d="M23.1254 12.0004C23.2349 12.0014 2.3396 12.0454 23.4171 12.1228C23.4946 12.2003 23.5385 12.305 23.5396 12.4146V13.1617C23.5404 13.216 23.5299 13.27 23.5086 13.32C23.4872 13.37 23.4556 13.415 23.4157 13.452C23.3384 13.5285 23.2341 13.5716 23.1254 13.572H22.3744C22.3176 13.5745 22.2609 13.5655 22.2077 13.5455C22.1545 13.5255 22.1059 13.4951 22.0647 13.4558C21.9928 13.3752 21.9554 13.2696 21.9602 13.1617V12.4146C21.9562 12.3068 21.9936 12.2015 22.0647 12.1204C22.1056 12.0805 22.154 12.0493 22.2073 12.0286C22.2605 12.008 22.3174 11.9984 22.3744 12.0004H23.1254ZM20.648 12.0004C20.7568 12.0007 20.861 12.0438 20.9383 12.1204C20.978 12.1581 21.0092 12.2039 21.0299 12.2546C21.0506 12.3053 21.0602 12.3598 21.0583 12.4146V13.1617C21.0597 13.2157 21.0497 13.2695 21.0291 13.3195C21.0084 13.3695 20.9775 13.4147 20.9383 13.452C20.861 13.5285 20.7568 13.5716 20.648 13.572H19.897C19.7871 13.5718 19.6815 13.5288 19.6028 13.452C19.5263 13.3747 19.4832 13.2704 19.4828 13.1617V12.4146C19.483 12.3046 19.526 12.1991 19.6028 12.1204C19.6815 12.0436 19.7871 12.0005 19.897 12.0004H20.648ZM28.1072 12.0004C28.2159 12.0007 28.3202 12.0438 28.3975 12.1204C28.4743 12.1991 28.5174 12.3046 28.5175 12.4146V13.1617C28.5175 13.2705 28.4743 13.3748 28.3973 13.4518C28.3204 13.5287 28.216 13.572 28.1072 13.572H27.3562C27.302 13.5725 27.2483 13.5622 27.198 13.5419C27.1478 13.5215 27.1021 13.4913 27.0636 13.4532C27.0251 13.415 26.9945 13.3696 26.9737 13.3196C26.9528 13.2695 26.9421 13.2159 26.9421 13.1617V12.4146C26.9422 12.3046 26.9853 12.1991 27.0621 12.1204C27.1008 12.082 27.1467 12.0516 27.1972 12.031C27.2477 12.0105 27.3017 12 27.3562 12.0004H28.1072ZM25.6259 12.0004C25.6831 11.9979 25.7401 12.0073 25.7933 12.028C25.8466 12.0486 25.8951 12.0801 25.9356 12.1204C26.0124 12.1991 26.0555 12.3046 26.0556 12.4146V13.1617C26.0562 13.2175 26.0454 13.2729 26.0238 13.3245C26.0022 13.376 25.9703 13.4226 25.9301 13.4614C25.8899 13.5002 25.8422 13.5303 25.7898 13.55C25.7376 13.5697 25.6818 13.5785 25.6259 13.5758H24.875C24.8208 13.5758 24.7671 13.5651 24.7171 13.5442C24.667 13.5234 24.6216 13.4928 24.5835 13.4543C24.5453 13.4158 24.5152 13.3701 24.4948 13.3199C24.4744 13.2696 24.4642 13.2159 24.4647 13.1617V12.4146C24.4648 12.3046 24.5079 12.1991 24.5847 12.1204C24.662 12.0438 24.7662 12.0007 24.875 12.0004H25.6259ZM23.1254 14.4778C23.2349 14.4788 23.3396 14.5227 23.4171 14.6002C23.4946 14.6776 23.5385 14.7824 23.5396 14.8919V15.6429C23.5404 15.6973 23.5299 15.7512 23.5086 15.8013C23.4872 15.8513 23.4556 15.8962 23.4157 15.9332C23.3384 16.0098 23.2341 16.0529 23.1254 16.0532H22.3744C22.2644 16.0531 22.1589 16.01 22.0802 15.9332C22.0036 15.856 21.9606 15.7517 21.9602 15.6429V14.8919C21.9597 14.8374 21.97 14.7833 21.9907 14.7328C22.0113 14.6824 22.0418 14.6365 22.0804 14.5979C22.1189 14.5594 22.1648 14.5289 22.2153 14.5082C22.2658 14.4876 22.3199 14.4772 22.3744 14.4778H23.1254ZM33.1123 14.4778C33.2211 14.4781 33.3253 14.5212 33.4026 14.5978C33.4794 14.6764 33.5225 14.782 33.5226 14.8919V15.6429C33.5226 15.7517 33.4793 15.8561 33.4024 15.933C33.3255 16.01 33.2211 16.0532 33.1123 16.0532H32.3613C32.2514 16.0531 32.1458 16.01 32.0671 15.9332C31.9905 15.856 31.9475 15.7517 31.9471 15.6429V14.8919C31.9466 14.8374 31.957 14.7833 31.9776 14.7328C31.9982 14.6824 32.0287 14.6365 32.0673 14.5979C32.1059 14.5594 32.1517 14.5289 32.2022 14.5082C32.2527 14.4876 32.3068 14.4772 32.3613 14.4778H33.1123ZM20.648 14.4778C20.7568 14.4781 20.861 14.5212 20.9383 14.5978C20.978 14.6355 21.0092 14.6813 21.0299 14.732C21.0506 14.7827 21.0602 14.8372 21.0583 14.8919V15.6429C21.0597 15.697 21.0497 15.7508 21.0291 15.8008C21.0084 15.8508 20.9775 15.8959 20.9383 15.9332C20.861 16.0098 20.7568 16.0529 20.648 16.0532H19.897C19.7871 16.0531 19.6815 16.01 19.6028 15.9332C19.5263 15.856 19.4832 15.7517 19.4828 15.6429V14.8919C19.4823 14.8374 19.4927 14.7833 19.5133 14.7328C19.534 14.6824 19.5644 14.6365 19.603 14.5979C19.6416 14.5594 19.6874 14.5289 19.7379 14.5082C19.7884 14.4876 19.8425 14.4772 19.897 14.4778H20.648ZM28.1072 14.4778C28.2159 14.4781 28.3202 14.5212 28.3975 14.5978C28.4743 14.6764 28.5174 14.782 28.5175 14.8919V15.6429C28.5175 15.7517 28.4743 15.8561 28.3973 15.933C28.3204 16.01 28.216 16.0532 28.1072 16.0532H27.3562C27.302 16.0537 27.2483 16.0435 27.198 16.0231C27.1478 16.0027 27.1021 15.9726 27.0636 15.9344C27.0251 15.8963 26.9945 15.8509 26.9737 15.8008C26.9528 15.7508 26.9421 15.6971 26.9421 15.6429V14.8919C26.9422 14.782 26.9853 14.6764 27.0621 14.5978C27.1008 14.5594 27.1467 14.529 27.1972 14.5084C27.2477 14.4878 27.3017 14.4774 27.3562 14.4778H28.1072ZM15.6429 14.4778C15.7517 14.4781 15.856 14.5212 15.9332 14.5978C16.01 14.6764 16.0531 14.782 16.0532 14.8919V15.6429C16.0532 15.7517 16.01 15.8561 15.933 15.933C15.8561 16.01 15.7517 16.0532 15.6429 16.0532H14.8919C14.782 16.0531 14.6764 16.01 14.5978 15.9332C14.5212 15.856 14.4781 15.7517 14.4778 15.6429V14.8919C14.4772 14.8374 14.4876 14.7833 14.5082 14.7328C14.5289 14.6824 14.5594 14.6365 14.5979 14.5979C14.6365 14.5594 14.6824 14.5289 14.7328 14.5082C14.7833 14.4876 14.8374 14.4772 14.8919 14.4778H15.6429ZM30.6078 14.4778C30.7173 14.4788 30.8221 14.5227 30.8995 14.6002C30.977 14.6776 31.021 14.7824 31.022 14.8919V15.6429C31.0229 15.6973 31.0123 15.7512 30.991 15.8013C30.9696 15.8513 30.938 15.8962 30.8981 15.9332C30.8608 15.9724 30.8157 16.0033 30.7657 16.024C30.7157 16.0446 30.6619 16.0546 30.6078 16.0532H29.8569C29.7481 16.0529 29.6438 16.0098 29.5665 15.9332C29.5266 15.8962 29.495 15.8513 29.4737 15.8013C29.4523 15.7512 29.4417 15.6973 29.4427 15.6429V14.8919C29.4437 14.7824 29.4876 14.6776 29.5651 14.6002C29.6425 14.5227 29.7473 14.4788 29.8569 14.4778H30.6078ZM18.1435 14.4778C18.198 14.4772 18.2521 14.4876 18.3026 14.5082C18.3531 14.5289 18.399 14.5594 18.4375 14.5979C18.4761 14.6365 18.5066 14.6824 18.5272 14.7328C18.5478 14.7833 18.5582 14.8374 18.5577 14.8919V15.6429C18.5574 15.7517 18.5143 15.856 18.4377 15.9332C18.359 16.01 18.2534 16.0531 18.1435 16.0532H17.3926C17.2837 16.0532 17.1794 16.01 17.1024 15.933C17.0255 15.8561 16.9822 15.7517 16.9822 15.6429V14.8919C16.9824 14.782 17.0254 14.6764 17.1022 14.5978C17.1795 14.5212 17.2838 14.4781 17.3926 14.4778H18.1435ZM25.6259 14.4778C25.6805 14.4774 25.7345 14.4878 25.785 14.5084C25.8355 14.529 25.8814 14.5594 25.9201 14.5978C25.9969 14.6764 26.04 14.782 26.0401 14.8919V15.6429C26.0401 15.6971 26.0294 15.7508 26.0085 15.8008C25.9877 15.8509 25.9571 15.8963 25.9186 15.9344C25.8801 15.9726 25.8344 16.0027 25.7841 16.0231C25.7339 16.0435 25.6801 16.0537 25.6259 16.0532H24.875C24.7662 16.0532 24.6618 16.01 24.5849 15.933C24.5079 15.8561 24.4647 15.7517 24.4647 15.6429V14.8919C24.4648 14.782 24.5079 14.6764 24.5847 14.5978C24.662 14.5212 24.7662 14.4781 24.875 14.4778H25.6259ZM20.648 16.9822C20.7568 16.9826 20.861 17.0256 20.9383 17.1022C20.9775 17.1396 21.0084 17.1846 21.0291 17.2347C21.0497 17.2847 21.0597 17.3384 21.0583 17.3926V18.1435C21.0602 18.1982 21.0506 18.2528 21.0299 18.3035C21.0092 18.3542 20.978 18.3999 20.9383 18.4377C20.861 18.5143 20.7568 18.5574 20.648 18.5577H19.897C19.8425 18.5582 19.7884 18.5478 19.7379 18.5272C19.6874 18.5066 19.6416 18.4761 19.603 18.4375C19.5644 18.399 19.534 18.3531 19.5133 18.3026C19.4927 18.2521 19.4823 18.198 19.4828 18.1435V17.3926C19.4832 17.2838 19.5263 17.1795 19.6028 17.1022C19.6815 17.0254 19.7871 16.9824 19.897 16.9822H20.648ZM15.6429 16.9822C15.7517 16.9822 15.8561 17.0255 15.933 17.1024C16.01 17.1794 16.0532 17.2837 16.0532 17.3926V18.1435C16.0531 18.2534 16.01 18.359 15.9332 18.4377C15.856 18.5143 15.7517 18.5574 15.6429 18.5577H14.8919C14.8374 18.5582 14.7833 18.5478 14.7328 18.5272C14.6824 18.5066 14.6365 18.4761 14.5979 18.4375C14.5594 18.399 14.5289 18.3531 14.5082 18.3026C14.4876 18.2521 14.4772 18.198 14.4778 18.1435V17.3926C14.4781 17.2838 14.5212 17.1795 14.5978 17.1022C14.6764 17.0254 14.782 16.9824 14.8919 16.9822H15.6429ZM23.1254 16.9822C23.2341 16.9826 23.3384 17.0256 23.4157 17.1022C23.4556 17.1392 23.4872 17.1842 23.5086 17.2342C23.5299 17.2842 23.5404 17.3382 23.5396 17.3926V18.1435C23.5385 18.253 23.4946 18.3578 23.4171 18.4353C23.3396 18.5127 23.2349 18.5567 23.1254 18.5577H22.3744C22.3199 18.5582 22.2658 18.5478 22.2153 18.5272C22.1648 18.5066 22.1189 18.4761 22.0804 18.4375C22.0418 18.399 22.0113 18.3531 21.9907 18.3026C21.97 18.2521 21.9597 18.198 21.9602 18.1435V17.3926C21.9606 17.2838 22.0036 17.1795 22.0802 17.1022C22.1589 17.0254 22.2644 16.9824 22.3744 16.9822H23.1254ZM30.6078 16.9822C30.6619 16.9808 30.7157 16.9908 30.7657 17.0114C30.8157 17.0321 30.8608 17.063 30.8981 17.1022C30.938 17.1392 30.9696 17.1842 30.991 17.2342C31.0123 17.2842 31.0229 17.3382 31.022 17.3926V18.1435C31.021 18.253 30.977 18.3578 30.8995 18.4353C30.8221 18.5127 30.7173 18.5567 30.6078 18.5577H29.8569C29.7473 18.5567 29.6425 18.5127 29.5651 18.4353C29.4876 18.3578 29.4437 18.253 29.4427 18.1435V17.3926C29.4417 17.3382 29.4523 17.2842 29.4737 17.2342C29.495 17.1842 29.5266 17.1392 29.5665 17.1022C29.6438 17.0256 29.7481 16.9826 29.8569 16.9822H30.6078ZM33.1123 16.9822C33.2211 16.9822 33.3255 17.0255 33.4024 17.1024C33.4793 17.1794 33.5226 17.2837 33.5226 17.3926V18.1435C33.5225 18.2534 33.4794 18.359 33.4026 18.4377C33.3253 18.5143 33.2211 18.5574 33.1123 18.5577H32.3613C32.3068 18.5582 32.2527 18.5478 32.2022 18.5272C32.1517 18.5066 32.1059 18.4761 32.0673 18.4375C32.0287 18.399 31.9982 18.3531 31.9776 18.3026C31.957 18.2521 31.9466 18.198 31.9471 18.1435V17.3926C31.9475 17.2838 31.9905 17.1795 32.0671 17.1022C32.1458 17.0254 32.2514 16.9824 32.3613 16.9822H33.1123ZM18.1435 16.9822C18.2534 16.9824 18.359 17.0254 18.4377 17.1022C18.5143 17.1795 18.5574 17.2838 18.5577 17.3926V18.1435C18.5582 18.198 18.5478 18.2521 18.5272 18.3026C18.5066 18.3531 18.4761 18.399 18.4375 18.4375C18.399 18.4761 18.3531 18.5066 18.3026 18.5272C18.2521 18.5478 18.198 18.5582 18.1435 18.5577H17.3926C17.2838 18.5574 17.1795 18.5143 17.1022 18.4377C17.0254 18.359 16.9824 18.2534 16.9822 18.1435V17.3926C16.9822 17.2837 17.0255 17.1794 17.1024 17.1024C17.1794 17.0255 17.2837 16.9822 17.3926 16.9822H18.1435ZM28.1072 16.9822C28.216 16.9822 28.3204 17.0255 28.3973 17.1024C28.4743 17.1794 28.5175 17.2837 28.5175 17.3926V18.1435C28.5174 18.2534 28.4743 18.359 28.3975 18.4377C28.3202 18.5143 28.2159 18.5574 28.1072 18.5577H27.3562C27.3017 18.558 27.2477 18.5476 27.1972 18.527C27.1467 18.5064 27.1008 18.4761 27.0621 18.4377C26.9853 18.359 26.9422 18.2534 26.9421 18.1435V17.3926C26.9421 17.3383 26.9528 17.2847 26.9737 17.2346C26.9945 17.1846 27.0251 17.1392 27.0636 17.101C27.1021 17.0629 27.1478 17.0327 27.198 17.0124C27.2483 16.992 27.302 16.9817 27.3562 16.9822H28.1072ZM25.6259 16.9822C25.6801 16.9817 25.7339 16.992 25.7841 17.0124C25.8344 17.0327 25.8801 17.0629 25.9186 17.101C25.9571 17.1392 25.9877 17.1846 26.0085 17.2346C26.0294 17.2847 26.0401 17.3383 26.0401 17.3926V18.1435C26.04 18.2534 25.9969 18.359 25.9201 18.4377C25.8814 18.4761 25.8355 18.5064 25.785 18.527C25.7345 18.5476 25.6805 18.558 25.6259 18.5577H24.875C24.7662 18.5574 24.662 18.5143 24.5847 18.4377C24.5079 18.359 24.4648 18.2534 24.4647 18.1435V17.3926C24.4647 17.2837 24.5079 17.1794 24.5849 17.1024C24.6618 17.0255 24.7662 16.9822 24.875 16.9822H25.6259ZM25.6259 19.4828C25.6805 19.4825 25.7345 19.4929 25.785 19.5135C25.8355 19.5341 25.8814 19.5644 25.9201 19.6028C25.9969 19.6815 26.04 19.7871 26.0401 19.897V20.648C26.0398 20.7568 25.9967 20.861 25.9201 20.9383C25.8824 20.978 25.8366 21.0092 25.7859 21.0299C25.7352 21.0506 25.6807 21.0602 25.6259 21.0583H24.875C24.8209 21.0597 24.7671 21.0497 24.7171 21.0291C24.6671 21.0084 24.622 20.9775 24.5847 20.9383C24.5081 20.861 24.465 20.7568 24.4647 20.648V19.897C24.4648 19.7871 24.5079 19.6815 24.5847 19.6028C24.662 19.5263 24.7662 19.4832 24.875 19.4828H25.6259ZM13.1617 19.4828C13.2704 19.4832 13.3747 19.5263 13.452 19.6028C13.5288 19.6815 13.5718 19.7871 13.572 19.897V20.648C13.5716 20.7568 13.5285 20.861 13.452 20.9383C13.4147 20.9775 13.3695 21.0084 13.3195 21.0291C13.2695 21.0497 13.2157 21.0597 13.1617 21.0583H12.4146C12.3598 21.0602 12.3053 21.0506 12.2546 21.0299C12.2039 21.0092 12.1581 20.978 12.1204 20.9383C12.0438 20.861 12.0007 20.7568 12.0004 20.648V19.897C12.0005 19.7871 12.0436 19.6815 12.1204 19.6028C12.1991 19.526 12.3046 19.483 12.4146 19.4828H13.1617ZM30.6039 19.4828C30.7135 19.4838 30.8182 19.5278 30.8957 19.6053C30.9731 19.6827 31.0171 19.7875 31.0181 19.897V20.648C31.019 20.7024 31.0085 20.7563 30.9871 20.8063C30.9658 20.8564 30.9341 20.9013 30.8942 20.9383C30.8569 20.9775 30.8118 21.0084 30.7618 21.0291C30.7118 21.0497 30.658 21.0597 30.6039 21.0583H29.8569C29.748 21.0573 29.6438 21.0139 29.5664 20.9372C29.4891 20.8606 29.4447 20.7568 29.4427 20.648V19.897C29.4437 19.7875 29.4876 19.6827 29.5651 19.6053C29.6425 19.5278 29.7473 19.4838 29.8569 19.4828H30.6039ZM33.1084 19.4828C33.2172 19.4832 33.3215 19.5263 33.3987 19.6028C33.4755 19.6815 33.5186 19.7871 33.5187 19.897V20.648C33.5184 20.7568 33.4753 20.861 33.3987 20.9383C33.3614 20.9775 33.3163 21.0084 33.2663 21.0291C33.2163 21.0497 33.1625 21.0597 33.1084 21.0583H32.3613C32.3066 21.0602 32.2521 21.0506 32.2013 21.0299C32.1506 21.0092 32.1049 20.978 32.0671 20.9383C31.9905 20.861 31.9475 20.7568 31.9471 20.648V19.897C31.9466 19.8425 31.957 19.7884 31.9776 19.7379C31.9982 19.6874 32.0287 19.6416 32.0673 19.603C32.1059 19.5644 32.1517 19.534 32.2022 19.5133C32.2527 19.4927 32.3068 19.4823 32.3613 19.4828H33.1084ZM35.5858 19.4828C35.6945 19.4832 35.7988 19.5263 35.8761 19.6028C35.9529 19.6815 35.9959 19.7871 35.9961 19.897V20.648C35.9958 20.7568 35.9527 20.861 35.8761 20.9383C35.8388 20.9775 35.7937 21.0084 35.7437 21.0291C35.6937 21.0497 35.6399 21.0597 35.5858 21.0583H34.8387C34.7839 21.0602 34.7294 21.0506 34.6787 21.0299C34.628 21.0092 34.5823 20.978 34.5445 20.9383C34.4679 20.861 34.4248 20.7568 34.4245 20.648V19.897C34.424 19.8425 34.4343 19.7884 34.455 19.7379C34.4756 19.6874 34.5061 19.6416 34.5447 19.603C34.5832 19.5644 34.6291 19.534 34.6796 19.5133C34.7301 19.4927 34.7841 19.4823 34.8387 19.4828H35.5858ZM23.1215 19.4828C23.231 19.4838 23.3358 19.5278 23.4132 19.6053C23.4907 19.6827 23.5346 19.7875 23.5357 19.897V20.648C23.5336 20.7568 23.4892 20.8606 23.4119 20.9372C23.3346 21.0139 23.2304 21.0573 23.1215 21.0583H22.3744C22.3197 21.0602 22.2651 21.0506 22.2144 21.0299C22.1637 21.0092 22.118 20.978 22.0802 20.9383C22.0036 20.861 21.9606 20.7568 21.9602 20.648V19.897C21.9597 19.8425 21.97 19.7884 21.9907 19.7379C22.0113 19.6874 22.0418 19.6416 22.0804 19.603C22.1189 19.5644 22.1648 19.534 22.2153 19.5133C22.2658 19.4927 22.3199 19.4823 22.3744 19.4828H23.1215ZM18.1396 19.4828C18.1942 19.4823 18.2483 19.4927 18.2988 19.5133C18.3492 19.534 18.3951 19.5644 18.4336 19.603C18.4722 19.6416 18.5027 19.6874 18.5233 19.7379C18.544 19.7884 18.5543 19.8425 18.5538 19.897V20.648C18.5535 20.7568 18.5104 20.861 18.4338 20.9383C18.3961 20.978 18.3503 21.0092 18.2996 21.0299C18.2489 21.0506 18.1944 21.0602 18.1396 21.0583H17.3926C17.3384 21.0597 17.2847 21.0497 17.2347 21.0291C17.1846 21.0084 17.1396 20.9775 17.1022 20.9383C17.0256 20.861 16.9826 20.7568 16.9822 20.648V19.897C16.9824 19.7871 17.0254 19.6815 17.1022 19.6028C17.1795 19.5263 17.2838 19.4832 17.3926 19.4828H18.1396ZM15.639 19.4828C15.7478 19.4832 15.8521 19.5263 15.9293 19.6028C16.0062 19.6815 16.0492 19.7871 16.0494 19.897V20.648C16.049 20.7568 16.0059 20.861 15.9293 20.9383C15.892 20.9775 15.8469 21.0084 15.7969 21.0291C15.7469 21.0497 15.6931 21.0597 15.639 21.0583H14.8919C14.8372 21.0602 14.7827 21.0506 14.732 21.0299C14.6813 21.0092 14.6355 20.978 14.5978 20.9383C14.5212 20.861 14.4781 20.7568 14.4778 20.648V19.897C14.4772 19.8425 14.4876 19.7884 14.5082 19.7379C14.5289 19.6874 14.5594 19.6416 14.5979 19.603C14.6365 19.5644 14.6824 19.534 14.7328 19.5133C14.7833 19.4927 14.8374 19.4823 14.8919 19.4828H15.639ZM25.6221 21.9602C25.6787 21.9552 25.7358 21.9618 25.7897 21.9798C25.8437 21.9978 25.8933 22.0267 25.9356 22.0647C26.0124 22.1434 26.0555 22.249 26.0556 22.3589V23.1099C26.0553 23.2186 26.0122 23.3229 25.9356 23.4002C25.8982 23.4406 25.8526 23.4725 25.8019 23.4939C25.7511 23.5152 25.6965 23.5255 25.6414 23.524H24.875C24.8206 23.525 24.7667 23.5144 24.7166 23.493C24.6666 23.4717 24.6217 23.4401 24.5847 23.4002C24.5081 23.3229 24.465 23.2186 24.4647 23.1099V22.3744C24.4648 22.2644 24.5079 22.1589 24.5847 22.0802C24.662 22.0036 24.7662 21.9606 24.875 21.9602H25.6221ZM30.6039 21.9602C30.7135 21.9612 30.8182 22.0052 30.8957 22.0826C30.9731 22.1601 31.0171 22.2648 31.0181 22.3744V23.1254C31.019 23.1797 31.0085 23.2337 30.9871 23.2837C30.9658 23.3338 30.9341 23.3787 30.8942 23.4157C30.8573 23.4556 30.8123 23.4872 30.7623 23.5086C30.7123 23.5299 30.6583 23.5404 30.6039 23.5396H29.8569C29.7476 23.5376 29.6434 23.4933 29.5661 23.416C29.4889 23.3388 29.4446 23.2346 29.4427 23.1254V22.3744C29.4437 22.2648 29.4876 22.1601 29.5651 22.0826C29.6425 22.0052 29.7473 21.9612 29.8569 21.9602H30.6039ZM35.5858 21.9602C35.6945 21.9606 35.7988 22.0036 35.8761 22.0802C35.9529 22.1589 35.9959 22.2644 35.9961 22.3744V23.1254C35.9958 23.2341 35.9527 23.3384 35.8761 23.4157C35.8391 23.4556 35.7941 23.4872 35.7441 23.5086C35.6941 23.5299 35.6401 23.5404 35.5858 23.5396H34.8387C34.7291 23.5385 34.6244 23.4946 34.5469 23.4171C34.4695 23.3396 34.4255 23.2349 34.4245 23.1254V22.3744C34.424 22.3199 34.4343 22.2658 34.455 22.2153C34.4756 22.1648 34.5061 22.1189 34.5447 22.0804C34.5832 22.0418 34.6291 22.0113 34.6796 21.9907C34.7301 21.97 34.7841 21.9597 34.8387 21.9602H35.5858ZM18.1396 21.9602C18.1942 21.9597 18.2483 21.97 18.2988 21.9907C18.3492 22.0113 18.3951 22.0418 18.4336 22.0804C18.4722 22.1189 18.5027 22.1648 18.5233 22.2153C18.544 22.2658 18.5543 22.3199 18.5538 22.3744V23.1254C18.5528 23.2349 18.5088 23.3396 18.4314 23.4171C18.3539 23.4946 18.2492 23.5385 18.1396 23.5396H17.3926C17.3382 23.5404 17.2842 23.5299 17.2342 23.5086C17.1842 23.4872 17.1392 23.4556 17.1022 23.4157C17.0256 23.3384 16.9826 23.2341 16.9822 23.1254V22.3744C16.9824 22.2644 17.0254 22.1589 17.1022 22.0802C17.1795 22.0036 17.2838 21.9606 17.3926 21.9602H18.1396ZM33.1084 21.9602C33.2172 21.9606 33.3215 22.0036 33.3987 22.0802C33.4755 22.1589 33.5186 22.2644 33.5187 22.3744V23.1254C33.5184 23.2341 33.4753 23.3384 33.3987 23.4157C33.3617 23.4556 33.3168 23.4872 33.2667 23.5086C33.2167 23.5299 33.1628 23.5404 33.1084 23.5396H32.3613C32.2518 23.5385 32.147 23.4946 32.0695 23.4171C31.9921 23.3396 31.9481 23.2349 31.9471 23.1254V22.3744C31.9466 22.3199 31.957 22.2658 31.9776 22.2153C31.9982 22.1648 32.0287 22.1189 32.0673 22.0804C32.1059 22.0418 32.1517 22.0113 32.2022 21.9907C32.2527 21.97 32.3068 21.9597 32.3613 21.9602H33.1084ZM13.1617 21.9602C13.2704 21.9606 13.3747 22.0036 13.452 22.0802C13.5288 22.1589 13.5718 22.2644 13.572 22.3744V23.1254C13.5716 23.2341 13.5285 23.3384 13.452 23.4157C13.415 23.4556 13.37 23.4872 13.32 23.5086C13.27 23.5299 13.216 23.5404 13.1617 23.5396H12.4146C12.305 23.5385 12.2003 23.4946 12.1228 23.4171C12.0454 23.3396 12.0014 23.2349 12.0004 23.1254V22.3744C11.9984 22.3174 12.008 22.2605 12.0286 22.2073C12.0493 22.154 12.0805 22.1056 12.1204 22.0647C12.1991 21.9879 12.3046 21.9449 12.4146 21.9447L13.1617 21.9602ZM15.639 21.9602C15.7478 21.9606 15.8521 22.0036 15.9293 22.0802C16.0062 22.1589 16.0492 22.2644 16.0494 22.3744V23.1254C16.049 23.2341 16.0059 23.3384 15.9293 23.4157C15.8924 23.4556 15.8474 23.4872 15.7974 23.5086C15.7474 23.5299 15.6934 23.5404 15.639 23.5396H14.8919C14.7824 23.5385 14.6776 23.4946 14.6002 23.4171C14.5227 23.3396 14.4788 23.2349 14.4778 23.1254V22.3744C14.4772 22.3199 14.4876 22.2658 14.5082 22.2153C14.5289 22.1648 14.5594 22.1189 14.5979 22.0804C14.6365 22.0418 14.6824 22.0113 14.7328 21.9907C14.7833 21.97 14.8374 21.9597 14.8919 21.9602H15.639ZM35.5897 24.4647C35.6985 24.4647 35.8028 24.5079 35.8798 24.5848C35.9567 24.6618 36 24.7662 36 24.875V25.6259C36.0005 25.6801 35.9902 25.7339 35.9699 25.7841C35.9495 25.8344 35.9193 25.8801 35.8811 25.9186C35.843 25.9571 35.7976 25.9877 35.7476 26.0085C35.6975 26.0294 35.6439 26.0401 35.5897 26.0401H34.8387C34.7287 26.04 34.6232 25.9969 34.5445 25.9201C34.5061 25.8814 34.4758 25.8355 34.4552 25.785C34.4346 25.7345 34.4241 25.6805 34.4245 25.6259V24.875C34.4248 24.7662 34.4679 24.662 34.5445 24.5847C34.6232 24.5079 34.7287 24.4648 34.8387 24.4647H35.5897ZM13.1617 24.4647C13.2705 24.4647 13.3748 24.5079 13.4518 24.5848C13.5287 24.6618 13.572 24.7662 13.572 24.875V25.6259C13.5725 25.6801 13.5622 25.7339 13.5419 25.7841C13.5215 25.8344 13.4913 25.8801 13.4532 25.9186C13.415 25.9571 13.3696 25.9877 13.3196 26.0085C13.2695 26.0294 13.2159 26.0401 13.1617 26.0401H12.4146C12.3068 26.0442 12.2015 26.0068 12.1204 25.9356C12.0801 25.8951 12.0486 25.8466 12.028 25.7933C12.0073 25.7401 11.9979 25.6831 12.0004 25.6259V24.875C12.0007 24.7662 12.0438 24.662 12.1204 24.5847C12.1991 24.5079 12.3046 24.4648 12.4146 24.4647H13.1617ZM23.1215 24.4647C23.2303 24.465 23.3346 24.5081 23.4118 24.5847C23.4517 24.6217 23.4833 24.6666 23.5047 24.7166C23.526 24.7667 23.5366 24.8206 23.5357 24.875V25.6259C23.5371 25.681 23.5268 25.7357 23.5055 25.7864C23.4841 25.8371 23.4522 25.8827 23.4118 25.9201C23.3346 25.9967 23.2303 26.0398 23.1215 26.0401H22.3744C22.3184 26.0442 22.2622 26.037 22.209 26.0191C22.1559 26.0011 22.1068 25.9727 22.0647 25.9356C22.0264 25.8969 21.996 25.851 21.9754 25.8005C21.9548 25.75 21.9444 25.6959 21.9447 25.6414V24.875C21.945 24.7662 21.9882 24.662 22.0647 24.5847C22.1434 24.5079 22.249 24.4648 22.3589 24.4647H23.1215ZM33.1084 24.4647C33.2172 24.4647 33.3216 24.5079 33.3985 24.5848C33.4755 24.6618 33.5187 24.7662 33.5187 24.875V25.6259C33.5192 25.6801 33.509 25.7339 33.4886 25.7841C33.4682 25.8344 33.4381 25.8801 33.3999 25.9186C33.3617 25.9571 33.3163 25.9877 33.2663 26.0085C33.2163 26.0294 33.1626 26.0401 33.1084 26.0401H32.3613C32.2514 26.04 32.1458 25.9969 32.0671 25.9201C32.0287 25.8814 31.9984 25.8355 31.9778 25.785C31.9572 25.7345 31.9468 25.6805 31.9471 25.6259V24.875C31.9475 24.7662 31.9905 24.662 32.0671 24.5847C32.1458 24.5079 32.2514 24.4648 32.3613 24.4647H33.1084ZM15.639 24.4647C15.7478 24.4647 15.8522 24.5079 15.9292 24.5848C16.0061 24.6618 16.0494 24.7662 16.0494 24.875V25.6259C16.0498 25.6801 16.0396 25.7339 16.0192 25.7841C15.9988 25.8344 15.9687 25.8801 15.9305 25.9186C15.8924 25.9571 15.847 25.9877 15.7969 26.0085C15.7469 26.0294 15.6932 26.0401 15.639 26.0401H14.8919C14.7841 26.0442 14.6788 26.0068 14.5978 25.9356C14.5594 25.8969 14.529 25.851 14.5084 25.8005C14.4878 25.75 14.4774 25.6959 14.4778 25.6414V24.875C14.4781 24.7662 14.5212 24.662 14.5978 24.5847C14.6764 24.5079 14.782 24.4648 14.8919 24.4647H15.639ZM30.6039 24.4647C30.658 24.4633 30.7118 24.4732 30.7618 24.4939C30.8118 24.5146 30.8569 24.5455 30.8942 24.5847C30.9341 24.6217 30.9658 24.6666 30.9871 24.7166C31.0085 24.7667 31.019 24.8206 31.0181 24.875V25.6259C31.0171 25.7355 30.9731 25.8403 30.8957 25.9177C30.8182 25.9952 30.7135 26.0391 30.6039 26.0401H29.8569C29.7481 26.0398 29.6438 25.9967 29.5665 25.9201C29.5261 25.8827 29.4942 25.8371 29.4729 25.7864C29.4515 25.7357 29.4412 25.681 29.4427 25.6259V24.875C29.4417 24.8206 29.4523 24.7667 29.4737 24.7166C29.495 24.6666 29.5266 24.6217 29.5665 24.5847C29.6438 24.5081 29.7481 24.465 29.8569 24.4647H30.6039ZM18.1396 24.4647C18.2496 24.4648 18.3551 24.5079 18.4338 24.5847C18.5104 24.662 18.5535 24.7662 18.5538 24.875V25.6259C18.5542 25.6805 18.5438 25.7345 18.5232 25.785C18.5026 25.8355 18.4722 25.8814 18.4338 25.9201C18.3551 25.9969 18.2496 26.04 18.1396 26.0401H17.3926C17.3383 26.0401 17.2847 26.0294 17.2346 26.0085C17.1846 25.9877 17.1392 25.9571 17.101 25.9186C17.0629 25.8801 17.0327 25.8344 17.0124 25.7841C16.992 25.7339 16.9817 25.6801 16.9822 25.6259V24.875C16.9822 24.7662 17.0255 24.6618 17.1024 24.5848C17.1794 24.5079 17.2837 24.4647 17.3926 24.4647H18.1396ZM25.6259 26.942C25.6805 26.9415 25.7346 26.9519 25.7851 26.9725C25.8355 26.9931 25.8814 27.0236 25.92 27.0622C25.9585 27.1008 25.989 27.1467 26.0097 27.1971C26.0303 27.2476 26.0406 27.3017 26.0401 27.3562V28.1072C26.0401 28.1614 26.0294 28.2151 26.0085 28.2651C25.9877 28.3151 25.9571 28.3605 25.9186 28.3987C25.8801 28.4369 25.8344 28.467 25.7841 28.4874C25.7339 28.5078 25.6801 28.518 25.6259 28.5175H24.875C24.7662 28.5175 24.6618 28.4743 24.5849 28.3973C24.5079 28.3204 24.4647 28.216 24.4647 28.1072V27.3562C24.4642 27.302 24.4744 27.2483 24.4948 27.198C24.5152 27.1478 24.5453 27.1021 24.5835 27.0636C24.6216 27.0251 24.667 26.9945 24.7171 26.9737C24.7671 26.9528 24.8208 26.942 24.875 26.942H25.6259ZM13.1617 26.942C13.2159 26.942 13.2695 26.9528 13.3196 26.9737C13.3696 26.9945 13.415 27.0251 13.4532 27.0636C13.4913 27.1021 13.5215 27.1478 13.5419 27.198C13.5622 27.2483 13.5725 27.302 13.572 27.3562V28.1072C13.572 28.216 13.5287 28.3204 13.4518 28.3973C13.3748 28.4743 13.2705 28.5175 13.1617 28.5175H12.4146C12.3046 28.5173 12.1991 28.4743 12.1204 28.3975C12.0438 28.3202 12.0007 28.2159 12.0004 28.1072V27.3562C12 27.3017 12.0105 27.2477 12.031 27.1972C12.0516 27.1467 12.082 27.1007 12.1204 27.062C12.1991 26.9852 12.3046 26.9422 12.4146 26.942H13.1617ZM35.5858 26.942C35.6403 26.9415 35.6944 26.9519 35.7449 26.9725C35.7954 26.9931 35.8412 27.0236 35.8798 27.0622C35.9184 27.1008 35.9489 27.1467 35.9695 27.1971C35.9901 27.2476 36.0005 27.3017 36 27.3562V28.1072C36 28.216 35.9567 28.3204 35.8798 28.3973C35.8028 28.4743 35.6985 28.5175 35.5897 28.5175H34.8387C34.7287 28.5173 34.6232 28.4743 34.5445 28.3975C34.4679 28.3202 34.4248 28.2159 34.4245 28.1072V27.3562C34.4241 27.3017 34.4346 27.2477 34.4552 27.1972C34.4758 27.1467 34.5061 27.1007 34.5445 27.062C34.6232 26.9852 34.7287 26.9422 34.8387 26.942H35.5858ZM23.1215 26.942C23.2303 26.9424 23.3346 26.9855 23.4118 27.062C23.4522 27.0995 23.4841 27.1451 23.5055 27.1958C23.5268 27.2465 23.5371 27.3012 23.5357 27.3562V28.1072C23.5366 28.1615 23.526 28.2155 23.5047 28.2655C23.4833 28.3156 23.4517 28.3605 23.4118 28.3975C23.3346 28.4741 23.2303 28.5172 23.1215 28.5175H22.3744C22.2644 28.5173 22.1589 28.4743 22.0802 28.3975C22.0036 28.3202 21.9606 28.2159 21.9602 28.1072V27.3562C21.9599 27.3017 21.9703 27.2477 21.9909 27.1972C22.0115 27.1467 22.0418 27.1007 22.0802 27.062C22.1589 26.9852 22.2644 26.9422 22.3744 26.942H23.1215ZM33.1084 26.942C33.1626 26.942 33.2163 26.9528 33.2663 26.9737C33.3163 26.9945 33.3617 27.0251 33.3999 27.0636C33.4381 27.1021 33.4682 27.1478 33.4886 27.198C33.509 27.2483 33.5192 27.302 33.5187 27.3562V28.1072C33.5187 28.216 33.4755 28.3204 33.3985 28.3973C33.3216 28.4743 33.2172 28.5175 33.1084 28.5175H32.3613C32.2514 28.5173 32.1458 28.4743 32.0671 28.3975C31.9905 28.3202 31.9475 28.2159 31.9471 28.1072V27.3562C31.9468 27.3017 31.9572 27.2477 31.9778 27.1972C31.9984 27.1467 32.0287 27.1007 32.0671 27.062C32.1458 26.9852 32.2514 26.9422 32.3613 26.942H33.1084ZM15.639 26.942C15.6932 26.942 15.7469 26.9528 15.7969 26.9737C15.847 26.9945 15.8924 27.0251 15.9305 27.0636C15.9687 27.1021 15.9988 27.1478 16.0192 27.198C16.0396 27.2483 16.0498 27.302 16.0494 27.3562V28.1072C16.0494 28.216 16.0061 28.3204 15.9292 28.3973C15.8522 28.4743 15.7478 28.5175 15.639 28.5175H14.8919C14.782 28.5173 14.6764 28.4743 14.5978 28.3975C14.5212 28.3202 14.4781 28.2159 14.4778 28.1072V27.3562C14.4774 27.3017 14.4878 27.2477 14.5084 27.1972C14.529 27.1467 14.5594 27.1007 14.5978 27.062C14.6764 26.9852 14.782 26.9422 14.8919 26.942H15.639ZM30.6039 26.942C30.7135 26.9431 30.8182 26.987 30.8957 27.0645C30.9731 27.1419 31.0171 27.2467 31.0181 27.3562V28.1072C31.019 28.1615 31.0085 28.2155 30.9871 28.2655C30.9658 28.3156 30.9341 28.3605 30.8942 28.3975C30.8569 28.4367 30.8118 28.4676 30.7618 28.4883C30.7118 28.5089 30.658 28.5189 30.6039 28.5175H29.8569C29.7481 28.5172 29.6438 28.4741 29.5665 28.3975C29.5266 28.3605 29.495 28.3156 29.4737 28.2655C29.4523 28.2155 29.4417 28.1615 29.4427 28.1072V27.3562C29.4412 27.3012 29.4515 27.2465 29.4729 27.1958C29.4942 27.1451 29.5261 27.0995 29.5665 27.062C29.6438 26.9855 29.7481 26.9424 29.8569 26.942H30.6039ZM18.1396 26.942C18.2496 26.9422 18.3551 26.9852 18.4338 27.062C18.4722 27.1007 18.5026 27.1467 18.5232 27.1972C18.5438 27.2477 18.5542 27.3017 18.5538 27.3562V28.1072C18.5535 28.2159 18.5104 28.3202 18.4338 28.3975C18.3551 28.4743 18.2496 28.5173 18.1396 28.5175H17.3926C17.2837 28.5175 17.1794 28.4743 17.1024 28.3973C17.0255 28.3204 16.9822 28.216 16.9822 28.1072V27.3562C16.9817 27.302 16.992 27.2483 17.0124 27.198C17.0327 27.1478 17.0629 27.1021 17.101 27.0636C17.1392 27.0251 17.1846 26.9945 17.2346 26.9737C17.2847 26.9528 17.3383 26.942 17.3926 26.942H18.1396ZM30.6039 29.4427C30.6583 29.4417 30.7123 29.4523 30.7623 29.4737C30.8123 29.495 30.8573 29.5266 30.8942 29.5665C30.9341 29.6035 30.9658 29.6485 30.9871 29.6985C31.0085 29.7485 31.019 29.8025 31.0181 29.8569V30.6078C31.0161 30.717 30.9719 30.8212 30.8946 30.8985C30.8173 30.9757 30.7131 31.02 30.6039 31.022H29.8569C29.8025 31.0229 29.7485 31.0123 29.6985 30.991C29.6485 30.9697 29.6035 30.938 29.5665 30.8981C29.5266 30.8611 29.495 30.8162 29.4737 30.7662C29.4523 30.7161 29.4417 30.6622 29.4427 30.6078V29.8569C29.4446 29.7476 29.4889 29.6434 29.5661 29.5662C29.6434 29.4889 29.7476 29.4446 29.8569 29.4427H30.6039ZM18.1396 29.4427C18.2492 29.4437 18.3539 29.4876 18.4314 29.5651C18.5088 29.6425 18.5528 29.7473 18.5538 29.8569V30.6078C18.5528 30.7173 18.5088 30.8221 18.4314 30.8995C18.3539 30.977 18.2492 31.021 18.1396 31.022H17.3926C17.3382 31.0229 17.2842 31.0123 17.2342 30.991C17.1842 30.9697 17.1392 30.938 17.1022 30.8981C17.063 30.8608 17.0321 30.8157 17.0114 30.7657C16.9908 30.7157 16.9808 30.6619 16.9822 30.6078V29.8569C16.9826 29.7481 17.0256 29.6438 17.1022 29.5665C17.1392 29.5266 17.1842 29.495 17.2342 29.4737C17.2842 29.4523 17.3382 29.4417 17.3926 29.4427H18.1396ZM25.6221 29.4427C25.6771 29.4412 25.7318 29.4515 25.7826 29.4729C25.8333 29.4942 25.8789 29.5261 25.9163 29.5665C25.9928 29.6438 26.0359 29.7481 26.0363 29.8569V30.6078C26.0353 30.7173 25.9913 30.8221 25.9138 30.8995C25.8364 30.977 25.7316 31.021 25.6221 31.022H24.875C24.8206 31.0229 24.7667 31.0123 24.7166 30.991C24.6666 30.9697 24.6217 30.938 24.5847 30.8981C24.5455 30.8608 24.5146 30.8157 24.4939 30.7657C24.4732 30.7157 24.4633 30.6619 24.4647 30.6078V29.8569C24.465 29.7481 24.5081 29.6438 24.5847 29.5665C24.6217 29.5266 24.6666 29.495 24.7166 29.4737C24.7667 29.4523 24.8206 29.4417 24.875 29.4427H25.6221ZM23.1215 29.4427C23.2307 29.4446 23.3349 29.4889 23.4122 29.5662C23.4894 29.6434 23.5337 29.7476 23.5357 29.8569V30.6078C23.5366 30.6622 23.526 30.7161 23.5047 30.7662C23.4833 30.8162 23.4517 30.8611 23.4118 30.8981C23.3748 30.938 23.3299 30.9697 23.2798 30.991C23.2298 31.0123 23.1759 31.0229 23.1215 31.022H22.3744C22.2648 31.021 22.1601 30.977 22.0826 30.8995C22.0052 30.8221 21.9612 30.7173 21.9602 30.6078V29.8569C21.9612 29.7473 22.0052 29.6425 22.0826 29.5651C22.1601 29.4876 22.2648 29.4437 22.3744 29.4427H23.1215ZM33.1084 29.4427C33.1628 29.4417 33.2167 29.4523 33.2667 29.4737C33.3168 29.495 33.3617 29.5266 33.3987 29.5665C33.4753 29.6438 33.5184 29.7481 33.5187 29.8569V30.6078C33.5201 30.6619 33.5101 30.7157 33.4895 30.7657C33.4688 30.8157 33.4379 30.8608 33.3987 30.8981C33.3617 30.938 33.3168 30.9697 33.2667 30.991C33.2167 31.0123 33.1628 31.0229 33.1084 31.022H32.3613C32.2518 31.021 32.147 30.977 32.0695 30.8995C31.9921 30.8221 31.9481 30.7173 31.9471 30.6078V29.8569C31.9481 29.7473 31.9921 29.6425 32.0695 29.5651C32.147 29.4876 32.2518 29.4437 32.3613 29.4427H33.1084ZM20.6441 29.4427C20.753 29.4447 20.8568 29.4891 20.9334 29.5664C21.01 29.6438 21.0534 29.748 21.0544 29.8569V30.6078C21.0558 30.6619 21.0459 30.7157 21.0252 30.7657C21.0045 30.8157 20.9736 30.8608 20.9344 30.8981C20.8974 30.938 20.8525 30.9697 20.8025 30.991C20.7524 31.0123 20.6985 31.0229 20.6441 31.022H19.897C19.7875 31.021 19.6827 30.977 19.6053 30.8995C19.5278 30.8221 19.4838 30.7173 19.4828 30.6078V29.8569C19.4838 29.7473 19.5278 29.6425 19.6053 29.5651C19.6827 29.4876 19.7875 29.4437 19.897 29.4427H20.6441ZM28.1033 29.4427C28.1577 29.4417 28.2117 29.4523 28.2617 29.4737C28.3117 29.495 28.3567 29.5266 28.3936 29.5665C28.4702 29.6438 28.5133 29.7481 28.5136 29.8569V30.6078C28.515 30.6619 28.5051 30.7157 28.4844 30.7657C28.4637 30.8157 28.4328 30.8608 28.3936 30.8981C28.3567 30.938 28.3117 30.9697 28.2617 30.991C28.2117 31.0123 28.1577 31.0229 28.1033 31.022H27.3562C27.2467 31.021 27.1419 30.977 27.0645 30.8995C26.987 30.8221 26.9431 30.7173 26.9421 30.6078V29.8569C26.9424 29.7481 26.9855 29.6438 27.0621 29.5665C27.0995 29.5261 27.1451 29.4942 27.1958 29.4729C27.2465 29.4515 27.3012 29.4412 27.3562 29.4427H28.1033ZM15.639 29.4427C15.6934 29.4417 15.7474 29.4523 15.7974 29.4737C15.8474 29.495 15.8924 29.5266 15.9293 29.5665C16.0059 29.6438 16.049 29.7481 16.0494 29.8569V30.6078C16.0508 30.6619 16.0408 30.7157 16.0201 30.7657C15.9994 30.8157 15.9685 30.8608 15.9293 30.8981C15.8924 30.938 15.8474 30.9697 15.7974 30.991C15.7474 31.0123 15.6934 31.0229 15.639 31.022H14.8919C14.7824 31.021 14.6776 30.977 14.6002 30.8995C14.5227 30.8221 14.4788 30.7173 14.4778 30.6078V29.8569C14.4788 29.7473 14.5227 29.6425 14.6002 29.5651C14.6776 29.4876 14.7824 29.4437 14.8919 29.4427H15.639ZM15.639 31.9471C15.7478 31.9475 15.8521 31.9906 15.9293 32.0671C16.0062 32.1458 16.0492 32.2513 16.0494 32.3613V33.1123C16.0494 33.2204 16.0066 33.3242 15.9305 33.4011C15.8544 33.4779 15.751 33.5215 15.6429 33.5226H14.8919C14.782 33.5224 14.6764 33.4794 14.5978 33.4026C14.5212 33.3253 14.4781 33.221 14.4778 33.1123V32.3613C14.4772 32.3068 14.4876 32.2527 14.5082 32.2022C14.5289 32.1517 14.5594 32.1058 14.5979 32.0673C14.6365 32.0287 14.6824 31.9982 14.7328 31.9776C14.7833 31.9569 14.8374 31.9466 14.8919 31.9471H15.639ZM30.6039 31.9471C30.7135 31.9481 30.8182 31.9921 30.8957 32.0695C30.9731 32.147 31.0171 32.2518 31.0181 32.3613V33.1123C31.019 33.1666 31.0085 33.2206 30.9871 33.2706C30.9658 33.3207 30.9341 33.3656 30.8942 33.4026C30.8569 33.4417 30.8118 33.4727 30.7618 33.4933C30.7118 33.514 30.658 33.524 30.6039 33.5226H29.8569C29.7481 33.5223 29.6438 33.4791 29.5665 33.4026C29.5266 33.3656 29.495 33.3207 29.4737 33.2706C29.4523 33.2206 29.4417 33.1666 29.4427 33.1123V32.3613C29.4437 32.2518 29.4876 32.147 29.5651 32.0695C29.6425 31.9921 29.7473 31.9481 29.8569 31.9471H30.6039ZM18.1396 31.9471C18.1942 31.9466 18.2483 31.9569 18.2988 31.9776C18.3492 31.9982 18.3951 32.0287 18.4336 32.0673C18.4722 32.1058 18.5027 32.1517 18.5233 32.2022C18.544 32.2527 18.5543 32.3068 18.5538 32.3613V33.1123C18.5535 33.221 18.5104 33.3253 18.4338 33.4026C18.3551 33.4794 18.2496 33.5224 18.1396 33.5226H17.3926C17.2837 33.5226 17.1794 33.4793 17.1024 33.4024C17.0255 33.3255 16.9822 33.2211 16.9822 33.1123V32.3613C16.9824 32.2513 17.0254 32.1458 17.1022 32.0671C17.1795 31.9906 17.2838 31.9475 17.3926 31.9471H18.1396ZM25.6221 31.9471C25.6766 31.9468 25.7307 31.9572 25.7811 31.9778C25.8316 31.9984 25.8775 32.0287 25.9163 32.0671C25.9931 32.1458 26.0361 32.2513 26.0363 32.3613V33.1123C26.0363 33.2211 25.993 33.3255 25.9161 33.4024C25.8391 33.4793 25.7348 33.5226 25.6259 33.5226H24.875C24.7662 33.5226 24.6618 33.4793 24.5849 33.4024C24.5079 33.3255 24.4647 33.2211 24.4647 33.1123V32.3613C24.4648 32.2513 24.5079 32.1458 24.5847 32.0671C24.662 31.9906 24.7662 31.9475 24.875 31.9471H25.6221ZM23.1215 31.9471C23.231 31.9481 23.3358 31.9921 23.4132 32.0695C23.4907 32.147 23.5346 32.2518 23.5357 32.3613V33.1123C23.5366 33.1666 23.526 33.2206 23.5047 33.2706C23.4833 33.3207 23.4517 33.3656 23.4118 33.4026C23.3346 33.4791 23.2303 33.5223 23.1215 33.5226H22.3744C22.2644 33.5224 22.1589 33.4794 22.0802 33.4026C22.0036 33.3253 21.9606 33.221 21.9602 33.1123V32.3613C21.9597 32.3068 21.97 32.2527 21.9907 32.2022C22.0113 32.1517 22.0418 32.1058 22.0804 32.0673C22.1189 32.0287 22.1648 31.9982 22.2153 31.9776C22.2658 31.9569 22.3199 31.9466 22.3744 31.9471H23.1215ZM33.1084 31.9471C33.2172 31.9475 33.3215 31.9906 33.3987 32.0671C33.4755 32.1458 33.5186 32.2513 33.5187 32.3613V33.1123C33.5187 33.2211 33.4755 33.3255 33.3985 33.4024C33.3216 33.4793 33.2172 33.5226 33.1084 33.5226H32.3613C32.2514 33.5224 32.1458 33.4794 32.0671 33.4026C31.9905 33.3253 31.9475 33.221 31.9471 33.1123V32.3613C31.9466 32.3068 31.957 32.2527 31.9776 32.2022C31.9982 32.1517 32.0287 32.1058 32.0673 32.0673C32.1059 32.0287 32.1517 31.9982 32.2022 31.9776C32.2527 31.9569 32.3068 31.9466 32.3613 31.9471H33.1084ZM20.6441 31.9471C20.7529 31.9475 20.8572 31.9906 20.9344 32.0671C20.9741 32.1049 21.0053 32.1506 21.026 32.2013C21.0467 32.2521 21.0564 32.3066 21.0544 32.3613V33.1123C21.0558 33.1663 21.0459 33.2201 21.0252 33.2701C21.0045 33.3201 20.9736 33.3653 20.9344 33.4026C20.8572 33.4791 20.7529 33.5223 20.6441 33.5226H19.897C19.7871 33.5224 19.6815 33.4794 19.6028 33.4026C19.5263 33.3253 19.4832 33.221 19.4828 33.1123V32.3613C19.4823 32.3068 19.4927 32.2527 19.5133 32.2022C19.534 32.1517 19.5644 32.1058 19.603 32.0673C19.6416 32.0287 19.6874 31.9982 19.7379 31.9776C19.7884 31.9569 19.8425 31.9466 19.897 31.9471H20.6441ZM28.1033 31.9471C28.2121 31.9475 28.3164 31.9906 28.3936 32.0671C28.4705 32.1458 28.5135 32.2513 28.5136 32.3613V33.1123C28.5136 33.2211 28.4704 33.3255 28.3935 33.4024C28.3165 33.4793 28.2121 33.5226 28.1033 33.5226H27.3562C27.302 33.5231 27.2483 33.5129 27.198 33.4925C27.1478 33.4721 27.1021 33.4419 27.0636 33.4038C27.0251 33.3656 26.9945 33.3202 26.9737 33.2702C26.9528 33.2202 26.9421 33.1665 26.9421 33.1123V32.3613C26.9422 32.2513 26.9853 32.1458 27.0621 32.0671C27.1008 32.0287 27.1467 31.9984 27.1972 31.9778C27.2477 31.9572 27.3017 31.9468 27.3562 31.9471H28.1033ZM25.6221 34.4245C25.6766 34.4241 25.7307 34.4346 25.7811 34.4552C25.8316 34.4758 25.8775 34.5061 25.9163 34.5445C25.9931 34.6232 26.0361 34.7287 26.0363 34.8387V35.5897C26.0363 35.6985 25.993 35.8028 25.9161 35.8798C25.8391 35.9567 25.7348 36 25.6259 36H24.875C24.7662 36 24.6618 35.9567 24.5849 35.8798C24.5079 35.8028 24.4647 35.6985 24.4647 35.5897V34.8387C24.4648 34.7287 24.5079 34.6232 24.5847 34.5445C24.662 34.4679 24.7662 34.4248 24.875 34.4245H25.6221ZM23.1215 34.4245C23.2317 34.4245 23.3374 34.468 23.4158 34.5456C23.494 34.6231 23.5385 34.7285 23.5396 34.8387V35.5897C23.5404 35.644 23.5299 35.698 23.5086 35.748C23.4872 35.798 23.4556 35.843 23.4157 35.88C23.3384 35.9565 23.2341 35.9996 23.1254 36H22.3744C22.2644 35.9998 22.1589 35.9568 22.0802 35.88C22.0036 35.8027 21.9606 35.6984 21.9602 35.5897V34.8387C21.9597 34.7841 21.97 34.7301 21.9907 34.6796C22.0113 34.6291 22.0418 34.5832 22.0804 34.5447C22.1189 34.5061 22.1648 34.4756 22.2153 34.455C22.2658 34.4343 22.3199 34.424 22.3744 34.4245H23.1215ZM20.6441 34.4245C20.7529 34.4248 20.8572 34.4679 20.9344 34.5445C20.9741 34.5823 21.0053 34.628 21.026 34.6787C21.0467 34.7294 21.0564 34.7839 21.0544 34.8387V35.5897C21.0558 35.6437 21.0459 35.6975 21.0252 35.7475C21.0045 35.7975 20.9736 35.8427 20.9344 35.88C20.8572 35.9565 20.7529 35.9996 20.6441 36H19.897C19.7871 35.9998 19.6815 35.9568 19.6028 35.88C19.5263 35.8027 19.4832 35.6984 19.4828 35.5897V34.8387C19.4823 34.7841 19.4927 34.7301 19.5133 34.6796C19.534 34.6291 19.5644 34.5832 19.603 34.5447C19.6416 34.5061 19.6874 34.4756 19.7379 34.455C19.7884 34.4343 19.8425 34.424 19.897 34.4245H20.6441ZM28.1033 34.4245C28.2121 34.4248 28.3164 34.4679 28.3936 34.5445C28.4705 34.6232 28.5135 34.7287 28.5136 34.8387V35.5897C28.5136 35.6978 28.4709 35.8016 28.3948 35.8784C28.3187 35.9553 28.2153 35.9989 28.1072 36H27.3562C27.302 36.0005 27.2483 35.9902 27.198 35.9698C27.1478 35.9495 27.1021 35.9193 27.0636 35.8812C27.0251 35.843 26.9945 35.7976 26.9737 35.7476C26.9528 35.6975 26.9421 35.6439 26.9421 35.5897V34.8387C26.9422 34.7287 26.9853 34.6232 27.0621 34.5445C27.1008 34.5061 27.1467 34.4758 27.1972 34.4552C27.2477 34.4346 27.3017 34.4241 27.3562 34.4245H28.1033Z" fill="currentColor"/>
</svg>
