<svg viewBox="0 0 48 48" fill="none" xmlns="http://www.w3.org/2000/svg">
  <path d="M19.6477 0.890669C18.3538 0.299632 17.1269 0.960472 16.6786 1.91296C16.0354 3.25095 16.6396 3.90015 16.3299 4.55092C16.0527 5.13187 13.9607 7.37347 12.9407 8.48806C11.8091 9.77644 10.7653 10.7111 10.0983 12.1111C9.67922 12.9914 10.2878 14.0502 12.8248 15.2075C15.3608 16.3654 16.5812 16.1412 17.0002 15.2617C17.6748 13.8447 17.7441 12.485 18.0137 10.8033C18.2346 9.46227 18.6331 6.3279 18.9168 5.73144C19.2482 5.03414 20.148 5.08455 20.7739 3.78303C21.2308 2.83288 20.9417 1.48093 19.6477 0.890669Z" fill="currentColor"/>
</svg>
