<svg viewBox="0 0 48 48" fill="none" xmlns="http://www.w3.org/2000/svg">
  <path d="M3.8379 0C2.40135 0 1.56756 1.12014 1.573 2.18293C1.56756 3.68009 2.40136 4.02257 2.40136 4.74996C2.40136 5.39879 1.46619 8.33264 1.0204 9.78343C0.549543 11.4393 0.000205457 12.7354 0.000205457 14.3002C0.000205457 15.2836 1.01713 16 3.83464 16C6.65105 16 7.66687 15.2836 7.66687 14.3002C7.66687 12.7165 7.14044 11.4393 6.65541 9.78343C6.27284 8.46068 5.27445 5.41684 5.27445 4.74996C5.27445 3.96995 6.11588 3.64003 6.12133 2.18293C6.12569 1.12014 5.27444 0 3.8379 0Z" fill="currentColor"/>
</svg>
