<svg viewBox="0 0 48 48" fill="none" xmlns="http://www.w3.org/2000/svg">
  <path d="M23.5674 18C24.7543 17.9987 25.9065 18.4146 26.8359 19.1787V18.1924C26.8358 18.1822 26.8381 18.1716 26.8418 18.1621C26.8454 18.153 26.8507 18.1447 26.8574 18.1377C26.8643 18.1305 26.8728 18.124 26.8818 18.1201C26.891 18.1162 26.9012 18.1143 26.9111 18.1143H28.7637C28.7736 18.1143 28.7838 18.1162 28.793 18.1201C28.802 18.124 28.8105 18.1296 28.8174 18.1367C28.8316 18.1514 28.8389 18.1717 28.8389 18.1924V28.7422C28.8388 28.7627 28.8314 28.7823 28.8174 28.7969C28.8033 28.8115 28.7837 28.8201 28.7637 28.8203H26.9111C26.8913 28.8203 26.8725 28.8114 26.8584 28.7969C26.8445 28.7823 26.836 28.7628 26.8359 28.7422V27.7471C25.9065 28.5113 24.7543 28.9272 23.5674 28.9258C20.6592 28.9257 18.2931 26.4751 18.293 23.4629C18.293 20.4506 20.6591 18.0001 23.5674 18ZM9.06738 18.1143C9.09275 18.1143 9.11746 18.1225 9.13867 18.1367C9.16001 18.1511 9.17722 18.1713 9.1875 18.1953L12.6875 26.3379L16.3398 18.1924C16.3506 18.169 16.3675 18.1486 16.3887 18.1348C16.4097 18.1211 16.4341 18.1143 16.459 18.1143H18.4658C18.4784 18.1143 18.4909 18.1178 18.502 18.124C18.5187 18.1337 18.5312 18.1493 18.5371 18.168C18.543 18.1866 18.5422 18.2068 18.5342 18.2246L13.8457 28.6846C13.8278 28.7248 13.799 28.7592 13.7627 28.7832C13.7264 28.8071 13.6838 28.8202 13.6406 28.8203H11.7061C11.6624 28.8202 11.6196 28.8068 11.583 28.7822C11.5466 28.7576 11.5178 28.7227 11.5 28.6816L7.00586 18.2236C7.00092 18.212 6.99907 18.1992 7 18.1865C7.001 18.1736 7.00484 18.1603 7.01172 18.1494C7.01848 18.1387 7.02813 18.1302 7.03906 18.124C7.05011 18.1178 7.0626 18.1142 7.0752 18.1143H9.06738ZM40.8486 18.1133C40.8684 18.1135 40.8874 18.1223 40.9014 18.1367C40.9153 18.1513 40.9238 18.1709 40.9238 18.1914V20.4785C40.9176 23.3456 40.1179 26.3461 38.6201 28.7578C38.608 28.7772 38.591 28.7928 38.5713 28.8037C38.5516 28.8147 38.5293 28.8205 38.5068 28.8203H36.2637C36.2494 28.8203 36.2347 28.8165 36.2227 28.8086C36.2108 28.8008 36.2013 28.7894 36.1953 28.7764C36.1893 28.7631 36.187 28.748 36.1885 28.7334C36.1903 28.7187 36.1961 28.7048 36.2051 28.6934C36.9798 27.6829 37.5989 26.5554 38.0605 25.3584C37.3163 25.7569 36.4882 25.9645 35.6484 25.9639C32.74 25.9637 30.374 23.5128 30.374 20.501V18.1924C30.3741 18.1719 30.3816 18.1523 30.3955 18.1377C30.4096 18.1231 30.4293 18.1143 30.4492 18.1143H32.3125C32.3324 18.1143 32.352 18.1231 32.3662 18.1377C32.38 18.1523 32.3877 18.1719 32.3877 18.1924V20.501C32.3877 20.944 32.4719 21.383 32.6357 21.793C32.7992 22.2018 33.0396 22.5736 33.3428 22.8877C33.6449 23.2006 34.0042 23.45 34.4004 23.6201C34.7955 23.7896 35.2201 23.8768 35.6484 23.877C36.0768 23.8769 36.5013 23.7895 36.8965 23.6201C37.2928 23.45 37.6529 23.2007 37.9551 22.8877C38.2581 22.5736 38.4977 22.2016 38.6611 21.793C38.8252 21.3831 38.9102 20.944 38.9102 20.501V18.1914C38.9102 18.1709 38.9176 18.1512 38.9316 18.1367C38.9385 18.1295 38.947 18.124 38.9561 18.1201C38.9652 18.1162 38.9755 18.1133 38.9854 18.1133H40.8486ZM24.8145 20.3418C24.2187 20.0863 23.5618 20.019 22.9287 20.1494C22.2943 20.2807 21.7125 20.6034 21.2578 21.0752C20.8007 21.5495 20.4892 22.1515 20.3643 22.8057C20.2388 23.4608 20.3044 24.1392 20.5518 24.7568C20.7992 25.3741 21.2179 25.9016 21.7549 26.2725C22.2906 26.6429 22.922 26.8411 23.5684 26.8408C24.4333 26.8394 25.2627 26.4828 25.874 25.8496C26.4852 25.2163 26.8293 24.358 26.8301 23.4629C26.8303 22.7956 26.6383 22.1427 26.2793 21.5859C25.9207 21.0305 25.4108 20.5974 24.8145 20.3418Z" fill="currentColor"/>
</svg>
