<svg xmlns="http://www.w3.org/2000/svg" version="1.1" xmlns:xlink="http://www.w3.org/1999/xlink" width="64" height="64"><svg width="64" height="64" viewBox="0 0 64 64" fill="none" xmlns="http://www.w3.org/2000/svg">
<circle cx="32" cy="32" r="31" stroke="#323E45" style="stroke:#323E45;stroke:color(display-p3 0.1961 0.2431 0.2706);stroke-opacity:1;" stroke-width="2"></circle>
<circle cx="31.9998" cy="32" r="26.2" stroke="#323E45" style="stroke:#323E45;stroke:color(display-p3 0.1961 0.2431 0.2706);stroke-opacity:1;" stroke-width="2"></circle>
<circle cx="32.0001" cy="32" r="21.4" stroke="#323E45" style="stroke:#323E45;stroke:color(display-p3 0.1961 0.2431 0.2706);stroke-opacity:1;" stroke-width="2"></circle>
<circle cx="31.9999" cy="32" r="16.6" stroke="#323E45" style="stroke:#323E45;stroke:color(display-p3 0.1961 0.2431 0.2706);stroke-opacity:1;" stroke-width="2"></circle>
<circle cx="32.0002" cy="32" r="11.8" stroke="#323E45" style="stroke:#323E45;stroke:color(display-p3 0.1961 0.2431 0.2706);stroke-opacity:1;" stroke-width="2"></circle>
<circle cx="32" cy="32" r="7" stroke="#323E45" style="stroke:#323E45;stroke:color(display-p3 0.1961 0.2431 0.2706);stroke-opacity:1;" stroke-width="2"></circle>
<circle cx="31.9998" cy="32" r="10.2" stroke="#EDEFEB" style="stroke:#EDEFEB;stroke:color(display-p3 0.9294 0.9373 0.9216);stroke-opacity:1;" stroke-width="2"></circle>
<circle cx="32" cy="32" r="15" stroke="#EDEFEB" style="stroke:#EDEFEB;stroke:color(display-p3 0.9294 0.9373 0.9216);stroke-opacity:1;" stroke-width="2"></circle>
<circle cx="32.0002" cy="32" r="19.8" stroke="#EDEFEB" style="stroke:#EDEFEB;stroke:color(display-p3 0.9294 0.9373 0.9216);stroke-opacity:1;" stroke-width="2"></circle>
<circle cx="31.9999" cy="32" r="24.6" stroke="#EDEFEB" style="stroke:#EDEFEB;stroke:color(display-p3 0.9294 0.9373 0.9216);stroke-opacity:1;" stroke-width="2"></circle>
<circle cx="32.0001" cy="32" r="29.4" stroke="#EDEFEB" style="stroke:#EDEFEB;stroke:color(display-p3 0.9294 0.9373 0.9216);stroke-opacity:1;" stroke-width="2"></circle>
<mask id="SvgjsMask1002" style="mask-type:alpha" maskUnits="userSpaceOnUse" x="0" y="0" width="32" height="64">
<rect width="32" height="64" fill="#D9D9D9" style="fill:#D9D9D9;fill:color(display-p3 0.8510 0.8510 0.8510);fill-opacity:1;"></rect>
</mask>
<g mask="url(#mask0_2073_3010)">
<path d="M32 1C35.8353 1 39.5767 4.1351 42.4189 9.81934C45.2313 15.4441 47 23.285 47 32C47 40.715 45.2313 48.5559 42.4189 54.1807C39.5767 59.8649 35.8353 63 32 63C28.1647 63 24.4233 59.8649 21.5811 54.1807C18.7687 48.5559 17 40.715 17 32C17 23.285 18.7687 15.4441 21.5811 9.81934C24.4233 4.1351 28.1647 1 32 1Z" stroke="#323E45" style="stroke:#323E45;stroke:color(display-p3 0.1961 0.2431 0.2706);stroke-opacity:1;" stroke-width="2"></path>
<path d="M31.9995 5.80005C35.1722 5.80005 38.3142 8.39818 40.7222 13.2141C43.1002 17.9702 44.6001 24.6108 44.6001 32.0002C44.6001 39.3897 43.1002 46.0303 40.7222 50.7864C38.3142 55.6022 35.1722 58.2004 31.9995 58.2004C28.827 58.2002 25.6857 55.6019 23.2778 50.7864C20.8998 46.0303 19.3999 39.3897 19.3999 32.0002C19.3999 24.6108 20.8998 17.9702 23.2778 13.2141C25.6857 8.39838 28.8269 5.80026 31.9995 5.80005Z" stroke="#323E45" style="stroke:#323E45;stroke:color(display-p3 0.1961 0.2431 0.2706);stroke-opacity:1;" stroke-width="2"></path>
<path d="M32 10.6C34.5099 10.6001 37.0518 12.6606 39.0254 16.6078C40.9691 20.4953 42.2002 25.9364 42.2002 32.0004C42.2001 38.0641 40.969 43.5046 39.0254 47.392C37.0518 51.3392 34.5099 53.3997 32 53.3998C29.49 53.3998 26.9483 51.3393 24.9746 47.392C23.0309 43.5046 21.7999 38.0642 21.7998 32.0004C21.7998 25.9364 23.0309 20.4953 24.9746 16.6078C26.9482 12.6606 29.4901 10.6 32 10.6Z" stroke="#323E45" style="stroke:#323E45;stroke:color(display-p3 0.1961 0.2431 0.2706);stroke-opacity:1;" stroke-width="2"></path>
<path d="M32 15.4C33.8472 15.4 35.7888 16.9239 37.3281 20.0026C38.8374 23.0213 39.7998 27.2614 39.7998 31.9996C39.7998 36.7381 38.8375 40.9788 37.3281 43.9977C35.7888 47.0763 33.8472 48.6002 32 48.6002C30.1528 48.6001 28.2112 47.0762 26.6719 43.9977C25.1625 40.9788 24.2002 36.738 24.2002 31.9996C24.2002 27.2615 25.1626 23.0213 26.6719 20.0026C28.2112 16.924 30.1528 15.4001 32 15.4Z" stroke="#323E45" style="stroke:#323E45;stroke:color(display-p3 0.1961 0.2431 0.2706);stroke-opacity:1;" stroke-width="2"></path>
<path d="M32.0005 20.2C33.1849 20.2002 34.5264 21.1864 35.6313 23.3962C36.7064 25.5464 37.3999 28.5869 37.3999 31.9998C37.3999 35.4126 36.7063 38.4531 35.6313 40.6033C34.5264 42.8131 33.1849 43.7993 32.0005 43.7996C30.816 43.7996 29.4737 42.8133 28.3687 40.6033C27.2937 38.4531 26.6001 35.4125 26.6001 31.9998C26.6001 28.5869 27.2936 25.5464 28.3687 23.3962C29.4737 21.1862 30.816 20.2 32.0005 20.2Z" stroke="#323E45" style="stroke:#323E45;stroke:color(display-p3 0.1961 0.2431 0.2706);stroke-opacity:1;" stroke-width="2"></path>
<path d="M32 25C32.5217 25 33.2629 25.449 33.9336 26.79C34.5744 28.0716 35 29.9124 35 32C35 34.0876 34.5744 35.9284 33.9336 37.21C33.2629 38.551 32.5217 39 32 39C31.4783 39 30.7371 38.551 30.0664 37.21C29.4256 35.9284 29 34.0876 29 32C29 29.9124 29.4256 28.0716 30.0664 26.79C30.7371 25.449 31.4783 25 32 25Z" stroke="#323E45" style="stroke:#323E45;stroke:color(display-p3 0.1961 0.2431 0.2706);stroke-opacity:1;" stroke-width="2"></path>
<path d="M31.9995 21.8C32.963 21.8 34.1047 22.6072 35.0649 24.5276C35.9953 26.3883 36.6001 29.029 36.6001 32.0002C36.6001 34.9714 35.9953 37.6123 35.0649 39.4729C34.1047 41.393 32.963 42.2004 31.9995 42.2004C31.0361 42.2002 29.8942 41.393 28.9341 39.4729C28.0038 37.6123 27.3999 34.9714 27.3999 32.0002C27.3999 29.0291 28.0038 26.3883 28.9341 24.5276C29.8942 22.6074 31.036 21.8003 31.9995 21.8Z" stroke="#EDEFEB" style="stroke:#EDEFEB;stroke:color(display-p3 0.9294 0.9373 0.9216);stroke-opacity:1;" stroke-width="2"></path>
<path d="M32 17C33.6263 17 35.3681 18.3447 36.7627 21.1338C38.1273 23.8631 39 27.7035 39 32C39 36.2965 38.1273 40.1369 36.7627 42.8662C35.3681 45.6553 33.6263 47 32 47C30.3737 47 28.6319 45.6553 27.2373 42.8662C25.8727 40.1369 25 36.2965 25 32C25 27.7035 25.8727 23.8631 27.2373 21.1338C28.6319 18.3447 30.3737 17 32 17Z" stroke="#EDEFEB" style="stroke:#EDEFEB;stroke:color(display-p3 0.9294 0.9373 0.9216);stroke-opacity:1;" stroke-width="2"></path>
<path d="M32.0005 12.2C34.2894 12.2002 36.6307 14.0817 38.4595 17.739C40.2584 21.3369 41.3999 26.3777 41.3999 31.9998C41.3999 37.6219 40.2584 42.6626 38.4595 46.2605C36.6307 49.918 34.2894 51.7993 32.0005 51.7996C29.7114 51.7996 27.3694 49.9183 25.5405 46.2605C23.7416 42.6626 22.6001 37.6219 22.6001 31.9998C22.6001 26.3777 23.7416 21.3369 25.5405 17.739C27.3694 14.0814 29.7115 12.2 32.0005 12.2Z" stroke="#EDEFEB" style="stroke:#EDEFEB;stroke:color(display-p3 0.9294 0.9373 0.9216);stroke-opacity:1;" stroke-width="2"></path>
<path d="M32 7.40002C34.9518 7.40002 37.8931 9.81906 40.1562 14.3453C42.3895 18.8118 43.7998 25.0521 43.7998 31.9996C43.7998 38.9473 42.3895 45.1883 40.1562 49.6549C37.8931 54.1811 34.9517 56.6002 32 56.6002C29.0483 56.6001 26.1069 54.1811 23.8438 49.6549C21.6105 45.1883 20.2002 38.9473 20.2002 31.9996C20.2002 25.0521 21.6105 18.8118 23.8438 14.3453C26.1069 9.81906 29.0483 7.40013 32 7.40002Z" stroke="#EDEFEB" style="stroke:#EDEFEB;stroke:color(display-p3 0.9294 0.9373 0.9216);stroke-opacity:1;" stroke-width="2"></path>
<path d="M32 2.59998C35.6145 2.60008 39.1561 5.55662 41.8535 10.9515C44.521 16.2867 46.2002 23.7274 46.2002 32.0004C46.2001 40.2734 44.5211 47.7141 41.8535 53.0492C39.1561 58.4439 35.6144 61.3997 32 61.3998C28.3856 61.3998 24.844 58.4439 22.1465 53.0492C19.4789 47.7141 17.7999 40.2734 17.7998 32.0004C17.7998 23.7273 19.4789 16.2867 22.1465 10.9515C24.844 5.55652 28.3855 2.59998 32 2.59998Z" stroke="#EDEFEB" style="stroke:#EDEFEB;stroke:color(display-p3 0.9294 0.9373 0.9216);stroke-opacity:1;" stroke-width="2"></path>
</g>
</svg><style>@media (prefers-color-scheme: light) { :root { filter: none; } }
@media (prefers-color-scheme: dark) { :root { filter: contrast(1) brightness(1); } }
</style></svg>